<svg viewBox="0 0 550.02 171.59" xmlns="http://www.w3.org/2000/svg"><path d="m159.9 53c-19.99 1.24-31.11 15.76-43.24 30.55l-31.08 37.9c-1.06 1.29-1.82 2.3-3.29 1.65l-26.54-30.71c10.05-15.65 21.12-30.57 32.43-46.04l33.92-46.35c6.17 6.76 9.94 13.44 14.87 20.43l22.93 32.56z" fill="#7c5ddb"/><path d="m159.9 53c9.39 13.33 18.75 26.14 28.16 38.74-2.05-.09-2.42-.5-.71 1.74l-36.07 42.09 13.59 5.41c1.33.53 2.38-1.16 3.07.13s1.57.63 2.22.23c.39-.24.51 1.29 1.29 1.45 1.07.22 1.58-1 2.06-.07.28.53.27 1.29.13 2l-24.19-7.85c-9.08-2.94-17.93-6.85-27.6-9.39l-26.68 8.75c-.72.24-.58 1.45-.47 1.99-.62-.63-1.66-1.32-2.55-1.01.2-3.39-6.4-10.11-9.86-14.11 1.46.65 2.23-.36 3.29-1.65l31.08-37.9c12.13-14.79 23.25-29.31 43.24-30.55z" fill="#8e41bf"/><path d="m188.06 91.74 22.08 29.57 34.15 46.89c.53.73-1.16.94-1.61 1.01l-69.04-24.49c.13-.71.14-1.47-.13-2-.48-.93-.99.29-2.06.07-.78-.16-.9-1.69-1.29-1.45-.65.4-1.53 1.05-2.22-.23s-1.74.4-3.07-.13l-13.59-5.41 36.07-42.09c-1.71-2.24-1.34-1.83.71-1.74z" fill="#41595f"/><path d="m82.3 123.1c3.46 4 10.06 10.72 9.86 14.11l-84.51 29.14c-1.7.59-1.85.73-2.63.33-1.16-.59-2.08-1.07-1.77-2.15 16.94-24.94 34.53-48.85 52.5-72.14l26.54 30.71z" fill="#40575c"/><path d="m92.16 137.2c.9-.31 1.93.37 2.55 1.01 9.48 9.65 17.98 20.43 26.8 30.76-.66 0-1.17.1-.82.88l-81.43.19c-13.46.03-26.11.17-39.27-.84.08-2.49 2.41-3.42 3.26-4.68-.32 1.08.61 1.57 1.77 2.15.78.39.92.26 2.63-.33z" fill="#63767d"/><path d="m173.64 144.72 69.04 24.49c-5.21.83-16.53.78-22.1.78l-99.89-.13c-.36-.78.16-.87.82-.88 1.48-.05 2.68-1.39 3.9-2.87l24.05-29.23 24.19 7.85z" fill="#abc1c8"/><path d="m149.45 136.87-24.05 29.23c-1.22 1.48-2.42 2.82-3.9 2.87-8.82-10.33-17.32-21.11-26.8-30.76-.11-.53-.25-1.75.47-1.99l26.68-8.75c9.67 2.54 18.52 6.45 27.6 9.39z" fill="#dfeff1"/><path d="m416.12 96.2-30.8.21c-.64 6.76-.33 13.42-.17 20.39l35.01.49c.47 3.05.48 5.54.04 8.54l-44.36.05v-66.56s44.2-.27 44.2-.27c.88 2.85.67 5.54.23 8.81l-35.25.36c-.25 6.39-.44 12.53.05 19.09l30.85.29c.67 2.42.41 4.44.2 8.6z" fill="#445b61"/><path d="m491.56 125.3c-3.79 1.01-7.34.47-11.47.38l-17.48-25.49-17.76 25.69c-3.74-.08-6.93.48-11.03-.39l22.77-32.92-22.21-33.02c4.42-.64 7.62-.52 11.29-.2l17.06 24.97 16.9-24.83c3.66-.29 7.06-.51 11.48.14l-22.58 32.38 23.03 33.3z" fill="#445d63"/><path d="m267.97 107.95c-2.03-.91-2.05-4.48-2.93-6.47 3.23-1.19 5.99-.52 9.67-1.46l-12.21-26.83-22.98 52.45c-3.48.49-6.39.72-10.18-.21l29.31-65.92c1.75-1.2 5.73-.63 8.08-.07l29.5 66.05c-3.91.57-7.15.41-10.19 0l-7.63-16.65c-3.32-.85-6.94.66-10.43-.9z" fill="#435c62"/><path d="m340.72 101.67h-21.73s-.36 23.88-.36 23.88c-3 .48-5.89.64-9.41 0l.12-66.35 31.81-.07c11.79-.03 20.48 10.72 19.5 22.31-.35 11.09-8.51 20.22-19.94 20.22z" fill="#455d63"/><path d="m341.05 92.34c-7.35.96-14.59.28-22.04.38l-.12-24.78 22.16.25c6.52.07 10.31 6.31 10.33 11.9s-3.86 11.4-10.33 12.25z" fill="#fff"/><path d="m348.82 169.41c.01 1.73-3.24 2.02-3.98 1.02l-13.45-18.12c-1.41 5.09.98 18.17-1.71 18.67-.53.1-2.09 0-2.08-1.17l.23-23.16c.01-1.1 1.21-1.62 1.83-1.59 2.52.12 11.9 16.63 15.27 19.67l.7-18.75c.04-.94 3-1.13 3.01-.29l.17 23.73z" fill="#4d656a"/><path d="m319.91 169.37c0 1.62-3.13 2.19-3.96 1.09l-13.62-18.29c-1.32 3.8.56 17.73-1.35 18.63-.7.33-2.69.24-2.64-1.16.32-7.93-.35-15.56.5-23.82.75-7.26 15.54 18.12 17.19 18.82 1.42-4.47-1.65-19.32 2.12-19.41 1.18-.03 1.76.84 1.76 2.42v21.73z" fill="#465f65"/><path d="m522.35 146.62c.3 3.8.8 23.62-.78 24.13-.79.25-2.15.15-2.78-.7-4.23-5.75-7.9-11.63-13.06-17.6-2 4.82 1.24 18.27-2.42 18.4-.46.02-1.66-.35-1.62-1.28.33-8.02-.46-15.83.39-23.93.79-7.45 15.29 18.36 16.81 18.55 1.55-4.49-1-18.83 1.72-18.85.52 0 1.65.26 1.73 1.27z" fill="#4b646a"/><path d="m546.91 169.47c-5.65 3.85-13.73 2.32-17.07-3.43-.62-1.07-.46-2.09-.31-2.68 1.65-6.6 2.22 8.97 13.49 4.88 1.8-.65 3.31-2.04 3.36-3.83.23-7.48-14.02-1.98-16.25-9.98-.58-2.09-.25-4.22 1.18-6.05 2.07-2.63 5.26-3.72 8.44-3.7 6.39.04 9.65 5.58 9.04 7.16-1.79 4.58-2.43-4.57-10.09-3.89-2.65.23-6.73 2.86-4.87 6.29 2.01 3.73 13.06 1.29 15.6 6.94 1.27 2.83.53 6.22-2.51 8.29z" fill="#4b6368"/><path d="m393.24 169.72c-1.63-3.86-10.09-23.26-7.98-24.33.45-.23 1.9-.46 2.28.53l7.96 20.54c3.94-6.94 5.37-13.73 8.69-20.56.62-1.29 3.73-.89 3.37.02l-9.07 22.88c-.49 1.25-1.2 1.84-1.8 1.97-.94.19-2.85.37-3.45-1.04z" fill="#496066"/><path d="m441.74 170.07-.27-21.51c-2.47-1.37-7.93.98-8.26-1.48-.11-.83.31-1.79 1.49-1.79l18.87-.02c-1.07 4.08-5 2.71-7.96 2.78l-.5 22.36c-.02.97-3.35.89-3.37-.34z" fill="#485f65"/><path d="m287.18 170.29c-.42-8.15-.17-15.94-.14-24.32 0-1.02 3.02-1.09 3.03-.2l.27 24.04c.01 1.21-3.11 1.38-3.16.48z" fill="#445d64"/><path d="m462.87 169.26c.01 1.57-1.3 1.74-1.75 1.71s-1.69-.28-1.69-1.28l-.07-22.05c0-1.06.24-1.82.68-2.12.86-.58 2.68-.33 2.69 1.15l.16 22.59z" fill="#485e62"/><path d="m495.06 157.69c.38 8.49-5.42 13.95-12.84 13.81-7.37-.14-13.33-6.31-12.72-14.25.56-7.24 6.1-12.3 12.74-12.4 6.92-.1 12.46 5 12.81 12.84z" fill="#486064"/><path d="m491.67 157.7c.24 6.44-4.22 10.69-9.45 10.64-5.89-.05-9.91-4.91-9.35-11.13.48-5.33 4.47-9.21 9.38-9.24s9.21 3.72 9.43 9.72z" fill="#fff"/><path d="m372.83 170.45c-4.66 1.95-9.25.87-12.47-1.16-3.67-2.32-5.18-6.46-5.23-11.1-.06-5.54 2.88-10.25 7.46-12.2 5.03-2.14 10.74-1 14.57 3.41 5.6 6.45 4.05 17.53-4.33 21.05z" fill="#486166"/><path d="m376.85 158.66c-.3 6.21-4.83 9.94-9.76 9.65-5.74-.34-9.23-5.16-8.64-11.09.56-5.56 4.45-9.32 9.65-9.04 5.01.27 9.05 4.42 8.76 10.48z" fill="#fff"/><path d="m425.98 163.94c-3.64.28-6.94-.3-10.59.46-2.08.44-2.07 5.87-4.17 6.43-.64.17-2.77.03-2.35-.99l8.8-21.81c.49-1.2.87-2.63 2.13-2.75.84-.08 2.67-.21 3.28 1.37l8.97 23.12c.35.9-1.24 1.33-1.67 1.3-2.55-.17-2.27-3.47-4.4-7.13z" fill="#4a6267"/><path d="m424.84 160.53c-3.04.59-5.01.58-8.65.37 1.24-3.8 2.37-6.89 4.51-10.52 2.08 3.12 2.61 6.14 4.15 10.15z" fill="#fff"/></svg>