<svg viewBox="0 0 519.25 199.38" xmlns="http://www.w3.org/2000/svg"><path d="m467.62 25.79c-3.22-6.38-6.79-10.97-13.98-12.92 7.14-1.94 11.32-6.05 13.91-12.88 2.65 6.6 6.69 10.8 13.48 12.84-6.62 2.04-10.55 6.01-13.4 12.96z" fill="#30775e"/><path d="m455.1 157.75c0 1.19-.47 2.47-1.41 2.47l-73.33-.05-.07-42.54c.26-1.47 2.36-2.02 3.36-3.03l28.49-22.56c3.37-2.67 7.75-2.55 10.99.02l26.21 20.81 5.67 4.11.09 40.76z" fill="#1c2b35"/><path d="m455.32 92.9-.57 14.63c-8.68-6.12-16.71-13.11-25.35-19.96-6.08-4.82-14.49-6.96-21.07-1.78l-27.68 21.76c-.29-4.81-.64-9.85-.58-14.72l.25-18.81c.13-10.09 8.42-16.97 18.73-15.72-8.27-9.84-8.62-22.89-.56-32.35 6.5-7.63 16.49-10.75 26.36-7.98 8.8 2.47 16.25 10.34 17.68 20.17 1.1 7.55-1.69 14.12-6.49 20.23 5.14-.3 9.63.41 13.14 3.21 3.7 2.96 5.68 7.4 5.78 12.45z" fill="#1c2b35"/><path d="m460.79 158.82v-41.7c12.34.72 20.22-16.49 28.97-13.9 1.88.56 4.98 2.27 4.99 4.95l.25 51.96-32.02.11c-.98 0-1.8-.25-2.2-1.43z" fill="#2d725d"/><path d="m454.75 107.53.57-14.63 5.33 5.39-.03-39.52c0-9.86 6.17-17.91 15.64-18.89s17.92 5.04 19.22 14.73c.65 4.86.58 9.54.16 14.56-7.55-4.46-15.73-2.9-20.29 3.42-4.38 6.08-3.53 14.37 2.37 19.61 1.46 1.29 3.09 1.86 4.52 3.65l-14.53 11.52c-4.51 3.57-9.09 2.89-12.96.16z" fill="#2e745e"/><path d="m513.56 147.3c-.05 7.05-6.3 12.17-12.77 12.74l-.21-64.56c8.12 1.12 13.27 8.09 13.22 16.19l-.23 35.64z" fill="#2e745e"/><path d="m334.68 159.93c-7.25-.47-12.67-6.84-12.63-14.17l.23-37.04c.04-6.77 6.04-11.85 12.33-13.12z" fill="#2e7460"/><path d="m374.51 160.12-34.14.02.19-52.01c.01-2.72 3.42-4.29 5.14-4.87 2.22-.75 5.19-.11 7.14 1.45l11.43 9.13c2.93 2.34 6.27 3.15 10.28 3.28l-.05 42.99z" fill="#3582bc"/><path d="m380.07 92.83c-.06 4.87.28 9.91.58 14.72-3.72 2.92-8.62 3.41-13.07-.14-4.86-3.87-9.66-7.79-14.42-12.03 7.67-3.83 11.22-11.33 9.03-18.86-1.28-4.4-4.92-7.51-8.47-8.92-4.82-1.91-9.09-.85-13.76 1.39-.68-10.25-1.41-21.07 8.35-26.71 5.23-3.03 11.1-3.5 16.41-1.01 5.97 2.8 9.82 8.61 9.86 15.11l.2 41.27 5.3-4.81z" fill="#3683bc"/><path d="m345.34 73.81c4.35-1.61 8.78.41 10.35 4.58 1.51 4-.42 8.74-5.15 10.33-3.48 1.17-7.89-.49-9.68-4.41s0-8.83 4.47-10.49z" fill="#3384be"/><path d="m490.16 88.66c-4.67 1.78-9.21-1.3-10.36-5.26-1.31-4.51 1.33-9.36 6.07-10.13 4.16-.67 7.87 1.94 9.1 5.69 1.16 3.55-.6 8.09-4.82 9.7z" fill="#2f7861"/><path d="m511.79 63.65c3.1-1.13 6.11.51 7.18 3.51.95 2.69-.64 5.8-3.4 6.87s-5.74-.43-6.95-2.74c-1.62-3.1-.14-6.45 3.17-7.65z" fill="#2d725b"/><path d="m319.47 63.82c3.02-1.39 6.26.17 7.46 2.85s-.03 6.02-2.96 7.32c-2.6 1.15-5.68-.02-7.09-2.64s-.52-6.1 2.59-7.53z" fill="#2c715c"/><path d="m328.03 38.83c-1.42-3.93-3.67-5.51-7.52-6.88 3.44-1.86 6.12-3.64 7.55-7.5 1.7 3.8 3.76 5.88 7.73 7.28-3.83 1.69-6.16 3.15-7.76 7.1z" fill="#3784bb"/><path d="m369.13 30.94c-1.45-2.72-3.14-4.75-6.31-6 3.09-1.29 4.94-2.69 6.32-5.78 1.19 2.84 3.02 4.78 6.38 5.73-2.71 1.31-4.63 2.57-6.39 6.06z" fill="#1f2f37"/><text fill="#1c2b35" font-family="Futura-Bold, Futura" font-size="118.76" font-weight="700" transform="translate(0 158.53)"><tspan letter-spacing="0em" x="0" y="0">A</tspan><tspan x="95.36" y="0">u</tspan><tspan letter-spacing="0em" x="174.81" y="0">r</tspan><tspan x="230.86" y="0">a</tspan></text></svg>