<?xml version="1.0" encoding="UTF-8"?><svg id="Layer_1" xmlns="http://www.w3.org/2000/svg" xmlns:xlink="http://www.w3.org/1999/xlink" viewBox="0 0 535.6 180.94"><defs><linearGradient id="linear-gradient" x1="32.61" y1="23.98" x2="192.61" y2="124.58" gradientTransform="translate(-20.99 15.38) scale(.69)" gradientUnits="userSpaceOnUse"><stop offset="0" stop-color="#da63aa"/><stop offset="1" stop-color="#6085d3"/></linearGradient><linearGradient id="linear-gradient-2" x1="159.68" y1="127.94" x2="245.47" y2="190.19" gradientTransform="translate(-20.99 15.38) scale(.69)" gradientUnits="userSpaceOnUse"><stop offset="0" stop-color="#677ad4"/><stop offset="1" stop-color="#3da1d7"/></linearGradient></defs><g id="Generative_Object"><path d="M58.97,161.31c-16.76,12.01-38.71,8.43-51.3-7.62-10.7-13.65-10.07-33.16,1.04-46.37,6.75-8.04,15.51-11.66,25.92-12.47,9.33-.72,17.23-7.91,17.66-17.29.47-10.55-8.73-18.14-19.05-17.68-13.27.59-25.17-5.97-30.42-18.57C-1.1,31.93-.42,21.63,5.65,12.88,10.51,5.87,19.06.22,29.21.2L132.55,0c10.22-.02,19.52,3.95,25.66,12.24,7.15,9.65,7.48,21.92,1.83,32.15-5.35,9.7-15.72,15.35-27.48,15.32l-52.02-.11c-3.13,0-5.5,1.41-5.5,4.8l-.04,65.87c0,12.67-5.71,23.63-16.03,31.03Z" style="fill:url(#linear-gradient);"/><path d="M157.43,109.54c10.74,14.45,8.89,34.54-3,47.07-12.1,12.75-31.28,15.72-46.8,6.22-10.23-6.26-18.07-16.35-18.25-28.29l-.51-33.35c-.09-5.98,1.68-11.58,6.38-14.89,9.56-6.73,19.29-.53,27.78,5.61,3.51,2.54,6.77,2.95,11.04,3.45,9.3,1.1,17.52,6.31,23.37,14.19Z" style="fill:url(#linear-gradient-2);"/><text transform="translate(189.58 75.28)" style="fill:#154c6d; font-family:KefaIII-Bold, &apos;Kefa III&apos;; font-size:87.05px; font-variation-settings:&apos;wght&apos; 700; font-weight:700;"><tspan x="0" y="0" style="letter-spacing:-.05em;">F</tspan><tspan x="44.66" y="0" style="letter-spacing:0em;">ake</tspan><tspan x="0" y="82.6">Business</tspan></text></g></svg>