<?xml version="1.0" encoding="UTF-8"?><svg id="Layer_1" xmlns="http://www.w3.org/2000/svg" xmlns:xlink="http://www.w3.org/1999/xlink" viewBox="0 0 654.86 441.26"><defs><linearGradient id="linear-gradient" x1="45.16" y1="218.37" x2="603.94" y2="218.37" gradientUnits="userSpaceOnUse"><stop offset="0" stop-color="#a0aabf"/><stop offset=".41" stop-color="#eeeff3" stop-opacity=".61"/><stop offset=".49" stop-color="#fff" stop-opacity=".53"/><stop offset="1" stop-color="#a0aabf" stop-opacity=".4"/></linearGradient><linearGradient id="linear-gradient-2" x1="317.51" y1="133.24" x2="317.51" y2="309.63" gradientUnits="userSpaceOnUse"><stop offset="0" stop-color="#ff85d6"/><stop offset=".18" stop-color="#d870d6" stop-opacity=".9"/><stop offset=".6" stop-color="#763bd8" stop-opacity=".65"/><stop offset=".78" stop-color="#4a24d9" stop-opacity=".53"/><stop offset="1" stop-color="#4a24d9" stop-opacity="0"/></linearGradient></defs><rect x="-5.3" y="-.41" width="663.97" height="443.06" style="fill:#1e1e1e;"/><rect x="46.16" y="53.6" width="556.79" height="329.54" rx="20" ry="20" style="fill:#020202; stroke:url(#linear-gradient); stroke-miterlimit:10; stroke-width:2px;"/><path d="M86.88,106.83c-1.46-.38-2.88-.82-4.13-1.25-.22-.08-.45-.16-.66-.16-2.56-.1-4.75-1.98-4.75-5.46s2.11-5.68,5.03-5.68,4.83,2.27,4.83,5.46c0,2.77-1.28,4.55-3.07,5.17v.06c1.07.27,2.24.53,3.15.69l-.4,1.17ZM85.73,99.81c0-2.16-1.12-4.39-3.41-4.39s-3.5,2.18-3.49,4.51c-.02,2.29,1.25,4.35,3.43,4.35s3.47-2.02,3.47-4.48Z" style="fill:#fff;"/><path d="M95.49,103.14c0,.8.02,1.5.06,2.11h-1.25l-.08-1.26h-.03c-.37.62-1.18,1.44-2.56,1.44-1.22,0-2.67-.67-2.67-3.39v-4.53h1.41v4.29c0,1.47.45,2.47,1.73,2.47.94,0,1.6-.66,1.86-1.28.08-.21.13-.46.13-.72v-4.75h1.41v5.63Z" style="fill:#fff;"/><path d="M98.6,101.63c.03,1.9,1.25,2.69,2.66,2.69,1.01,0,1.62-.18,2.15-.4l.24,1.01c-.5.22-1.34.48-2.58.48-2.39,0-3.81-1.57-3.81-3.91s1.38-4.18,3.63-4.18c2.53,0,3.2,2.23,3.2,3.65,0,.29-.03.51-.05.66h-5.44ZM102.73,100.62c.02-.9-.37-2.29-1.95-2.29-1.42,0-2.05,1.31-2.16,2.29h4.11Z" style="fill:#fff;"/><path d="M105.83,99.92c0-.91-.02-1.7-.06-2.42h1.23l.05,1.52h.06c.35-1.04,1.2-1.7,2.14-1.7.16,0,.27.02.4.05v1.33c-.14-.03-.29-.05-.48-.05-.99,0-1.7.75-1.89,1.81-.03.19-.06.42-.06.66v4.13h-1.39v-5.33Z" style="fill:#fff;"/><path d="M112.7,95.32c.02.48-.34.86-.9.86-.5,0-.85-.38-.85-.86s.37-.88.88-.88.87.38.87.88ZM111.13,105.25v-7.75h1.41v7.75h-1.41Z" style="fill:#fff;"/><path d="M115.66,101.63c.03,1.9,1.25,2.69,2.66,2.69,1.01,0,1.62-.18,2.15-.4l.24,1.01c-.5.22-1.34.48-2.58.48-2.39,0-3.81-1.57-3.81-3.91s1.38-4.18,3.63-4.18c2.53,0,3.2,2.23,3.2,3.65,0,.29-.03.51-.05.66h-5.44ZM119.79,100.62c.02-.9-.37-2.29-1.95-2.29-1.42,0-2.05,1.31-2.16,2.29h4.11Z" style="fill:#fff;"/><path d="M122.7,103.81c.42.27,1.15.56,1.86.56,1.02,0,1.5-.51,1.5-1.15,0-.67-.4-1.04-1.44-1.42-1.39-.5-2.05-1.26-2.05-2.19,0-1.25,1.01-2.27,2.67-2.27.78,0,1.47.22,1.9.48l-.35,1.02c-.3-.19-.87-.45-1.58-.45-.83,0-1.3.48-1.3,1.06,0,.64.46.93,1.47,1.31,1.34.51,2.03,1.18,2.03,2.34,0,1.36-1.06,2.32-2.9,2.32-.85,0-1.63-.21-2.18-.53l.35-1.07Z" style="fill:#fff;"/><line x1="91.64" y1="149.03" x2="548.49" y2="149.03" style="fill:#fff; opacity:.5; stroke:#ccc; stroke-miterlimit:10; stroke-width:2px;"/><line x1="91.64" y1="204.6" x2="548.49" y2="204.6" style="fill:#fff; opacity:.5; stroke:#ccc; stroke-miterlimit:10; stroke-width:2px;"/><line x1="91.64" y1="260.16" x2="548.49" y2="260.16" style="fill:#fff; opacity:.5; stroke:#ccc; stroke-miterlimit:10; stroke-width:2px;"/><line x1="91.64" y1="315.73" x2="548.49" y2="315.73" style="fill:#fff; opacity:.5; stroke:#ccc; stroke-miterlimit:10; stroke-width:2px;"/><text transform="translate(88.84 337.93)" style="fill:#fff; font-family:MyriadPro-Regular, &apos;Myriad Pro&apos;; font-size:10.92px; opacity:.6;"><tspan x="0" y="0">21</tspan></text><text transform="translate(184.95 338.53)" style="fill:#fff; font-family:MyriadPro-Regular, &apos;Myriad Pro&apos;; font-size:10.92px; opacity:.6;"><tspan x="0" y="0">34</tspan></text><text transform="translate(295.14 338.41)" style="fill:#fff; font-family:MyriadPro-Regular, &apos;Myriad Pro&apos;; font-size:10.92px; opacity:.6;"><tspan x="0" y="0">55</tspan></text><text transform="translate(409.28 338.05)" style="fill:#fff; font-family:MyriadPro-Regular, &apos;Myriad Pro&apos;; font-size:10.92px; opacity:.6;"><tspan x="0" y="0">89</tspan></text><text transform="translate(532.19 338.29)" style="fill:#fff; font-family:MyriadPro-Regular, &apos;Myriad Pro&apos;; font-size:10.92px; opacity:.6;"><tspan x="0" y="0">144</tspan></text><path d="M95.07,295.88s32.29-128.04,52.94-131.09c24.03-3.54,16.79,64.6,35.85,68.69,14.64,3.15,11.14-53.65,25.44-49.22,20.41,6.32,3.76,86.57,24.96,89.22,28.78,3.6,6.34-116.4,35.28-114.44,16.84,1.14,6.71,68.08,23.12,72.05,15.43,3.73,9.61-57.78,24.8-53.16,23.33,7.1,4.61,98.86,28.8,101.95,36.06,4.61,6.86-149.7,43.08-146.59,23.61,2.03,6.61,99.94,29.93,104.2,20.76,3.79,12.46-66.71,33.15-62.51,16.5,3.35,7.03,53.92,23.43,57.71,22.07,5.11,21.05-74.17,43.7-73.65,9.55.22,20.29,32.05,20.29,32.05l.12,118.54H95.19l-.12-13.75Z" style="fill:url(#linear-gradient-2);"/><path id="line" d="M95.13,295.64s32.29-128.04,52.94-131.09c24.03-3.54,16.79,64.6,35.85,68.69,14.64,3.15,11.14-53.65,25.44-49.22,20.41,6.32,3.76,86.57,24.96,89.22,28.78,3.6,6.34-116.4,35.28-114.44,16.84,1.14,6.71,68.08,23.12,72.05,15.43,3.73,9.61-57.78,24.8-53.16,23.33,7.1,4.61,98.86,28.8,101.95,36.06,4.61,6.86-149.7,43.08-146.59,23.61,2.03,6.61,99.94,29.93,104.2,20.76,3.79,12.46-66.71,33.15-62.51,16.5,3.35,7.03,53.92,23.43,57.71,22.07,5.11,21.05-74.17,43.7-73.65,9.55.22,20.29,32.05,20.29,32.05" style="fill:none; stroke:#20d5e5; stroke-linejoin:round;"/><rect x="392.07" y="91.41" width="158.13" height="23.08" style="fill:#1e1e1e;"/><rect x="212.01" y="91.41" width="158.13" height="23.08" style="fill:#1e1e1e;"/></svg>