<svg viewBox="0 0 654.86 441.26" xmlns="http://www.w3.org/2000/svg" xmlns:xlink="http://www.w3.org/1999/xlink"><linearGradient id="a" gradientUnits="userSpaceOnUse" x1="23.59" x2="631.09" y1="132.11" y2="132.11"><stop offset="0" stop-color="#a0aabf"/><stop offset=".41" stop-color="#eeeff3" stop-opacity=".61"/><stop offset=".49" stop-color="#fff" stop-opacity=".53"/><stop offset="1" stop-color="#a0aabf" stop-opacity=".4"/></linearGradient><linearGradient id="b" gradientUnits="userSpaceOnUse" x1="490.5" x2="490.5" y1="198.07" y2="61.63"><stop offset="0" stop-color="#1c1527" stop-opacity=".7"/><stop offset=".58" stop-color="#451c42" stop-opacity=".87"/><stop offset="1" stop-color="#662358"/></linearGradient><linearGradient id="c" x1="49.12" x2="607.9" xlink:href="#a" y1="312.76" y2="312.76"/><linearGradient id="d" gradientUnits="userSpaceOnUse" x1="207.57" x2="207.57" y1="262.85" y2="362.59"><stop offset="0" stop-color="#ff85d6"/><stop offset=".22" stop-color="#d06cd6"/><stop offset=".71" stop-color="#5c2dd8"/><stop offset=".78" stop-color="#4a24d9"/><stop offset=".96" stop-color="#4a24d9" stop-opacity=".19"/><stop offset="1" stop-color="#4a24d9" stop-opacity="0"/></linearGradient><linearGradient id="e" x1="345.91" x2="345.91" xlink:href="#d" y1="262.54" y2="362.28"/><linearGradient id="f" x1="488.27" x2="488.27" xlink:href="#d" y1="262.54" y2="362.28"/><path d="m-.74-3.08h657.27v443.9h-657.27z" fill="#1e1e1e"/><rect fill="#020202" height="213.84" rx="20" stroke="url(#a)" stroke-miterlimit="10" stroke-width="2" width="605.5" x="24.59" y="25.2"/><path d="m49.27 60.19v6.39c0 2.42 1.07 3.44 2.51 3.44 1.6 0 2.62-1.06 2.62-3.44v-6.39h1.41v6.29c0 3.31-1.74 4.67-4.08 4.67-2.21 0-3.87-1.26-3.87-4.61v-6.35z" fill="#fff"/><path d="m58.18 65.76c0-.99-.03-1.79-.06-2.53h1.26l.06 1.33h.03c.58-.94 1.49-1.5 2.75-1.5 1.87 0 3.28 1.58 3.28 3.94 0 2.79-1.7 4.16-3.52 4.16-1.02 0-1.92-.45-2.38-1.22h-.03v4.21h-1.39zm1.4 2.07c0 .21.03.4.06.58.26.98 1.1 1.65 2.11 1.65 1.49 0 2.35-1.22 2.35-2.99 0-1.55-.82-2.88-2.3-2.88-.96 0-1.86.69-2.13 1.74-.05.18-.1.38-.1.58v1.33z" fill="#fff"/><path d="m68.99 61.01v2.23h2.02v1.07h-2.02v4.18c0 .96.27 1.5 1.06 1.5.37 0 .64-.05.82-.1l.06 1.06c-.27.11-.7.19-1.25.19-.66 0-1.18-.21-1.52-.59-.4-.42-.54-1.1-.54-2.02v-4.23h-1.2v-1.07h1.2v-1.86l1.38-.37z" fill="#fff"/><path d="m74.15 61.06c.02.48-.34.86-.9.86-.5 0-.85-.38-.85-.86s.37-.88.88-.88.86.38.86.88zm-1.57 9.92v-7.75h1.41v7.75z" fill="#fff"/><path d="m76.33 65.33c0-.8-.02-1.46-.06-2.1h1.23l.06 1.25h.05c.43-.74 1.15-1.42 2.43-1.42 1.06 0 1.86.64 2.19 1.55h.03c.24-.43.54-.77.86-1.01.46-.35.98-.54 1.71-.54 1.02 0 2.54.67 2.54 3.36v4.56h-1.38v-4.39c0-1.49-.54-2.38-1.68-2.38-.8 0-1.42.59-1.67 1.28-.06.19-.11.45-.11.7v4.79h-1.38v-4.64c0-1.23-.54-2.13-1.62-2.13-.88 0-1.52.7-1.74 1.41-.08.21-.11.45-.11.69v4.67h-1.38v-5.65z" fill="#fff"/><path d="m90.46 67.36c.03 1.9 1.25 2.69 2.66 2.69 1.01 0 1.62-.18 2.14-.4l.24 1.01c-.5.22-1.34.48-2.58.48-2.38 0-3.81-1.57-3.81-3.91s1.38-4.18 3.63-4.18c2.53 0 3.2 2.23 3.2 3.65 0 .29-.03.51-.05.66h-5.44zm4.13-1.01c.02-.9-.37-2.29-1.95-2.29-1.42 0-2.05 1.31-2.16 2.29z" fill="#fff"/><path d="m390.95 120.69 69.6-46.83 50.62 41.35 78.89-53.58v136.44h-199.11z" fill="url(#b)"/><path d="m390.95 120.69 69.6-46.83 50.62 41.35 78.89-53.58" fill="none" stroke="#913988" stroke-miterlimit="10" stroke-width="2"/><circle cx="390.95" cy="120.69" fill="#20d5e5" r="5.65" stroke="#20d5e5" stroke-linecap="round" stroke-linejoin="round" stroke-width="2"/><circle cx="460.39" cy="74.66" fill="#20d5e5" r="5.65" stroke="#20d5e5" stroke-linecap="round" stroke-linejoin="round" stroke-width="2"/><circle cx="511.83" cy="115.04" fill="#20d5e5" r="5.65" stroke="#20d5e5" stroke-linecap="round" stroke-linejoin="round" stroke-width="2"/><circle cx="591.12" cy="61.63" fill="#20d5e5" r="5.65" stroke="#20d5e5" stroke-linecap="round" stroke-linejoin="round" stroke-width="2"/><path d="m54.7 149.16 3.5-3.94c1.96 2.36 4.98 3.85 8.02 3.85 7.04 0 12.9-5.57 12.9-21.93 0-11.99-3.89-18.5-10.89-18.5-4.79 0-8.49 4.27-8.49 10.7s2.99 10.36 9.03 10.36c3.17 0 7.13-1.9 10.49-6.91l.23 4.97c-3.07 4.1-7.63 6.67-11.77 6.67-8.46 0-13.92-5.07-13.92-15.09 0-9.34 6.59-15.66 14.41-15.66 9.62 0 16.85 7.8 16.85 23.46 0 19.63-8.87 27.17-18.59 27.17-5.24 0-9.08-2.23-11.76-5.15z" fill="#f2f2f2"/><path d="m92.73 149.16 3.5-3.94c1.97 2.36 4.98 3.85 8.02 3.85 7.04 0 12.9-5.57 12.9-21.93 0-11.99-3.89-18.5-10.89-18.5-4.79 0-8.49 4.27-8.49 10.7s2.99 10.36 9.03 10.36c3.17 0 7.13-1.9 10.49-6.91l.23 4.97c-3.07 4.1-7.63 6.67-11.77 6.67-8.46 0-13.92-5.07-13.92-15.09 0-9.34 6.59-15.66 14.41-15.66 9.62 0 16.85 7.8 16.85 23.46 0 19.63-8.87 27.17-18.59 27.17-5.24 0-9.08-2.23-11.76-5.15z" fill="#f2f2f2"/><path d="m131.8 149.55c0-2.89 2.05-4.86 4.56-4.86s4.56 1.97 4.56 4.86-2.05 4.76-4.56 4.76-4.56-1.97-4.56-4.76z" fill="#f2f2f2"/><path d="m149.8 149.16 3.5-3.94c1.97 2.36 4.98 3.85 8.02 3.85 7.04 0 12.9-5.57 12.9-21.93 0-11.99-3.89-18.5-10.89-18.5-4.79 0-8.49 4.27-8.49 10.7s2.99 10.36 9.03 10.36c3.17 0 7.13-1.9 10.49-6.91l.23 4.97c-3.07 4.1-7.63 6.67-11.77 6.67-8.46 0-13.92-5.07-13.92-15.09 0-9.34 6.59-15.66 14.41-15.66 9.62 0 16.85 7.8 16.85 23.46 0 19.63-8.87 27.17-18.59 27.17-5.24 0-9.08-2.23-11.76-5.15z" fill="#f2f2f2"/><path d="m187.83 149.16 3.5-3.94c1.96 2.36 4.98 3.85 8.02 3.85 7.04 0 12.9-5.57 12.9-21.93 0-11.99-3.89-18.5-10.89-18.5-4.79 0-8.49 4.27-8.49 10.7s2.99 10.36 9.03 10.36c3.17 0 7.13-1.9 10.49-6.91l.23 4.97c-3.07 4.1-7.63 6.67-11.77 6.67-8.46 0-13.92-5.07-13.92-15.09 0-9.34 6.59-15.66 14.41-15.66 9.62 0 16.85 7.8 16.85 23.46 0 19.63-8.87 27.17-18.59 27.17-5.24 0-9.08-2.23-11.76-5.15z" fill="#f2f2f2"/><path d="m225.85 149.16 3.5-3.94c1.97 2.36 4.98 3.85 8.02 3.85 7.04 0 12.9-5.57 12.9-21.93 0-11.99-3.89-18.5-10.89-18.5-4.79 0-8.49 4.27-8.49 10.7s2.99 10.36 9.03 10.36c3.17 0 7.13-1.9 10.49-6.91l.23 4.97c-3.07 4.1-7.63 6.67-11.77 6.67-8.46 0-13.92-5.07-13.92-15.09 0-9.34 6.59-15.66 14.41-15.66 9.62 0 16.85 7.8 16.85 23.46 0 19.63-8.87 27.17-18.59 27.17-5.24 0-9.08-2.23-11.76-5.15z" fill="#f2f2f2"/><path d="m262.59 118.03c0-10.04 4.54-15.76 11.4-15.76s11.4 5.72 11.4 15.76-4.54 15.91-11.4 15.91-11.4-5.77-11.4-15.91zm18.04 0c0-7.99-2.71-11.86-6.63-11.86s-6.63 3.87-6.63 11.86 2.71 12.01 6.63 12.01 6.63-4.02 6.63-12.01zm22.5-15.76h4.25l-27.69 52.05h-4.25zm-5.56 36.13c0-10.04 4.54-15.76 11.4-15.76s11.4 5.72 11.4 15.76-4.54 15.91-11.4 15.91-11.4-5.77-11.4-15.91zm18.03 0c0-7.99-2.71-11.86-6.63-11.86s-6.63 3.87-6.63 11.86 2.71 12.01 6.63 12.01 6.63-4.02 6.63-12.01z" fill="#f2f2f2"/><g fill="#fff"><path d="m59.93 187.44c0 2.78-1.69 4.26-3.75 4.26s-3.63-1.66-3.63-4.1c0-2.57 1.59-4.25 3.75-4.25s3.63 1.69 3.63 4.09zm-6.27.13c0 1.73.94 3.27 2.58 3.27s2.59-1.52 2.59-3.36c0-1.61-.84-3.29-2.58-3.29s-2.59 1.59-2.59 3.37z" opacity=".5"/><path d="m66.15 189.98c0 .6.01 1.13.05 1.58h-.94l-.06-.95h-.02c-.28.47-.89 1.08-1.92 1.08-.91 0-2-.5-2-2.54v-3.39h1.06v3.21c0 1.1.34 1.85 1.3 1.85.71 0 1.2-.49 1.39-.96.06-.16.1-.35.1-.54v-3.56h1.06v4.22z" opacity=".5"/><path d="m67.9 187.57c0-.68-.01-1.27-.05-1.81h.92l.04 1.14h.05c.26-.78.9-1.27 1.61-1.27.12 0 .2.01.3.04v1c-.11-.02-.22-.04-.36-.04-.74 0-1.27.56-1.42 1.36-.02.14-.05.31-.05.49v3.09h-1.04v-3.99z" opacity=".5"/><path d="m74.37 183.05h1.06v8.52h-1.06z" opacity=".5"/><path d="m77.79 188.85c.02 1.43.94 2.01 1.99 2.01.76 0 1.21-.13 1.61-.3l.18.76c-.37.17-1.01.36-1.93.36-1.79 0-2.85-1.18-2.85-2.93s1.03-3.13 2.72-3.13c1.89 0 2.4 1.67 2.4 2.73 0 .22-.02.38-.04.49h-4.08zm3.09-.75c.01-.67-.28-1.71-1.46-1.71-1.07 0-1.54.98-1.62 1.71z" opacity=".5"/><path d="m88.21 185.76c-.02.42-.05.89-.05 1.59v3.37c0 1.33-.26 2.15-.83 2.65-.56.53-1.38.7-2.11.7s-1.46-.17-1.93-.48l.26-.8c.38.24.98.46 1.7.46 1.08 0 1.87-.56 1.87-2.03v-.65h-.02c-.32.54-.95.97-1.85.97-1.44 0-2.47-1.22-2.47-2.83 0-1.97 1.28-3.08 2.62-3.08 1.01 0 1.56.53 1.81 1.01h.02l.05-.88h.92zm-1.09 2.29c0-.18-.01-.34-.06-.48-.19-.61-.71-1.12-1.48-1.12-1.01 0-1.73.85-1.73 2.19 0 1.14.58 2.09 1.72 2.09.65 0 1.24-.41 1.46-1.08.06-.18.08-.38.08-.56v-1.04z" opacity=".5"/><path d="m93.14 191.56-.08-.73h-.04c-.32.46-.95.86-1.78.86-1.17 0-1.77-.83-1.77-1.67 0-1.4 1.25-2.17 3.49-2.16v-.12c0-.48-.13-1.34-1.32-1.34-.54 0-1.1.17-1.51.43l-.24-.7c.48-.31 1.18-.52 1.91-.52 1.78 0 2.21 1.21 2.21 2.37v2.17c0 .5.02 1 .1 1.39h-.96zm-.16-2.96c-1.15-.02-2.46.18-2.46 1.31 0 .68.46 1.01 1 1.01.75 0 1.24-.48 1.4-.97.04-.11.06-.23.06-.34z" opacity=".5"/><path d="m95.71 183.05h1.06v8.52h-1.06z" opacity=".5"/><path d="m102.35 184.09v1.67h1.51v.8h-1.51v3.13c0 .72.2 1.13.79 1.13.28 0 .48-.04.61-.07l.05.79c-.2.08-.53.14-.94.14-.49 0-.89-.16-1.14-.44-.3-.31-.41-.83-.41-1.51v-3.17h-.9v-.8h.9v-1.39l1.03-.28z" opacity=".5"/><path d="m105.57 188.85c.02 1.43.94 2.01 1.99 2.01.75 0 1.21-.13 1.61-.3l.18.76c-.37.17-1.01.36-1.93.36-1.79 0-2.85-1.18-2.85-2.93s1.03-3.13 2.72-3.13c1.9 0 2.4 1.67 2.4 2.73 0 .22-.02.38-.04.49h-4.08zm3.09-.75c.01-.67-.28-1.71-1.46-1.71-1.07 0-1.54.98-1.62 1.71z" opacity=".5"/><path d="m114.21 191.56-.08-.73h-.04c-.32.46-.95.86-1.78.86-1.17 0-1.77-.83-1.77-1.67 0-1.4 1.25-2.17 3.49-2.16v-.12c0-.48-.13-1.34-1.32-1.34-.54 0-1.1.17-1.51.43l-.24-.7c.48-.31 1.18-.52 1.91-.52 1.78 0 2.21 1.21 2.21 2.37v2.17c0 .5.02 1 .1 1.39h-.96zm-.16-2.96c-1.15-.02-2.46.18-2.46 1.31 0 .68.46 1.01 1 1.01.75 0 1.24-.48 1.4-.97.04-.11.06-.23.06-.34z" opacity=".5"/><path d="m116.78 187.33c0-.6-.01-1.09-.05-1.57h.92l.05.94h.04c.32-.55.86-1.07 1.82-1.07.79 0 1.39.48 1.64 1.16h.02c.18-.32.41-.58.65-.76.35-.26.73-.41 1.28-.41.77 0 1.91.5 1.91 2.52v3.42h-1.03v-3.29c0-1.12-.41-1.79-1.26-1.79-.6 0-1.07.44-1.25.96-.05.14-.08.34-.08.53v3.59h-1.03v-3.48c0-.92-.41-1.59-1.21-1.59-.66 0-1.14.53-1.31 1.06-.06.16-.08.33-.08.52v3.5h-1.03v-4.23z" opacity=".5"/><path d="m129.75 185.76.77 2.95c.17.65.32 1.25.43 1.85h.04c.13-.59.32-1.21.52-1.83l.95-2.96h.89l.9 2.9c.22.7.38 1.31.52 1.89h.04c.1-.59.25-1.2.44-1.88l.83-2.91h1.04l-1.87 5.8h-.96l-.89-2.77c-.2-.65-.37-1.22-.52-1.91h-.02c-.14.7-.32 1.29-.53 1.92l-.94 2.76h-.96l-1.75-5.8h1.08z" opacity=".5"/><path d="m141.33 191.56-.08-.73h-.04c-.32.46-.95.86-1.77.86-1.18 0-1.78-.83-1.78-1.67 0-1.4 1.25-2.17 3.49-2.16v-.12c0-.48-.13-1.34-1.32-1.34-.54 0-1.1.17-1.51.43l-.24-.7c.48-.31 1.18-.52 1.91-.52 1.77 0 2.21 1.21 2.21 2.37v2.17c0 .5.02 1 .1 1.39h-.96zm-.16-2.96c-1.15-.02-2.46.18-2.46 1.31 0 .68.46 1.01 1 1.01.76 0 1.24-.48 1.4-.97.04-.11.06-.23.06-.34z" opacity=".5"/><path d="m143.9 187.33c0-.6-.01-1.09-.05-1.57h.94l.06.96h.02c.29-.55.96-1.09 1.92-1.09.8 0 2.05.48 2.05 2.47v3.47h-1.06v-3.35c0-.94-.35-1.71-1.34-1.71-.7 0-1.24.49-1.42 1.08-.05.13-.07.31-.07.49v3.49h-1.06v-4.23z" opacity=".5"/><path d="m151.78 184.09v1.67h1.51v.8h-1.51v3.13c0 .72.2 1.13.79 1.13.28 0 .48-.04.61-.07l.05.79c-.2.08-.53.14-.94.14-.49 0-.89-.16-1.14-.44-.3-.31-.41-.83-.41-1.51v-3.17h-.9v-.8h.9v-1.39l1.03-.28z" opacity=".5"/><path d="m155 188.85c.02 1.43.94 2.01 1.99 2.01.76 0 1.21-.13 1.61-.3l.18.76c-.37.17-1.01.36-1.93.36-1.79 0-2.85-1.18-2.85-2.93s1.03-3.13 2.72-3.13c1.89 0 2.4 1.67 2.4 2.73 0 .22-.02.38-.04.49h-4.08zm3.09-.75c.01-.67-.28-1.71-1.46-1.71-1.07 0-1.54.98-1.62 1.71z" opacity=".5"/><path d="m165.43 183.05v7.02c0 .52.01 1.1.05 1.5h-.95l-.05-1.01h-.02c-.32.65-1.03 1.14-1.98 1.14-1.4 0-2.48-1.19-2.48-2.95-.01-1.93 1.19-3.12 2.6-3.12.89 0 1.49.42 1.75.89h.02v-3.47zm-1.05 5.07c0-.13-.01-.31-.05-.44-.16-.67-.73-1.22-1.52-1.22-1.09 0-1.74.96-1.74 2.24 0 1.17.58 2.15 1.72 2.15.71 0 1.35-.47 1.55-1.26.04-.14.05-.29.05-.46v-1.01z" opacity=".5"/><path d="m174.59 189.98c0 .6.01 1.13.05 1.58h-.94l-.06-.95h-.02c-.28.47-.89 1.08-1.92 1.08-.91 0-2-.5-2-2.54v-3.39h1.06v3.21c0 1.1.34 1.85 1.3 1.85.71 0 1.2-.49 1.39-.96.06-.16.1-.35.1-.54v-3.56h1.06v4.22z" opacity=".5"/><path d="m176.2 190.48c.31.2.86.42 1.39.42.77 0 1.13-.38 1.13-.86 0-.5-.3-.78-1.08-1.07-1.04-.37-1.54-.95-1.54-1.64 0-.93.75-1.7 2-1.7.59 0 1.1.17 1.43.36l-.26.77c-.23-.14-.65-.34-1.19-.34-.62 0-.97.36-.97.79 0 .48.35.7 1.1.98 1.01.38 1.52.89 1.52 1.75 0 1.02-.79 1.74-2.17 1.74-.64 0-1.22-.16-1.63-.4l.26-.8z" opacity=".5"/><path d="m184.91 184.09v1.67h1.51v.8h-1.51v3.13c0 .72.2 1.13.79 1.13.28 0 .48-.04.61-.07l.05.79c-.2.08-.53.14-.94.14-.49 0-.89-.16-1.14-.44-.3-.31-.41-.83-.41-1.51v-3.17h-.9v-.8h.9v-1.39l1.03-.28z" opacity=".5"/><path d="m192.79 188.61c0 2.15-1.49 3.08-2.89 3.08-1.57 0-2.78-1.15-2.78-2.99 0-1.94 1.27-3.08 2.88-3.08s2.79 1.21 2.79 2.99zm-4.6.06c0 1.27.73 2.23 1.76 2.23s1.76-.95 1.76-2.25c0-.98-.49-2.23-1.74-2.23s-1.79 1.15-1.79 2.25z" opacity=".5"/><path d="m199.89 191.56-.08-.73h-.04c-.32.46-.95.86-1.78.86-1.17 0-1.77-.83-1.77-1.67 0-1.4 1.25-2.17 3.49-2.16v-.12c0-.48-.13-1.34-1.32-1.34-.54 0-1.1.17-1.51.43l-.24-.7c.48-.31 1.18-.52 1.91-.52 1.78 0 2.21 1.21 2.21 2.37v2.17c0 .5.02 1 .1 1.39h-.96zm-.16-2.96c-1.15-.02-2.46.18-2.46 1.31 0 .68.46 1.01 1 1.01.75 0 1.24-.48 1.4-.97.04-.11.06-.23.06-.34z" opacity=".5"/><path d="m207.47 183.05v7.02c0 .52.01 1.1.05 1.5h-.95l-.05-1.01h-.02c-.32.65-1.03 1.14-1.98 1.14-1.4 0-2.48-1.19-2.48-2.95-.01-1.93 1.19-3.12 2.6-3.12.89 0 1.49.42 1.75.89h.02v-3.47zm-1.06 5.07c0-.13-.01-.31-.05-.44-.16-.67-.73-1.22-1.52-1.22-1.09 0-1.74.96-1.74 2.24 0 1.17.58 2.15 1.72 2.15.71 0 1.35-.47 1.55-1.26.04-.14.05-.29.05-.46v-1.01z" opacity=".5"/><path d="m214.24 183.05v7.02c0 .52.01 1.1.05 1.5h-.95l-.05-1.01h-.02c-.32.65-1.03 1.14-1.98 1.14-1.4 0-2.48-1.19-2.48-2.95-.01-1.93 1.19-3.12 2.6-3.12.89 0 1.49.42 1.75.89h.02v-3.47h1.05zm-1.06 5.07c0-.13-.01-.31-.05-.44-.16-.67-.73-1.22-1.52-1.22-1.09 0-1.74.96-1.74 2.24 0 1.17.58 2.15 1.71 2.15.71 0 1.36-.47 1.55-1.26.04-.14.05-.29.05-.46z" opacity=".5"/><path d="m56.2 205.96-.08-.73h-.04c-.32.46-.95.86-1.78.86-1.17 0-1.77-.83-1.77-1.67 0-1.4 1.25-2.17 3.49-2.16v-.12c0-.48-.13-1.34-1.32-1.34-.54 0-1.1.17-1.51.43l-.24-.7c.48-.31 1.18-.52 1.91-.52 1.78 0 2.21 1.21 2.21 2.38v2.17c0 .5.02 1 .1 1.39h-.96zm-.16-2.96c-1.15-.02-2.46.18-2.46 1.31 0 .68.46 1.01 1 1.01.75 0 1.24-.48 1.4-.97.04-.11.06-.23.06-.34z" opacity=".5"/><path d="m58.77 201.73c0-.6-.01-1.09-.05-1.57h.94l.06.96h.02c.29-.55.96-1.09 1.92-1.09.8 0 2.05.48 2.05 2.47v3.47h-1.06v-3.35c0-.94-.35-1.71-1.34-1.71-.7 0-1.24.49-1.42 1.08-.05.13-.07.31-.07.49v3.49h-1.06v-4.23z" opacity=".5"/><path d="m71.19 205.96-.08-.73h-.04c-.32.46-.95.86-1.77.86-1.18 0-1.78-.83-1.78-1.67 0-1.4 1.25-2.17 3.49-2.16v-.12c0-.48-.13-1.34-1.32-1.34-.54 0-1.1.17-1.51.43l-.24-.7c.48-.31 1.18-.52 1.91-.52 1.77 0 2.21 1.21 2.21 2.38v2.17c0 .5.02 1 .1 1.39h-.96zm-.16-2.96c-1.15-.02-2.46.18-2.46 1.31 0 .68.46 1.01 1 1.01.76 0 1.24-.48 1.4-.97.04-.11.06-.23.06-.34z" opacity=".5"/><path d="m73.61 204.88c.31.2.86.42 1.39.42.77 0 1.13-.38 1.13-.86 0-.5-.3-.78-1.08-1.07-1.04-.37-1.54-.95-1.54-1.64 0-.94.75-1.7 2-1.7.59 0 1.1.17 1.43.36l-.26.77c-.23-.14-.65-.33-1.19-.33-.62 0-.97.36-.97.79 0 .48.35.7 1.1.98 1.01.38 1.52.89 1.52 1.75 0 1.02-.79 1.74-2.17 1.74-.64 0-1.22-.16-1.63-.4l.26-.8z" opacity=".5"/><path d="m79.78 198.49v1.67h1.51v.8h-1.51v3.13c0 .72.2 1.13.79 1.13.28 0 .48-.04.61-.07l.05.79c-.2.08-.53.14-.94.14-.49 0-.89-.16-1.14-.44-.3-.31-.41-.83-.41-1.51v-3.17h-.9v-.8h.9v-1.39l1.03-.28z" opacity=".5"/><path d="m83 203.25c.02 1.43.94 2.01 1.99 2.01.75 0 1.21-.13 1.61-.3l.18.76c-.37.17-1.01.36-1.93.36-1.79 0-2.85-1.17-2.85-2.93s1.03-3.13 2.72-3.13c1.9 0 2.4 1.67 2.4 2.73 0 .22-.02.38-.04.49h-4.08zm3.09-.75c.01-.67-.28-1.71-1.46-1.71-1.07 0-1.54.98-1.62 1.71z" opacity=".5"/><path d="m88.42 201.97c0-.68-.01-1.27-.05-1.81h.92l.04 1.14h.05c.26-.78.9-1.27 1.61-1.27.12 0 .2.01.3.04v1c-.11-.02-.22-.04-.36-.04-.74 0-1.27.56-1.42 1.36-.02.14-.05.31-.05.49v3.09h-1.04v-3.99z" opacity=".5"/><path d="m93.57 198.53c.01.36-.25.65-.67.65-.37 0-.64-.29-.64-.65s.28-.66.66-.66.65.29.65.66zm-1.18 7.43v-5.8h1.06v5.8z" opacity=".5"/><path d="m95.06 204.88c.31.2.86.42 1.39.42.77 0 1.13-.38 1.13-.86 0-.5-.3-.78-1.08-1.07-1.04-.37-1.54-.95-1.54-1.64 0-.94.76-1.7 2-1.7.59 0 1.1.17 1.43.36l-.26.77c-.23-.14-.65-.33-1.19-.33-.62 0-.97.36-.97.79 0 .48.35.7 1.1.98 1.01.38 1.52.89 1.52 1.75 0 1.02-.79 1.74-2.17 1.74-.63 0-1.22-.16-1.63-.4l.26-.8z" opacity=".5"/><path d="m101 202.82h.02c.14-.2.35-.46.52-.66l1.7-2h1.27l-2.24 2.39 2.55 3.42h-1.28l-2-2.78-.54.6v2.18h-1.04v-8.51h1.04v5.37z" opacity=".5"/><path d="m105.5 205.34c0-.44.3-.76.72-.76s.71.31.71.76-.28.75-.72.75c-.42 0-.71-.32-.71-.75z" opacity=".5"/><path d="m111.7 205.96-2.05-8.08h1.1l.96 4.09c.24 1.01.46 2.01.6 2.79h.02c.13-.8.38-1.76.66-2.81l1.08-4.08h1.09l.98 4.1c.23.96.44 1.92.56 2.77h.02c.17-.89.4-1.79.65-2.79l1.07-4.08h1.07l-2.29 8.08h-1.09l-1.02-4.21c-.25-1.03-.42-1.82-.53-2.64h-.02c-.14.8-.32 1.59-.62 2.64l-1.15 4.21h-1.09z" opacity=".5"/><path d="m120.69 203.25c.02 1.43.94 2.01 1.99 2.01.76 0 1.21-.13 1.61-.3l.18.76c-.37.17-1.01.36-1.93.36-1.79 0-2.85-1.17-2.85-2.93s1.03-3.13 2.72-3.13c1.89 0 2.4 1.67 2.4 2.73 0 .22-.02.38-.04.49h-4.08zm3.09-.75c.01-.67-.28-1.71-1.46-1.71-1.07 0-1.54.98-1.62 1.71z" opacity=".5"/><path d="m133.67 197.45v7.02c0 .52.01 1.1.05 1.5h-.95l-.05-1.01h-.02c-.32.65-1.03 1.14-1.98 1.14-1.4 0-2.48-1.19-2.48-2.95-.01-1.93 1.19-3.12 2.6-3.12.89 0 1.49.42 1.75.89h.02v-3.47zm-1.06 5.07c0-.13-.01-.31-.05-.44-.16-.67-.73-1.22-1.52-1.22-1.09 0-1.74.96-1.74 2.24 0 1.18.58 2.15 1.72 2.15.71 0 1.35-.47 1.55-1.26.04-.14.05-.29.05-.46v-1.01z" opacity=".5"/><path d="m136.01 203.25c.02 1.43.94 2.01 1.99 2.01.75 0 1.21-.13 1.61-.3l.18.76c-.37.17-1.01.36-1.93.36-1.79 0-2.85-1.17-2.85-2.93s1.03-3.13 2.72-3.13c1.9 0 2.4 1.67 2.4 2.73 0 .22-.02.38-.04.49h-4.08zm3.1-.75c.01-.67-.28-1.71-1.46-1.71-1.07 0-1.54.98-1.62 1.71z" opacity=".5"/><path d="m145.57 205.75c-.28.14-.89.34-1.67.34-1.75 0-2.89-1.19-2.89-2.96s1.22-3.08 3.12-3.08c.62 0 1.18.16 1.46.3l-.24.82c-.25-.14-.65-.28-1.22-.28-1.33 0-2.05.98-2.05 2.19 0 1.34.86 2.17 2.01 2.17.6 0 1-.16 1.3-.29z" opacity=".5"/><path d="m146.81 197.45h1.06v8.51h-1.06z" opacity=".5"/><path d="m150.82 198.53c.01.36-.25.65-.67.65-.37 0-.64-.29-.64-.65s.28-.66.66-.66.65.29.65.66zm-1.18 7.43v-5.8h1.06v5.8z" opacity=".5"/><path d="m152.45 201.73c0-.6-.01-1.09-.05-1.57h.94l.06.96h.02c.29-.55.96-1.09 1.92-1.09.8 0 2.05.48 2.05 2.47v3.47h-1.06v-3.35c0-.94-.35-1.71-1.34-1.71-.7 0-1.24.49-1.42 1.08-.05.13-.07.31-.07.49v3.49h-1.06v-4.23z" opacity=".5"/><path d="m159.7 203.25c.02 1.43.94 2.01 1.99 2.01.76 0 1.21-.13 1.61-.3l.18.76c-.37.17-1.01.36-1.93.36-1.79 0-2.85-1.17-2.85-2.93s1.03-3.13 2.72-3.13c1.89 0 2.4 1.67 2.4 2.73 0 .22-.02.38-.04.49h-4.08zm3.09-.75c.01-.67-.28-1.71-1.46-1.71-1.07 0-1.54.98-1.62 1.71z" opacity=".5"/><path d="m170.14 197.45v7.02c0 .52.01 1.1.05 1.5h-.95l-.05-1.01h-.02c-.32.65-1.03 1.14-1.98 1.14-1.4 0-2.48-1.19-2.48-2.95-.01-1.93 1.19-3.12 2.6-3.12.89 0 1.49.42 1.75.89h.02v-3.47h1.05zm-1.06 5.07c0-.13-.01-.31-.05-.44-.16-.67-.73-1.22-1.52-1.22-1.09 0-1.74.96-1.74 2.24 0 1.18.58 2.15 1.71 2.15.71 0 1.36-.47 1.55-1.26.04-.14.05-.29.05-.46z" opacity=".5"/><path d="m171.52 205.34c0-.44.3-.76.72-.76s.71.31.71.76-.28.75-.72.75c-.42 0-.71-.32-.71-.75z" opacity=".5"/></g><rect fill="#020202" height="186.09" rx="20" stroke="url(#c)" stroke-miterlimit="10" stroke-width="2" width="556.79" x="50.12" y="219.72"/><path d="m72.91 313.99c.62.38 1.54.71 2.5.71 1.42 0 2.26-.75 2.26-1.84 0-1.01-.58-1.58-2.03-2.14-1.76-.62-2.85-1.54-2.85-3.06 0-1.68 1.39-2.93 3.49-2.93 1.1 0 1.9.26 2.38.53l-.38 1.14c-.35-.19-1.07-.51-2.05-.51-1.47 0-2.03.88-2.03 1.62 0 1.01.66 1.5 2.14 2.08 1.83.71 2.75 1.58 2.75 3.17 0 1.66-1.23 3.11-3.78 3.11-1.04 0-2.18-.3-2.75-.69l.35-1.17z" fill="#fff"/><path d="m87.42 313.57c0 .8.02 1.5.06 2.11h-1.25l-.08-1.27h-.03c-.37.62-1.18 1.44-2.56 1.44-1.22 0-2.67-.67-2.67-3.39v-4.53h1.41v4.29c0 1.47.45 2.47 1.73 2.47.94 0 1.6-.66 1.86-1.28.08-.21.13-.46.13-.72v-4.75h1.41v5.63z" fill="#fff"/><path d="m95.28 315.4c-.37.19-1.18.45-2.22.45-2.34 0-3.86-1.59-3.86-3.95s1.63-4.11 4.16-4.11c.83 0 1.57.21 1.95.4l-.32 1.09c-.34-.19-.86-.37-1.63-.37-1.78 0-2.74 1.31-2.74 2.93 0 1.79 1.15 2.9 2.69 2.9.8 0 1.33-.21 1.73-.38l.24 1.06z" fill="#fff"/><path d="m102.35 315.4c-.37.19-1.18.45-2.23.45-2.34 0-3.86-1.59-3.86-3.95s1.63-4.11 4.16-4.11c.83 0 1.57.21 1.95.4l-.32 1.09c-.34-.19-.87-.37-1.63-.37-1.78 0-2.74 1.31-2.74 2.93 0 1.79 1.15 2.9 2.69 2.9.8 0 1.33-.21 1.73-.38l.24 1.06z" fill="#fff"/><path d="m104.68 312.07c.03 1.91 1.25 2.69 2.66 2.69 1.01 0 1.62-.18 2.15-.4l.24 1.01c-.5.22-1.34.48-2.58.48-2.39 0-3.81-1.57-3.81-3.91s1.38-4.18 3.63-4.18c2.53 0 3.2 2.22 3.2 3.65 0 .29-.03.51-.05.66zm4.13-1.01c.02-.9-.37-2.29-1.95-2.29-1.42 0-2.05 1.31-2.16 2.29z" fill="#fff"/><path d="m111.72 314.24c.42.27 1.15.56 1.86.56 1.02 0 1.5-.51 1.5-1.15s-.4-1.04-1.44-1.42c-1.39-.5-2.05-1.26-2.05-2.19 0-1.25 1.01-2.27 2.67-2.27.78 0 1.47.22 1.91.48l-.35 1.02c-.3-.19-.86-.45-1.58-.45-.83 0-1.3.48-1.3 1.06 0 .64.46.93 1.47 1.31 1.34.51 2.03 1.18 2.03 2.34 0 1.36-1.06 2.32-2.9 2.32-.85 0-1.63-.21-2.18-.53l.35-1.07z" fill="#fff"/><path d="m118.06 314.24c.42.27 1.15.56 1.86.56 1.02 0 1.5-.51 1.5-1.15s-.4-1.04-1.44-1.42c-1.39-.5-2.05-1.26-2.05-2.19 0-1.25 1.01-2.27 2.67-2.27.78 0 1.47.22 1.91.48l-.35 1.02c-.3-.19-.86-.45-1.58-.45-.83 0-1.3.48-1.3 1.06 0 .64.46.93 1.47 1.31 1.34.51 2.03 1.18 2.03 2.34 0 1.36-1.06 2.32-2.9 2.32-.85 0-1.63-.21-2.18-.53l.35-1.07z" fill="#fff"/><circle cx="207.57" cy="312.72" fill="none" r="43.87" stroke="url(#d)" stroke-miterlimit="10" stroke-width="12"/><path d="m186.29 318.5h2.8v-9.01h-2.23v-1.02c1.12-.2 1.92-.49 2.6-.9h1.21v10.93h2.53v1.31h-6.91z" fill="#f2f2f2"/><path d="m195.16 313.65c0-4.1 1.48-6.31 3.92-6.31s3.92 2.21 3.92 6.31-1.48 6.4-3.92 6.4-3.92-2.29-3.92-6.4zm6.32 0c0-3.59-.97-5.03-2.39-5.03s-2.39 1.45-2.39 5.03.97 5.12 2.39 5.12 2.39-1.54 2.39-5.12z" fill="#f2f2f2"/><path d="m204.7 313.65c0-4.1 1.48-6.31 3.92-6.31s3.92 2.21 3.92 6.31-1.48 6.4-3.92 6.4-3.92-2.29-3.92-6.4zm6.31 0c0-3.59-.97-5.03-2.39-5.03s-2.39 1.45-2.39 5.03.97 5.12 2.39 5.12 2.39-1.54 2.39-5.12z" fill="#f2f2f2"/><path d="m214.06 310.94c0-2.52 1.14-3.96 2.86-3.96s2.86 1.43 2.86 3.96-1.14 3.99-2.86 3.99-2.86-1.45-2.86-3.99zm4.52 0c0-2-.68-2.98-1.66-2.98s-1.66.97-1.66 2.98.68 3.01 1.66 3.01 1.66-1.01 1.66-3.01zm5.65-3.95h1.07l-6.95 13.06h-1.07zm-1.4 9.06c0-2.52 1.14-3.95 2.86-3.95s2.86 1.43 2.86 3.95-1.14 3.99-2.86 3.99-2.86-1.45-2.86-3.99zm4.53 0c0-2-.68-2.97-1.66-2.97s-1.66.97-1.66 2.97.68 3.01 1.66 3.01 1.66-1.01 1.66-3.01z" fill="#f2f2f2"/><circle cx="345.91" cy="312.41" fill="none" r="43.87" stroke="url(#e)" stroke-miterlimit="10" stroke-width="12"/><path d="m324.62 318.19h2.8v-9.01h-2.23v-1.02c1.12-.2 1.92-.49 2.6-.9h1.21v10.93h2.53v1.31h-6.91z" fill="#f2f2f2"/><path d="m333.5 313.34c0-4.1 1.48-6.31 3.92-6.31s3.92 2.21 3.92 6.31-1.48 6.4-3.92 6.4-3.92-2.29-3.92-6.4zm6.31 0c0-3.59-.97-5.03-2.39-5.03s-2.39 1.45-2.39 5.03.97 5.12 2.39 5.12 2.39-1.54 2.39-5.12z" fill="#f2f2f2"/><path d="m343.04 313.34c0-4.1 1.48-6.31 3.92-6.31s3.92 2.21 3.92 6.31-1.48 6.4-3.92 6.4-3.92-2.29-3.92-6.4zm6.31 0c0-3.59-.97-5.03-2.39-5.03s-2.39 1.45-2.39 5.03.97 5.12 2.39 5.12 2.39-1.54 2.39-5.12z" fill="#f2f2f2"/><path d="m352.4 310.63c0-2.52 1.14-3.96 2.86-3.96s2.86 1.43 2.86 3.96-1.14 3.99-2.86 3.99-2.86-1.45-2.86-3.99zm4.52 0c0-2-.68-2.98-1.66-2.98s-1.66.97-1.66 2.98.68 3.01 1.66 3.01 1.66-1.01 1.66-3.01zm5.65-3.95h1.07l-6.95 13.06h-1.07zm-1.4 9.06c0-2.52 1.14-3.95 2.86-3.95s2.86 1.43 2.86 3.95-1.14 3.99-2.86 3.99-2.86-1.45-2.86-3.99zm4.52 0c0-2-.68-2.97-1.66-2.97s-1.66.97-1.66 2.97.68 3.01 1.66 3.01 1.66-1.01 1.66-3.01z" fill="#f2f2f2"/><circle cx="488.27" cy="312.41" fill="none" r="43.87" stroke="url(#f)" stroke-miterlimit="10" stroke-width="12"/><path d="m466.99 318.19h2.8v-9.01h-2.23v-1.02c1.12-.2 1.92-.49 2.6-.9h1.21v10.93h2.53v1.31h-6.91z" fill="#f2f2f2"/><path d="m475.86 313.34c0-4.1 1.48-6.31 3.92-6.31s3.92 2.21 3.92 6.31-1.48 6.4-3.92 6.4-3.92-2.29-3.92-6.4zm6.32 0c0-3.59-.97-5.03-2.39-5.03s-2.39 1.45-2.39 5.03.97 5.12 2.39 5.12 2.39-1.54 2.39-5.12z" fill="#f2f2f2"/><path d="m485.4 313.34c0-4.1 1.48-6.31 3.92-6.31s3.92 2.21 3.92 6.31-1.48 6.4-3.92 6.4-3.92-2.29-3.92-6.4zm6.31 0c0-3.59-.97-5.03-2.39-5.03s-2.39 1.45-2.39 5.03.97 5.12 2.39 5.12 2.39-1.54 2.39-5.12z" fill="#f2f2f2"/><path d="m494.76 310.63c0-2.52 1.14-3.96 2.86-3.96s2.86 1.43 2.86 3.96-1.14 3.99-2.86 3.99-2.86-1.45-2.86-3.99zm4.52 0c0-2-.68-2.98-1.66-2.98s-1.66.97-1.66 2.98.68 3.01 1.66 3.01 1.66-1.01 1.66-3.01zm5.65-3.95h1.07l-6.95 13.06h-1.07zm-1.4 9.06c0-2.52 1.14-3.95 2.86-3.95s2.86 1.43 2.86 3.95-1.14 3.99-2.86 3.99-2.86-1.45-2.86-3.99zm4.53 0c0-2-.68-2.97-1.66-2.97s-1.66.97-1.66 2.97.68 3.01 1.66 3.01 1.66-1.01 1.66-3.01z" fill="#f2f2f2"/><path d="m166.44 373.44h76.19v16.66h-76.19z" fill="#fff" opacity=".1"/><path d="m304.7 373.88h76.19v16.66h-76.19z" fill="#fff" opacity=".1"/><path d="m452.89 373.44h76.19v16.66h-76.19z" fill="#fff" opacity=".1"/></svg>