<?xml version="1.0" encoding="UTF-8"?><svg id="Layer_1" xmlns="http://www.w3.org/2000/svg" xmlns:xlink="http://www.w3.org/1999/xlink" viewBox="0 0 652.7 441.26"><defs><linearGradient id="linear-gradient" x1="48.07" y1="223.2" x2="606.85" y2="223.2" gradientUnits="userSpaceOnUse"><stop offset="0" stop-color="#a0aabf"/><stop offset=".41" stop-color="#eeeff3" stop-opacity=".61"/><stop offset=".49" stop-color="#fff" stop-opacity=".53"/><stop offset="1" stop-color="#a0aabf" stop-opacity=".4"/></linearGradient><linearGradient id="linear-gradient-2" x1="205.03" y1="206.38" x2="205.03" y2="334.48" gradientUnits="userSpaceOnUse"><stop offset="0" stop-color="#ff85d6"/><stop offset=".22" stop-color="#d06cd6"/><stop offset=".71" stop-color="#5c2dd8"/><stop offset=".78" stop-color="#4a24d9"/><stop offset=".96" stop-color="#4a24d9" stop-opacity=".19"/><stop offset="1" stop-color="#4a24d9" stop-opacity="0"/></linearGradient><linearGradient id="linear-gradient-3" x1="159.43" y1="270.43" x2="159.43" xlink:href="#linear-gradient-2"/><linearGradient id="linear-gradient-4" x1="298.77" y1="183.2" x2="298.77" xlink:href="#linear-gradient-2"/><linearGradient id="linear-gradient-5" x1="251.9" y1="243.07" x2="251.9" xlink:href="#linear-gradient-2"/><linearGradient id="linear-gradient-6" x1="344.38" y1="234.07" x2="344.38" y2="325.47" xlink:href="#linear-gradient-2"/><linearGradient id="linear-gradient-7" x1="483.72" y1="150.02" x2="483.72" y2="319.42" xlink:href="#linear-gradient-2"/><linearGradient id="linear-gradient-8" x1="438.12" y1="228.01" x2="438.12" y2="319.42" xlink:href="#linear-gradient-2"/><linearGradient id="linear-gradient-9" x1="391.25" y1="197.01" x2="391.25" y2="325.1" xlink:href="#linear-gradient-2"/><linearGradient id="linear-gradient-10" x1="529.31" y1="189.2" x2="529.31" y2="325.47" xlink:href="#linear-gradient-2"/></defs><rect x="-2.66" y="-.93" width="657.52" height="443.15" style="fill:#1e1e1e;"/><rect x="49.07" y="58.43" width="556.79" height="329.54" rx="20" ry="20" style="fill:#020202; stroke:url(#linear-gradient); stroke-miterlimit:10; stroke-width:2px;"/><line x1="101.65" y1="169.61" x2="558.51" y2="169.61" style="fill:#fff; opacity:.5; stroke:#ccc; stroke-miterlimit:10; stroke-width:2px;"/><line x1="101.65" y1="225.18" x2="558.51" y2="225.18" style="fill:#fff; opacity:.5; stroke:#ccc; stroke-miterlimit:10; stroke-width:2px;"/><line x1="101.65" y1="280.75" x2="558.51" y2="280.75" style="fill:#fff; opacity:.5; stroke:#ccc; stroke-miterlimit:10; stroke-width:2px;"/><line x1="101.65" y1="336.32" x2="558.51" y2="336.32" style="fill:#fff; opacity:.5; stroke:#ccc; stroke-miterlimit:10; stroke-width:2px;"/><text transform="translate(98.85 358.52)" style="fill:#fff; font-family:MyriadPro-Regular, &apos;Myriad Pro&apos;; font-size:10.92px; opacity:.6;"><tspan x="0" y="0">29</tspan></text><text transform="translate(194.96 359.12)" style="fill:#fff; font-family:MyriadPro-Regular, &apos;Myriad Pro&apos;; font-size:10.92px; opacity:.6;"><tspan x="0" y="0">71</tspan></text><text transform="translate(305.15 359)" style="fill:#fff; font-family:MyriadPro-Regular, &apos;Myriad Pro&apos;; font-size:10.92px; opacity:.6;"><tspan x="0" y="0">113</tspan></text><text transform="translate(419.3 358.64)" style="fill:#fff; font-family:MyriadPro-Regular, &apos;Myriad Pro&apos;; font-size:10.92px; opacity:.6;"><tspan x="0" y="0">173</tspan></text><text transform="translate(542.21 358.88)" style="fill:#fff; font-family:MyriadPro-Regular, &apos;Myriad Pro&apos;; font-size:10.92px; opacity:.6;"><tspan x="0" y="0">229</tspan></text><rect x="190.89" y="206.38" width="28.29" height="128.09" style="fill:url(#linear-gradient-2);"/><rect x="145.28" y="270.43" width="28.29" height="64.05" style="fill:url(#linear-gradient-3);"/><rect x="284.63" y="183.2" width="28.29" height="151.27" style="fill:url(#linear-gradient-4);"/><rect x="237.76" y="243.07" width="28.29" height="91.41" style="fill:url(#linear-gradient-5);"/><rect x="330.23" y="234.07" width="28.29" height="91.41" style="fill:url(#linear-gradient-6);"/><rect x="469.58" y="150.02" width="28.29" height="169.4" style="fill:url(#linear-gradient-7);"/><rect x="423.97" y="228.01" width="28.29" height="91.41" style="fill:url(#linear-gradient-8);"/><rect x="377.1" y="197.01" width="28.29" height="128.09" style="fill:url(#linear-gradient-9);"/><rect x="515.16" y="189.2" width="28.29" height="136.28" style="fill:url(#linear-gradient-10);"/><rect x="95.05" y="87.81" width="118.81" height="42.35" rx="8.21" ry="8.21" style="fill:#913988;"/><path d="M119.89,102.71h2.09v2.19h-.72l-2.82,9.09h-2.48l3.93-11.27ZM118.65,109.48h5.26l.58,1.77h-6.41l.58-1.77ZM121.3,104.9v-2.19h1.37l3.93,11.27h-2.48l-2.81-9.09Z" style="fill:#fff;"/><path d="M128.87,113.62c-.62-.35-1.1-.86-1.43-1.51-.34-.65-.5-1.43-.5-2.32h0c0-.9.17-1.68.51-2.32.34-.65.82-1.15,1.43-1.5s1.34-.53,2.18-.53c.76,0,1.42.14,1.98.43.56.28.99.67,1.31,1.15.31.48.49,1.03.52,1.63v.05h-2.12v-.07c-.08-.4-.25-.73-.52-1-.28-.27-.65-.41-1.12-.41-.37,0-.69.1-.96.31-.27.21-.48.5-.63.88s-.22.84-.22,1.37h0c0,.55.07,1.02.22,1.4s.36.67.63.88c.27.2.6.3.97.3.46,0,.83-.13,1.11-.39.28-.26.45-.6.53-1.02l.02-.07h2.12v.05c-.04.61-.21,1.16-.53,1.64-.32.48-.75.87-1.31,1.15s-1.21.43-1.95.43c-.85,0-1.58-.18-2.2-.53Z" style="fill:#fff;"/><path d="M137.59,113.62c-.62-.35-1.1-.86-1.43-1.51-.34-.65-.5-1.43-.5-2.32h0c0-.9.17-1.68.51-2.32.34-.65.82-1.15,1.43-1.5s1.34-.53,2.18-.53c.76,0,1.42.14,1.98.43.56.28.99.67,1.31,1.15.31.48.49,1.03.52,1.63v.05h-2.12v-.07c-.08-.4-.25-.73-.52-1-.28-.27-.65-.41-1.12-.41-.37,0-.69.1-.96.31-.27.21-.48.5-.63.88s-.22.84-.22,1.37h0c0,.55.07,1.02.22,1.4s.36.67.63.88c.27.2.6.3.97.3.46,0,.83-.13,1.11-.39.28-.26.45-.6.53-1.02l.02-.07h2.12v.05c-.04.61-.21,1.16-.53,1.64-.32.48-.75.87-1.31,1.15s-1.21.43-1.95.43c-.85,0-1.58-.18-2.2-.53Z" style="fill:#fff;"/><path d="M146.29,113.63c-.62-.35-1.09-.85-1.42-1.5-.33-.65-.5-1.42-.5-2.31h0c0-.9.17-1.67.5-2.32.33-.65.8-1.16,1.4-1.52.6-.36,1.31-.54,2.13-.54s1.52.17,2.12.52c.6.35,1.06.83,1.38,1.46.33.63.49,1.37.49,2.21v.71h-6.9v-1.45h5.82l-1.09,1.35v-.88c0-.49-.08-.9-.23-1.23-.15-.33-.36-.58-.63-.75-.27-.17-.58-.25-.93-.25s-.67.09-.94.26-.49.42-.64.75c-.15.33-.23.74-.23,1.21v.89c0,.46.08.85.23,1.18.15.33.37.58.66.75.29.17.63.26,1.02.26.31,0,.58-.05.81-.15.23-.1.42-.22.56-.38.15-.15.24-.3.3-.46l.02-.05h2.09l-.02.09c-.06.31-.19.62-.37.93-.18.31-.43.6-.74.86-.31.26-.69.47-1.13.62s-.97.23-1.57.23c-.85,0-1.59-.18-2.2-.53Z" style="fill:#fff;"/><path d="M153.62,102.71h2.28v11.27h-2.28v-11.27Z" style="fill:#fff;"/><path d="M159.05,113.63c-.62-.35-1.09-.85-1.42-1.5-.33-.65-.5-1.42-.5-2.31h0c0-.9.17-1.67.5-2.32.33-.65.8-1.16,1.4-1.52.6-.36,1.31-.54,2.13-.54s1.52.17,2.12.52c.6.35,1.06.83,1.38,1.46.33.63.49,1.37.49,2.21v.71h-6.9v-1.45h5.82l-1.09,1.35v-.88c0-.49-.08-.9-.23-1.23-.15-.33-.36-.58-.63-.75-.27-.17-.58-.25-.93-.25s-.67.09-.94.26-.49.42-.64.75c-.15.33-.23.74-.23,1.21v.89c0,.46.08.85.23,1.18.15.33.37.58.66.75.29.17.63.26,1.02.26.31,0,.58-.05.81-.15.23-.1.42-.22.56-.38.15-.15.24-.3.3-.46l.02-.05h2.09l-.02.09c-.06.31-.19.62-.37.93-.18.31-.43.6-.74.86-.31.26-.69.47-1.13.62s-.97.23-1.57.23c-.85,0-1.59-.18-2.2-.53Z" style="fill:#fff;"/><path d="M166.33,105.61h2.28v1.46h.05c.12-.52.35-.92.68-1.2.33-.29.74-.43,1.23-.43.12,0,.24,0,.36.02.11.02.21.04.3.06v2.02c-.09-.04-.21-.07-.36-.1-.15-.02-.3-.04-.47-.04-.38,0-.7.07-.96.22-.27.15-.47.36-.61.64s-.21.62-.21,1.03v4.69h-2.28v-8.38Z" style="fill:#fff;"/><path d="M172.97,113.79c-.42-.22-.76-.52-.99-.9-.24-.38-.36-.82-.36-1.31v-.02c0-.76.29-1.36.86-1.79.57-.43,1.37-.69,2.41-.75l3.27-.2v1.42l-2.92.2c-.44.03-.77.13-1,.3-.23.18-.34.41-.34.71v.02c0,.31.12.55.35.72.23.17.55.26.95.26.34,0,.64-.07.91-.2.27-.13.48-.31.63-.55.15-.23.23-.49.23-.78v-2.55c0-.37-.12-.66-.35-.88-.23-.21-.58-.32-1.02-.32s-.77.09-1.02.26c-.25.17-.4.4-.46.67l-.02.07h-2.09v-.09c.05-.52.23-.97.53-1.38.3-.4.72-.71,1.25-.94.53-.23,1.17-.34,1.9-.34s1.35.12,1.88.35c.53.23.94.56,1.24.98.29.42.44.91.44,1.48v5.74h-2.28v-1.24h-.05c-.16.28-.37.53-.61.73-.25.21-.53.37-.84.48-.32.11-.66.16-1.02.16-.56,0-1.05-.11-1.47-.32Z" style="fill:#fff;"/><path d="M181.97,113.57c-.45-.39-.67-1.03-.67-1.93v-4.31h-1.16v-1.72h1.16v-2.05h2.3v2.05h1.53v1.72h-1.53v4.06c0,.39.09.66.26.82.17.15.43.23.78.23.1,0,.2,0,.27-.01s.15-.02.22-.03v1.67c-.12.02-.28.04-.46.06-.19.02-.4.03-.64.03-.93,0-1.62-.2-2.06-.59Z" style="fill:#fff;"/><path d="M187.89,113.63c-.62-.35-1.09-.85-1.42-1.5-.33-.65-.5-1.42-.5-2.31h0c0-.9.17-1.67.5-2.32.33-.65.8-1.16,1.4-1.52.6-.36,1.31-.54,2.13-.54s1.52.17,2.12.52c.6.35,1.06.83,1.38,1.46.33.63.49,1.37.49,2.21v.71h-6.9v-1.45h5.82l-1.09,1.35v-.88c0-.49-.08-.9-.23-1.23-.15-.33-.36-.58-.63-.75-.27-.17-.58-.25-.93-.25s-.67.09-.94.26-.49.42-.64.75c-.15.33-.23.74-.23,1.21v.89c0,.46.08.85.23,1.18.15.33.37.58.66.75.29.17.63.26,1.02.26.31,0,.58-.05.81-.15.23-.1.42-.22.56-.38.15-.15.24-.3.3-.46l.02-.05h2.09l-.02.09c-.06.31-.19.62-.37.93-.18.31-.43.6-.74.86-.31.26-.69.47-1.13.62s-.97.23-1.57.23c-.85,0-1.59-.18-2.2-.53Z" style="fill:#fff;"/><path d="M105.46,244.59l55.21-18.87c.83-.29,1.58-.79,2.16-1.45l43.78-50.41c1.49-1.72,3.95-2.21,5.99-1.21l46.04,22.7c1.66.82,3.64.65,5.15-.44l43.13-31.26c2.12-1.54,5.07-1.18,6.76.83l28.49,33.83c1.62,1.93,4.42,2.35,6.54.98l39.7-25.65c1.83-1.18,4.22-1.04,5.9.34l37.39,30.87c2.47,2.04,6.2,1.26,7.65-1.61l41.5-82.38c1.46-2.9,5.25-3.66,7.72-1.55l37.14,31.84c1.78,1.53,4.39,1.61,6.27.19l26.1-19.74" style="fill:none; stroke:#cf2aff; stroke-miterlimit:10; stroke-width:2px;"/></svg>