<svg viewBox="0 0 654.86 441.26" xmlns="http://www.w3.org/2000/svg" xmlns:xlink="http://www.w3.org/1999/xlink"><linearGradient id="a" gradientUnits="userSpaceOnUse" x1="-2.08" x2="656.67" y1="222" y2="222"><stop offset="0" stop-color="#a0aabf"/><stop offset=".41" stop-color="#eeeff3" stop-opacity=".61"/><stop offset=".49" stop-color="#fff" stop-opacity=".53"/><stop offset="1" stop-color="#a0aabf" stop-opacity=".4"/></linearGradient><linearGradient id="b" x1="28.3" x2="624.75" xlink:href="#a" y1="223.89" y2="223.89"/><path d="m-1.08-1.87h656.75v447.73h-656.75z" fill="#1e1e1e" stroke="url(#a)" stroke-miterlimit="10" stroke-width="2"/><rect fill="#020202" height="330.22" rx="20" stroke="url(#b)" stroke-miterlimit="10" stroke-width="2" width="594.45" x="29.3" y="58.78"/><g fill="#fff"><path d="m63.02 95.8c-.44.16-1.32.42-2.36.42-1.16 0-2.12-.3-2.87-1.01-.66-.64-1.07-1.66-1.07-2.86.01-2.29 1.58-3.97 4.16-3.97.89 0 1.58.19 1.92.35l-.24.81c-.41-.18-.92-.33-1.7-.33-1.87 0-3.09 1.16-3.09 3.09s1.17 3.1 2.96 3.1c.65 0 1.09-.09 1.32-.21v-2.29h-1.56v-.8h2.53v3.69z"/><path d="m64.51 88.05h1v8.09h-1z"/><path d="m72.19 93.34c0 2.04-1.41 2.93-2.75 2.93-1.49 0-2.64-1.09-2.64-2.84 0-1.85 1.21-2.93 2.74-2.93s2.66 1.15 2.66 2.84zm-4.37.05c0 1.21.7 2.12 1.68 2.12s1.68-.9 1.68-2.14c0-.93-.47-2.12-1.65-2.12s-1.7 1.09-1.7 2.14z"/><path d="m73.42 96.14c.02-.38.05-.93.05-1.42v-6.67h.99v3.46h.02c.35-.62.99-1.01 1.88-1.01 1.37 0 2.34 1.14 2.33 2.82 0 1.97-1.24 2.95-2.47 2.95-.8 0-1.44-.31-1.85-1.04h-.03l-.05.91zm1.03-2.21c0 .13.02.25.04.36.19.7.78 1.17 1.5 1.17 1.05 0 1.68-.85 1.68-2.12 0-1.11-.57-2.05-1.64-2.05-.68 0-1.32.47-1.53 1.23-.02.11-.06.25-.06.41v.99z"/><path d="m83.01 96.14-.08-.7h-.03c-.31.43-.9.82-1.69.82-1.12 0-1.69-.79-1.69-1.58 0-1.33 1.18-2.06 3.32-2.05v-.11c0-.46-.12-1.28-1.25-1.28-.51 0-1.05.16-1.44.41l-.23-.66c.46-.3 1.12-.49 1.81-.49 1.69 0 2.1 1.15 2.1 2.26v2.06c0 .48.02.95.09 1.32zm-.15-2.81c-1.09-.02-2.34.17-2.34 1.24 0 .65.43.96.95.96.72 0 1.17-.46 1.33-.92.03-.1.06-.22.06-.32z"/><path d="m85.45 88.05h1v8.09h-1z"/><path d="m90.56 92.12c0-.57-.01-1.04-.05-1.49h.89l.06.91h.02c.27-.52.91-1.04 1.82-1.04.76 0 1.95.46 1.95 2.35v3.29h-1v-3.18c0-.89-.33-1.63-1.28-1.63-.66 0-1.17.47-1.34 1.03-.04.13-.07.3-.07.47v3.32h-1v-4.02z"/><path d="m97.45 93.57c.02 1.36.89 1.92 1.89 1.92.72 0 1.15-.13 1.53-.29l.17.72c-.35.16-.96.34-1.84.34-1.7 0-2.71-1.12-2.71-2.78s.98-2.98 2.59-2.98c1.8 0 2.28 1.58 2.28 2.6 0 .21-.02.36-.03.47zm2.94-.72c.01-.64-.26-1.63-1.39-1.63-1.01 0-1.46.93-1.54 1.63z"/><path d="m103.81 89.04v1.58h1.44v.76h-1.44v2.97c0 .68.19 1.07.75 1.07.26 0 .46-.03.58-.07l.05.75c-.19.08-.5.14-.89.14-.47 0-.84-.15-1.08-.42-.28-.3-.39-.79-.39-1.44v-3.01h-.85v-.76h.85v-1.32l.98-.26z"/><path d="m106.88 90.62.73 2.8c.16.62.31 1.19.41 1.76h.03c.12-.56.31-1.15.49-1.74l.9-2.82h.84l.86 2.76c.21.66.36 1.24.49 1.8h.03c.09-.56.24-1.14.42-1.79l.79-2.77h.99l-1.78 5.52h-.91l-.84-2.63c-.19-.62-.35-1.16-.49-1.81h-.02c-.14.66-.31 1.23-.5 1.82l-.89 2.62h-.91l-1.66-5.52h1.03z"/><path d="m119.75 93.34c0 2.04-1.41 2.93-2.75 2.93-1.49 0-2.64-1.09-2.64-2.84 0-1.85 1.21-2.93 2.74-2.93s2.66 1.15 2.66 2.84zm-4.38.05c0 1.21.7 2.12 1.68 2.12s1.68-.9 1.68-2.14c0-.93-.47-2.12-1.65-2.12s-1.7 1.09-1.7 2.14z"/><path d="m121.02 92.35c0-.65-.01-1.21-.05-1.72h.88l.03 1.08h.05c.25-.74.85-1.21 1.53-1.21.11 0 .19.01.29.03v.95c-.1-.02-.21-.03-.34-.03-.71 0-1.21.54-1.34 1.29-.02.14-.04.3-.04.47v2.94h-.99v-3.8z"/><path d="m125.79 93.16h.02c.14-.19.33-.43.49-.63l1.62-1.9h1.21l-2.13 2.27 2.43 3.25h-1.22l-1.9-2.64-.51.57v2.07h-.99v-8.09h.99v5.11z"/></g><path d="m513.47 330.28c1.15 5.64-3.38 9.24-6.82 9.82-.72.12-.58-2.49.02-3.03l5.84-5.26c3.01-2.71 3.34-6.17 2.19-10.15l6.51 3.8-3 5.63-4.73-.81z" fill="#292c56"/><path d="m440.44 334.43-1.01-1.01v-15.09l1.01-1.01c.45-.01 1.16 1.37 1.16 1.87l.11 13.56c0 .49-.87 1.67-1.27 1.67z" fill="#963372"/><path d="m178.44 311.29-.75 12.46c-.06 1.02 1.34 3.36 2.2 3.35l10.89-.14c.92-.01 2.55-2.47 2.48-3.37l-.85-11.23 1.14-2.08c2.66.31.03 15.95-.35 18.13l-16.68-.11-.4-16.64c.25-.4.94-1.03 1.3-1.39l1.01 1.01z" fill="#943377"/><path d="m217.74 279.1 2.02 1.01c-3.92 1.29-7.74 2.9-11.16 5.1-5.34 1.9-9.73 6.01-12.91 10.77l-.89-.91c3.35-4.72 7.73-9.23 12.88-12.09 2.88-1.59 6.88-2.99 10.06-3.89z" fill="#c5369d"/><path d="m195.69 295.98c-1.38 2.07-2.8 4.32-4.05 6.46s-2.35 4.61-3.51 7.21l5.43.63-1.14 2.08c-.8-.35-2.68-1.39-3.35-.76l-2.82 2.66c-1.68-2.27-4.81-3.45-7.81-2.97l-1.01-1.01 6.35.04c5.04.03 5.8-11 11.01-15.25l.89.91z" fill="#c13184"/><path d="m215.85 374.54-3.15.14c.79-1.88-6-12.94-3.65-11.82 4.49 2.13 5.34 7.21 6.8 11.69z" fill="#171a26"/><path d="m445.45 154.56 5.1-.04c-3.05 10.36 7.06 15.28 13.71 19.9-5.23 3.14-19.87 14.27-22.79 19.1l-16.63-14.57c-1.99-1.75-5.86-3.52-7.33-5.52l-10.81-14.71c-1.94-2.64-5.41-4.74-8.58-4.38 6.06-4.62 16.6-4.98 25.19-8.3l-5.04-2.96c7-1.36 2.35 2.22 15 5.47l1.79.46c.5.13-.67 1.75-1.13 2.01l-6.19 3.49c-.43 2.64 3.59-2 11.85-.7 2.08.33 4.54.92 5.87.74z" fill="#2f2e68"/><path d="m360.5 269.17c-2 2.85-4.55 5.69-7.14 8.55-8.09 8.94 2.49 16.24-4.07 23.04-7.22 7.49-.96 11.32-11.14 24.32-1.83 2.33-7.05 3.79-9.62 4.3-.99.2-3.91.19-4.28-.93l-6.47-19.56c-1.95-5.9-2.27-10.71.69-15.69.21.22.87.36 1.28.11 9.51-5.73 8.1-3.03 13.83-7.3 1.25 0 3.6-.67 4.91-.95.37-.34 1.02-1 1.44-1.2 6.12-2.9 3.51-14.11 9.28-15.1 3.95-.68 7.81-.08 11.29.41z" fill="#39377b"/><path d="m396.99 184.54c10.28.94 4.14 2.02 14.6 12.78 1.36 1.4 3.48 4.89 5.22 5.86l8.4 4.69c-.95 5.06-1.27 10.83-1.48 16.21l17.01-.04.05-5.98c0-.26.69-1.53.65-1.34l.92 8.02 5.14-1.98 1.87 5.02c-.39 4.43-2.28 8.5-4.95 12.1-15.61-12.69-27.92-17.64-47.32-22.14-.7-6.97-7.79-7.55-9.06-13.8-1.5-7.35-3.68-17.05 2.03-21.5 2.01 1.11 4.65 1.9 6.92 2.1z" fill="#38377a"/><path d="m482.76 179.5c1.33.36 3.74 1.16 5.04 1.17-2.19.63-5.79 1.2-7.98.68-5.82-1.39-11.52 1.92-13.86 7.62l4.84 1.57c.94.31.82 3.58.81 4.17-.24.98-.42 2.93-.79 3.84-.86 2.15-3.12 6.59-5.12 7.8l-6.23 3.78c-3.15 1.91.09 9.05-2.48 11.63-2.24 2.25-2.2-4.35-4.25-6.26l-4.68-4.38-4.05 4.47 5.26 1.95c-1.03 2.02-2.21 4.06-1.79 5.21l-5.14 1.98-.92-8.02-.64-6.24c-.29-2.85-7.56-1-5.71-3.87l4.81-7.44c9.58-14.83 24.38-24.97 42.12-27.18l.74 7.51z" fill="#2f2d67"/><path d="m472.42 287.91c1.49 3.6 2.92 7.75 3.63 11.94l2.31 13.65c-2.61.17-5.28.32-7.17.58-1.27.17-.84 3.84-.74 5.14-3.4-2.66-7.55-2.57-11.97-1.17l-13.63 4.32-2.37-14.05c-.61-3.6.22-6.57 4.22-8.07 8.34-3.11 3.88-5.08 14.63-10.78 3.66-1.94 7.41-2.81 11.09-1.56z" fill="#2f3066"/><path d="m488.55 162.03c-2.69-.15-7.14-.53-6.8 1.37.3 1.72.66 5.99-1.08 6.84-4.65 2.26-12.19 1.64-16.42 4.18-6.65-4.62-16.76-9.53-13.71-19.9l-5.1.04c1.79-.24 4.9-1.78 6.35.09 6.95 9.02 10.51-2.85 28.13 3.52 3.2 1.16 6.27 2.14 8.63 3.86z" fill="#2a275e"/><path d="m379.05 236.76-9.62-.6c-3.81-.24-4.02-3.79-7.62-5.12-.43-.16-.25 1.53-.03 2.05 3.37 8.1 9.5 3.63 12.15 9.59-.51 3.52-2.45 7.57-6.17 9.21l-11.13 4.9c-.64.28-1.5 1.22-1.8 1.66s1.64 1.27 2.23 1.2l7.28-.95c-.8 3.69-1.84 7.61-3.85 10.47-3.48-.49-7.33-1.09-11.29-.41-5.77.99-3.16 12.2-9.28 15.1-.51-6.18-.46-12.52 1.83-18.65 2.86-7.68 9.43-4.9 11.75-8.24 3.34-4.79-8.2-19.13-6.62-12.95l-2.3-2.14c1.13-6.63 12.34-10.96 18.2-11.93 4.86-.81 7.92-2.05 9.56 1.28 2.97 6.06 4.94 3.31 6.69 5.53z" fill="#42428e"/><path d="m487.8 180.67c3.52-1.02 6.69-1.1 10.91-.64.19-5.72.12-11.88-.7-17.46 5.47.31 10.68-1.97 16.59 1.24l9.07 4.93c.6.33-.25 2.81-.93 2.9s-1.94.11-2.79 0l-5.1-.65c-1.06-.14.35 4.67-.67 5l-11.2 3.67c-6.57 2.15-4.61 9.21-12.07 16.1-2.48-6-.81-10.92 3.68-15.04l-6.79-.06z" fill="#2a2b5c"/><path d="m485.57 283.1c-1.37-.43-4.35-.44-6.06-.44-1.06 0-.62 4.06-.27 5.06 6.62 18.67 10.69 14.41 12.72 26.64-3.29 5.83-2.59 13.03-4.16 16.05.21-5.42.3-10.94-1.01-16.1-13.09-.46-3.95-6.47-13.1-28.17-1.64-3.9-1.56-9.45-3.71-13.24 2.77.38 5.7 1.17 8.54 2.39l9.06 3.42-3.6 2.07 1.58 2.33z" fill="#2e2d65"/><path d="m386.03 216.73c3.57.12 7.62.2 11.08 1.01 19.4 4.5 31.71 9.45 47.32 22.14 1.64 1.33 4.93 3.39 6.19 4.92 5.42 6.6 14.81 20.04 19.37 28.1 2.15 3.8 2.06 9.34 3.71 13.24l-1.22.89c-.74-3.87-3.28-11.2-6.74-13.98 2.95-1.77-7.14-14.72-8.67-16.88-2.31-3.27-4.39-5.52-7.31-8.15-1.93-1.73-4.5-4.27-6.25-6.18-4.6-5.02-10.1-7.94-16.16-10.96-4.32-2.15-8.5-5.08-13.57-6.73-8.06-2.62-15.85-4.11-23.71-5.42l-6.05-1.01 2.02-1.01z" fill="#d73db0"/><path d="m429.4 317.28c3.28.67 6.67 1.01 10.03 1.06v15.09l-15.49.38.37-16.48 5.08-.05zm6.81 8.35c0-2.26-1.84-4.1-4.11-4.1s-4.11 1.84-4.11 4.1 1.84 4.1 4.11 4.1 4.11-1.84 4.11-4.1z" fill="#1e2230"/><path d="m391.42 246.8 10.46 7.77c2.54 1.89 5.39 6.23 7.74 8.95 9.11 10.51 20.34 30.35 20.74 43.75l-1.01 1.01c-3.03-17.65-11.86-34.3-24.29-47.16l-3.83-3.96c-2.04-2.11-4.1-3.94-6.84-5-4.86-4.71-10.81-8.11-17.43-9.53 1.92-.13 5.27-.3 7.23.67 2.4 1.19 5.66 2.35 7.23 3.52z" fill="#d73aa4"/><path d="m379.05 236.76c1.01.06 2.72-.02 3.82-.06l7.21 4.62c1.61 1.03 2.74 4.32 1.34 5.49-1.57-1.17-4.83-2.32-7.23-3.52-1.96-.97-5.31-.81-7.23-.67-.76.05-2.19.05-3.02.06-2.65-5.96-8.78-1.5-12.15-9.59-.22-.52-.41-2.21.03-2.05 3.61 1.33 3.81 4.89 7.62 5.12l9.62.6z" fill="#212035"/><path d="m486.79 314.31-1.01 1.01-6.26.31 1.27 2.66-3.11-.03 1.07-2.76-6.46-.74.39 13.63c0 .11-.77-.94-.79-1.19l-.44-4.67c-.02-.26-.8-1.31-.79-1.19.02-.54-.18-1.6-.22-2.13-.1-1.3-.53-4.97.74-5.14 1.88-.26 4.56-.41 7.17-.58l-2.31-13.65c-.71-4.19-2.14-8.34-3.63-11.94.04-.3.1-.66.05-.88l1.22-.89c9.15 21.7 0 27.71 13.1 28.17z" fill="#b53a9f"/><path d="m362.13 295.23c2.15-1.44.26 18.72-4.85 18.84-3.85.1-3.03-13.56 3.36-17.85l1.49-1z" fill="#373a77"/><path d="m488.55 162.03 9.46.54c.82 5.58.88 11.74.7 17.46-4.22-.46-7.39-.38-10.91.64-1.29-.01-3.7-.82-5.04-1.17l1.01-1.01 13.89.39-.42-14.65-13.47.17-2.02-1.01c-.34-1.9 4.11-1.53 6.8-1.37z" fill="#9c3399"/><path d="m466.57 222.78-6.97 3.74c-.97-6.86 8.48-3.04 13.39-15.02.34 1.83.61 5.63-.33 7.52-.88 1.77-4.25 2.77-6.09 3.75z" fill="#292b59"/><path d="m487.8 330.41-3.22 3.47c-1.9 2.04-.62-4.62-6.15-4.01l-8.13.9.37-9.42c0-.12.76.93.79 1.19l.44 4.67c.02.24.79 1.3.79 1.19l-.03 1.24 13.55.22-.42-14.55 1.01-1.01c1.31 5.16 1.21 10.68 1.01 16.1z" fill="#c62e9c"/><path d="m472.66 204.34c-.24-2.02-.84-4.07-1.83-5.78.36-.91.54-2.86.79-3.84.32-1.27 1.21-2.84 2.43-4.37 1.04 1.08 2.33 17.43-1.39 13.99z" fill="#272954"/><path d="m417.35 140.28.1 1.96-.44 2.48-8.84-3.95c2.57-4.57 6.96-.97 9.18-.49z" fill="#2c2e60"/><path d="m424.32 317.33-.37 16.48 15.48-.38 1.01 1-17.24.33-.49-17.31z" fill="#cb3d89"/><path d="m440.44 317.33-1.01 1.01c-3.37-.05-6.75-.38-10.03-1.06.5-2.95.46-6.03-.04-9l1.01-1.01h1.03c-.06 2.42-.23 6.29 1.46 8.66 1.12 1.58 5.65 1.45 7.58 1.4z" fill="#bb3691"/><path d="m401.23 257.15-1.26 2.94c-.94.08-3.25-1.06-3.59-2.06l-2-5.88c2.74 1.06 4.8 2.89 6.84 5z" fill="#473d8d"/><path d="m405.06 261.11-3.88 3.56-1.21-4.58 1.26-2.94z" fill="#2e2d55"/><path d="m472.9 209.69.63-3.85 5.59.77c-2.42 1.92-4 2.58-6.23 3.08z" fill="#292b59"/><path d="m159.3 178.5c8.17 2.01 16.61 4.41 23.92 9.25l10.34 6.84c.83 1.27 1.88 2.96 2.78 4.11-1.09 2.18-.91 4.73.16 6.95l.08 15.09c0 .31.44 1.17.75 1.17l12.27.17c-6.68 4.69-1.66 18.72-4.3 13.86l-.96-1.77c-.63-1.17-1.93-5-3.27-4.97-3.1.05-9.77.24-12.55 1.67-4.37 2.25-3.53 11.4-.07 14.04 2.16 1.65 5.27-.65 7.19-1.69l2.3-1.24c1.98-1.07-1.72 7.4-.28 7.54l6.44.6c-2.02 6.02.59 9.88 4.51 12.73-3.43-.95-6.07-3.35-8.54-6.31-4.67-5.58-11.47-6.75-18.24-9.29-2.84-1.07-5.45-5.12-7.41-7.32 7.74-13.27 21.44-14.46 16.74-16.54-3.76 1.21-16.59 12.39-16.71 12.59-2.9-3.05-5.28-6.47-7.75-10.33l-.25 1.06-1.94.28c-1.38-2.06-3.15-4.39-5.14-6.29-8.76-8.35-2.85-14.12-7.53-26.01l3.73 3.55c.27.26.99-.88.72-1.1l-1.42-1.11c-3.54-2.77-6.6-5.39-7.93-9.28 1.36 0 3.89-.84 5.29-1.23l.92-8.55 6.13 1.5z" fill="#2a2760"/><path d="m147.1 160.32 4.98 1.97c-1.1 1.97-2.31 3.92-3.59 5.76l-13.16.85c-.31 3.84-.51 7.32-.48 10.7-7.14-2.9-14.72 3.12-12.38-.71.17-.28-.84-1.07-1.12-.8l-7.78 7.69c-.91-1-1.24-1.36-1.18-1.29l2.18-2.08c1.5-1.43-7.99.16-10.39-6.85l6.17-3.49-6.54-1.56c-.54-.13-1.49-2.39-.85-2.49l3.04-.48 1.96-.29c.29-.04.29-.41.05-.59l-1.4-1.03c-.44-.33-1.99-2.04-1.55-2.4 13.93-11.39 28.84 3.93 42.04-2.91z" fill="#222253"/><path d="m198.63 162.19-1.06 5.1 3.3.22-11.39 9.1c-2.93 2.34-6.77 3.43-9.02 6.92-6.54-2.8-13.19-4.91-20.15-6.04l-7.9-1.28-.17-6.85c-.02-1-2.78-1.37-3.74-1.31 1.28-1.84 2.49-3.79 3.59-5.76 5.41-1.64 17.07 4.59 19.47 3.94 3.6-.98 9.5-2.3 13.28-1.74l2.06 1.17c.44.25 1.62-1.51 1.51-1.97l-1.2-4.74c-.07-.28-.16-1.34-.19-1.63s1.22-.38 1.43-.17l8.42 8.5 1.79-3.45z" fill="#28285f"/><path d="m200.87 167.51-3.3-.22 1.06-5.1c.15-.72 1.32-1.63 1.58-2.33s-1.34-2.53-1.79-2.01l-2.18 2.51c-.36.41-1.86-1.36-1.72-1.9l1.07-4.05c18.61.07 20.47 5.98 31.41 12.77.59.36.26 2.76-.45 2.75l-5.12-.06c3.03.2 3.5 4.21 2.32 5.58-.69.79-3.83.61-4.68 0l-6.64-4.75c.67-.52 3.26-2.96 2.73-4.01-2.12-4.19-10.48-7.31-11.05-5.73l-.79 2.19c-.46 1.28-1.52 3.6-2.46 4.36z" fill="#313273"/><path d="m171.42 163.42c-1.22.1-13.7-.77-8.25-3.06.37-.41.42-1.76.11-1.95-2.01.59-3.37 1.37-3.55.81l-.93-2.76c-2.1 1.32-5.14 1.86-7.71.98-.03-.95 1.19-4.65 2.65-4.86 8.15-1.19 15.42 5.69 16.91 4.33l3.35-3.06c1.92 2.47 3.76 5.45 5.32 8.89l-7.91.67z" fill="#292960"/><path d="m148.49 168.05c.96-.06 3.72.31 3.74 1.31l.17 6.85 7.9 1.28-1.01 1.01-6.13-1.5-.92 8.55-1.01-1.01.45-14.58-15.06.16v15.08s6.55-.66 6.55-.66l-8.06 1.01c-.15-1.44-.25-4.37-.27-5.94-.03-3.38.17-6.86.48-10.7l13.16-.85z" fill="#b0359c"/><path d="m171.42 163.42.13 2.8c-2.4.65-14.06-5.58-19.47-3.94l-4.98-1.97c1.09-.57 2.93-2.07 3.99-2.86 2.57.87 5.61.33 7.71-.98l.93 2.76c.19.55 1.54-.22 3.55-.81.31.19.26 1.54-.11 1.95-5.45 2.3 7.03 3.17 8.25 3.06z" fill="#141831"/><path d="m174.42 239.95-4.16 7.13c-.46.8-1.34 2.03-1.9 2.84-.24.03-.71 0-1.01 0v-2.01l7.1-11.92c.12-.2 12.94-11.38 16.71-12.59 4.7 2.08-9 3.27-16.74 16.54z" fill="#cb329b"/><path d="m159.3 249.92-.36 14.61 14.02-.66c.3-.01 1.82-1.01 1.46-.87l1.01 2.01c-1.5.38-4.07 1-5.78 1.05l-11.71.35.36-17.5 1.01 1.01z" fill="#bb3b85"/><path d="m175.42 265.02-1.01-2.01.46-13.8-6.51.73c.56-.81 1.43-2.04 1.9-2.84l5.8 1.99c.51 6.22.66 10.84-.65 15.95z" fill="#8d3172"/><path d="m194.65 152.27c-1.91-.01-4.33-.78-5.96-1.71 1.57-.24 4.3-.72 6.22-.64l9.91.4c.51.02.47 2.03-.03 2.03l-10.14-.07z" fill="#2a2762"/><path d="m173.41 149.15 1.6 1.68c-1.35.23-2.89.35-3.67.66-2.59 1.03-8.08 1.33-10.88-.92 4.43-.96 8.76-1.46 12.94-1.41z" fill="#262553"/><path d="m166.46 226.72 4.53 10.88c-3.48-2.86-5.5-6.56-6.47-10.59l1.94-.28z" fill="#1f1d49"/><path d="m177.53 154.35 1.9-1.81c1.67.18 5.21 1.82 5.45 3.45.42 2.91-3.59 3.4-5.34 2.25l.99-3.68c-1.14-.06-2.4 0-3-.21z" fill="#23234e"/><path d="m151.24 184.53 1.01 1.01c-1.4.4-3.94 1.22-5.29 1.23l-11.12.08c-.31 0-.68-1.02-.71-1.31l8.06-1.01h8.06z" fill="#972a89"/><path d="m178.44 149.32-2.06.5 2.54.97.52 1.75-1.9 1.81c.65.22-9.3-2.9-6.18-2.86.78-.31 2.31-.43 3.67-.66l-1.6-1.68 2.31-2.31 2.72 2.48z" fill="#161a27"/><path d="m178.36 143.34 3.97 1.12-.23 1.93-5.86-.98c-.53-.09-.69-2.06-.17-2.06h2.28z" fill="#252356"/><path d="m167.36 247.91v2.01h-8.06l-1.01-1.01c0-.46 1.32-1.28 1.82-1.26l7.25.25z" fill="#752c5f"/><path d="m181.62 148.31 4.89 2.18c-1.9.14-5.53.29-7.59.3l-2.54-.97 2.06-.5 3.17-1.01z" fill="#252354"/><path d="m441.47 193.53-8.14 13.51c-1.08 1.8-6.32 1.84-8.12.84l-8.4-4.69c-1.73-.97-3.86-4.46-5.22-5.86-10.46-10.76-4.32-11.85-14.6-12.78l-4.88-4c-4.03-6.5-6.32-3.73-9.76-13.44l3.91-.44.55 1.33c5.55-5-1.93-6.69 2.23-11.43.58.23 1.28 1.87 1.3 1.8 2.63-2.06 5.11-3.71 7.76-4.01 3.16-.36 6.63 1.74 8.58 4.38l10.81 14.71c1.47 2 5.34 3.78 7.33 5.52l16.63 14.57z" fill="#353372"/><path d="m350.79 167.37-8.03.6 3.34 4.97 5.73-4.61c.41-.33 1.41-.69 1.92-.88 1.21 1.11 2.64 2.71 3.64 4.24l4.45 6.8c-5.34 2.24-10.47 4.83-15.03 8.31-4.95 3.78-10.35.16-15.18 3.54l-5.95-1.96c1.34-4.39 5.49-6.6 10.18-8.22 1.43-.38 2.03-.55.65-.31-2.99-.24-6.43-.08-8.71-1.03-1.55-.65.47-5.32 1.53-6.64l1.17-1.45c.21-.26-.26-.9-.6-.95-2.01-.27-5.82 4.62-6.51 7.73l-1.99 8.98-5.29.74-.05-4.9c-.07-.23-2.48-.93-2.81-.25l-1.71 3.47c-.81-1.08-2.03-3.26-2.99-4.08-.02-3.29 1.06-5.82 3.8-8.08 2.96-2.44 5.23-5.52 7.61-8.54 4.44-5.65 12.43-6.16 18.79-3.84l9.84 3.58c.97.35 2.16 2.15 2.21 2.78z" fill="#3d4186"/><path d="m386.08 155.35c.53 3.76.75 7.62.19 11.3l-3.91.44c3.44 9.71 5.72 6.94 9.76 13.44-12.75-4.03-17.14-3.59-30.27-2.04l-4.45-6.8c-1.01-1.54-2.43-3.13-3.64-4.24 5.77-2.19 11.79-3.62 17.86-3.55l.14-2.76 9.48 3.1c-.27-1.85-.66-4.76.21-5.99.78-1.1 3.39-2.43 4.63-2.91z" fill="#3a3c80"/><path d="m308.54 181.48c.96.83 2.18 3.01 2.99 4.08.76 1.01 1.85 3.41 2.93 4.03l7.24 4.14c2.32 1.33 3.06 5.25 2.72 8.18-.25 2.12-2.51 5.28-5.06 5.97-.97.26-2.67.59-3.7.78-.54.1-1.67.11-2.18-.08l-2.13-.81c-1.56-1.79-3.61-3.17-5.85-4.04l-1.09-1.18c1.25-.47 3.27-2.61 3.75-3.89l2.33-6.17c.27-.7 2.46-1.78 1.84-2.58l-9.81-12.63.52-.56 5.51 4.74z" fill="#e747c6"/><path d="m275.36 155.36c8.29 4.12 16.9 8.9 23.12 16.11l4.56 5.28-.52.56c-.79-.45-2.45-1.14-3.02-1.81-6.02-7.08-16.36-15.29-25.31-17.96-5.55-4.04-12.4-5.85-19.16-7.21v-2.01c6.86 1.78 13.95 3.87 20.34 7.04z" fill="#c93ca2"/><path d="m381.93 147.33c1.67 2.05-15.78 3.46-15.08 8.79l.42 3.18c.19 1.45-4.36-.17-5.73-1.27 4.31-9.11 10.66-9.6 20.39-10.71z" fill="#30346b"/><path d="m325.64 145.12c-1.24-.1-3.41 1.58-5.23 2.64-2.22-1.71-4.38-3.8-6.24-6.15 6.81-1.69 12.01.24 16.61 3.93z" fill="#353976"/><path d="m389.05 156.55c-4.16 4.73 3.32 6.43-2.23 11.43l-.55-1.33c.56-3.68.34-7.55-.19-11.3z" fill="#222543"/><path d="m350.79 167.37 1.04.97-5.73 4.61-3.34-4.97z" fill="#262948"/><path d="m335.62 140.58c-3.19 3.27-7.5 2.98-10.14-.34z" fill="#343575"/><path d="m223.8 138.34c-.19.49-.47 1.58-.88 1.92l-1.08-2-7.42 3.62c-2.18 1.06-4.61 2.29-6.41 3.89-6.41 5.69-14.19 1.91-13.36 1.18l1.37-1.19 1.27-1.09c.26-.22-.15-1.29-.47-1.18l-1.7.57c-1.03.35-3.97 1.22-4.83.58-1.28-.95-3.04-3.28-3.79-4.51 2.72-4.32 11.61 4.49 20.82-1.49l-10.2 1.19c-.96.11-3.12-1.75-3.3-2.41 10.82-2.22 22.11-4.52 33.06-1.99l-4.52 2.39 1.45.52z" fill="#292961"/><path d="m316.57 224.85c-2.81-1.02-7.74.78-9.14 3.23l-1.94 3.38-1.11-.04c-1.36 2.39-2.64 5.71-2.24 8.28.46 2.97 3.02 6.49 5.9 7.62 4.38 1.71 8.74.49 12.42-1.56l10.87-6.05 1.31 6.25c.57 1.06 2.05 2.91 2.82 3.88-2.09 4.19-4.17 12.76-4.86 17.18-.16.99.08 3.02 0 4.02-1.09-.09-5.94.04-6.49 1.65-1.06 3.09-.85 9.39-.4 13.24l9.88.06c-5.72 4.28-4.32 1.57-13.83 7.3-.42.25-1.07.11-1.28-.11-.62-10.69-4.67-9.36-4.42-19.55.2-7.74-11.55-6.63-16.18-5.07-5.26 1.77-9.17.23-12.31-3.93-6.74-8.9-6.56-21.07-2.31-29.94 7.08-4.75 7.27-13.17 12.65-14.22l13.97-2.73c1.12-.22 4.6.48 4.93 1.55l1.74 5.54z" fill="#444390"/><path d="m263.88 230.62c-2.05 2-4.01 5.48-6.05 8.08-6.87 8.77-11.99 18.29-15.9 28.26l-1.64 3.06-.41-2.99c-.02-.14-.02-.41-.03-.6l6.23-12.45c2.9-5.81 12.39-20.23 17.37-23.76l.42.39z" fill="#d137a5"/><path d="m305.5 203.74c-.83.57-2.3 1.8-3.21 2.09-3.14.98-8.84 3.59-12.09 5.08-4.51 2.06-11.22 7.7-14.89 10.02l-4.29 2.7-.57-.63c4.25-4.48 9.31-8.71 15.14-11.76l12.76-6.67c1.42-.75 4.47-1.4 6.06-2l1.09 1.18z" fill="#d338ae"/><path d="m271.02 223.63-7.14 6.99-.42-.39c1.93-2.75 4.3-5.2 6.98-7.23l.57.63z" fill="#b02f92"/><path d="m390.06 218.74c7.86 1.31 15.65 2.8 23.71 5.42 5.07 1.65 9.25 4.57 13.57 6.73l-7.74 2.12c-8.13 2.23-19.8 8.64-16.47 17.97l-1.25 3.6-10.46-7.77c1.4-1.17.26-4.46-1.34-5.49l-7.21-4.62c1.05-.39 3.61-1.52 4.56-2.54 3.64-3.91 3.23-10.69-.39-14.23l3.01-1.19z" fill="#3b3980"/><path d="m443.5 241.84c-.82-.05-3.46-.41-4.14.34-.81.89-1.66 2.39-2.82 4.24l-.35-2.34-.35-2.25c-.09-.55-2.87 1-2.67 1.51l3.11 8.1c1.3 3.38-1.51 8.4-4.6 7.87s-1.78-2.62-5.97-4.87c-2.08-1.12 3.15 10.85 3.72 12.6l-1.23.95c-1.27-2.17-3.98-5.76-4.31-8.19l-1.45-10.56-3.45.62-1.44-5.46c-.22-.85-2.06-2.4-2.95-2.45s-3.02.65-3.69 1.32l-7.79 7.7c-3.33-9.33 8.34-15.74 16.47-17.97l7.74-2.12c6.06 3.02 11.56 5.94 16.16 10.96z" fill="#353576"/><path d="m445.39 275.82c-.86 1.11-4.12.6-5.25 0-1.29-.68-3.48-4.2-2.43-5.29l8.05-8.31c2.8-2.89 3.64 8.41-.37 13.59z" fill="#31306a"/><path d="m428.2 268 1.23-.95c2.44 7.58 4.17 9.2 3.27 11.77-.25.72-2.84-.41-3.28-1.11l-8.92-14.2c2.44-.63 6.49 5.85 7.11 5.46.04-.02.37-.8.59-.97z" fill="#2c2d64"/><path d="m457.07 256.17-.45 4.69-4.93-.45c.1-4.86-.66-8.47-1.93-12.38 2.92 2.62 5 4.88 7.31 8.15z" fill="#2d2f5e"/><path d="m454.61 270.28c-.23 2.8-1.43 5.46-3.14 7.75-1.84-.71-3.7-5.61-2.22-6.97.95-.87 4.27-.86 5.35-.78z" fill="#2c2e61"/><path d="m450.32 283.89c-6.29-.17-12.11-1.41-17.99-3.44 6.36-.21 12.06 1.11 17.99 3.44z" fill="#272c54"/><path d="m459.15 282.99-6.39 2.16.9-2.47z" fill="#272b51"/><path d="m483.77 164.41c.13-.29-1.04 1.1-1.04 1.37v11.35c0 .26 1.17 1.65 1.04 1.37l-1.01 1.01-.74-7.51c-17.74 2.21-32.53 12.35-42.12 27.18l-4.81 7.44c-1.86 2.87 5.41 1.03 5.71 3.87l.64 6.24c.03-.19-.65 1.07-.65 1.34l-.05 5.98-17.01.04c.21-5.37.53-11.15 1.48-16.21 1.8 1 7.03.96 8.12-.84l8.14-13.51c2.91-4.83 17.56-15.96 22.79-19.1 4.23-2.54 11.76-1.93 16.42-4.18 1.75-.85 1.39-5.11 1.08-6.84l2.02 1.01zm-50.19 48.18c-.6-.02-1.67-.09-2.22 0 .23-.16 1.4-2.39.8-2.68-1.24-.6-4.88-.64-5.5.54-2.09 3.95-2.34 11.46-.01 11.95 3.28.69 9.54.84 13.32.94l-.57-12.55c-.05-1.02-3.52-1.91-4.07-1.13s-1.17 1.84-1.75 2.94z" fill="#c03fac"/><path d="m346.9 244.02 3.41 6.28c1.24 2.29 2.32 4.56 3.21 6.67-2.33 3.34-8.89.56-11.75 8.24-2.28 6.13-2.34 12.46-1.83 18.65-.42.2-1.07.86-1.44 1.2l.58-13.54-7.35-.76c1.24-7.4 2.73-13.69 4.93-19.92 1.97-.56 5.09-1.71 6.71-3.23 1.06-.99.99-4.35 1.23-5.74l2.3 2.14z" fill="#44428e"/><path d="m336.67 250.84c-2.2 6.23-3.69 12.51-4.93 19.92l7.35.76-.58 13.54c-1.31.28-3.66.96-4.91.95l-9.88-.06c-.45-3.85-.66-10.15.4-13.24.55-1.61 5.4-1.74 6.49-1.65-.05.57-.25 1.65-.36 2.27l-4.95-.62c-.1 3.32-.72 8.4 1.03 10.79s8.62 1.74 10.27-.55c1.48-2.05 1.46-7.39.96-9.65-.25-1.15-7.28.19-4.94.89l-1.2-5.93c-.05-.26-.9-1.45-.82-1.22.7-4.42 2.77-12.99 4.86-17.18.24.3.86.74 1.2 1z" fill="#b844b7"/><path d="m390.07 182.43c-5.71 4.45-3.52 14.15-2.03 21.5 1.27 6.24 8.37 6.82 9.06 13.8-3.46-.8-7.51-.88-11.08-1.01 1.37-2.02-22-.8-23.63-.62l-13.67 1.49-1.7-4.81 6.16-1.73-5.56-6.09c.04-.36.11-1 .11-1.33l-.14-16.25c11-7.95 31.07-11.26 42.48-4.97z" fill="#3e3e86"/><path d="m392.11 180.53 4.88 4c-2.27-.21-4.91-1-6.92-2.1-11.4-6.29-31.48-2.98-42.48 4.97l-.79-.59c4.56-3.48 9.69-6.07 15.03-8.31 13.13-1.55 17.52-1.99 30.27 2.04z" fill="#c440b4"/><path d="m360.83 228.8 1.97 1.15c-5.86.97-17.07 5.3-18.2 11.93-.24 1.39-.17 4.75-1.23 5.74-1.62 1.51-4.75 2.66-6.71 3.23-.33-.26-.95-.7-1.2-1-.77-.96-2.26-2.82-2.82-3.88-.91-1.68.1-6.28 1.48-7.6 1.57-1.49 5.68-1.74 7.55-1.44.75.12 2.27 1.13 2.64.47l1.29-2.32c.29-.53 1.45-1.11 2.01-1.34 3.27-1.34 9.58-4 13.22-4.93z" fill="#e23fbe"/><path d="m353.52 256.97c-.89-2.11-1.97-4.38-3.21-6.67l-3.41-6.28c-1.58-6.18 9.96 8.16 6.62 12.95z" fill="#192129"/><path d="m386.03 216.73-2.02 1.01-8.75-.9c-.25-.03-1.61 1.01-1.32.9-7.62-.88-23.1 1.19-30.23 4.02-.47.19-1.54-.15-2.02 0l-1.01-1.01c2.23-.87 5.75-2.9 8.04-3.15l13.67-1.49c1.63-.18 24.99-1.4 23.63.62z" fill="#c342b7"/><path d="m384.01 217.73 6.05 1.01-3.01 1.19c-2.88-.69-6.09-1.16-9.05-1.06-1.08-.33-3.01-1.01-4.06-1.14-.29.12 1.08-.92 1.32-.9z" fill="#6d489f"/><ellipse cx="432.11" cy="325.63" fill="#dc3aa6" rx="4.11" ry="4.1"/><path d="m378 218.87c2.96-.1 6.17.37 9.05 1.06 3.62 3.54 4.03 10.33.39 14.23-.94 1.01-3.51 2.15-4.56 2.54-1.1.03-2.81.12-3.82.06-1.75-2.22-3.72.52-6.69-5.53-1.63-3.33-4.69-2.09-9.56-1.28l-1.97-1.15c5.22-1.33 9.1-.24 11.86-5.31 1.1-2.02 3.3-4.56 5.3-4.62zm-.72 11.46-1.94-1.68c-.29-.25-1.35 1.11-1.24 1.51.7 2.69 5.55 5.59 8.82 4.35 3.73-1.41 5.71-4.17 5.33-8.59-.31-3.61-3.1-5.33-6.38-6.13-4.23-1.03-8.11 2.71-8.12 5.63 0 .7 2.22 1.75 2.58 1.24l1.32-1.93c.89-1.3 4.12-2.42 5.42-1.55s2.47 3.71 2.11 5.43c-.31 1.47-2.44 3.95-3.73 3.94-1.1 0-3.02-1.21-4.17-2.21z" fill="#c43db7"/><path d="m477.68 318.26c-.6 0-1.74.64-2.01 1.18-.36.72-.34 2.59-.09 3.8s2.66 3.01 3.89 3.21c1.43.23 4.21-2.47 3.85-4.01-.38-1.62-1.09-3.41-2.54-4.15l-1.27-2.66 6.26-.31.42 14.55-13.55-.22.03-1.24-.39-13.63 6.46.74-1.07 2.76z" fill="#252d4c"/><path d="m477.68 318.26 3.11.03c1.44.74 2.16 2.53 2.54 4.15.36 1.53-2.42 4.24-3.85 4.01-1.23-.2-3.64-2-3.89-3.21s-.26-3.08.09-3.8c.27-.54 1.41-1.19 2.01-1.18z" fill="#d840ad"/><path d="m513.55 318.86 3.11.03c1.44.74 2.16 2.53 2.54 4.15.36 1.53-2.42 4.24-3.85 4.01-1.23-.2-3.64-2-3.89-3.21s-.26-3.08.09-3.8c.27-.54 1.41-1.19 2.01-1.18z" fill="#d840ad"/><path d="m483.77 178.5c.13.29-1.04-1.1-1.04-1.37v-11.35c0-.26 1.17-1.65 1.04-1.37l13.47-.17.42 14.65zm7.72-3.27c2.13-.32 2.6-3.84 1.82-5.71-.51-1.24-3.15-2.37-4.84-1.56s-2.97 3.55-2.7 4.92c.32 1.6 2.87 2.78 5.72 2.36z" fill="#2e2b60"/><path d="m213.95 212.56c.14-1.42-.41-4.58-1.34-5.78-2.21-2.85-8.67.92-12.02-5.03-1.77-3.14-3.76-5.09-6.02-7.16-1.94-1.77-4.09-3.88-6.42-5.56l-7.68-5.51c2.25-3.49 6.09-4.58 9.02-6.92-.84 10.86 15.14 5.85 14.97 15.59-.01.71 2.56 1.56 2.81.84 1.56-4.34 2.58-12.22 1.88-17.47 5.38-.76 10.03 2.48 12.32 7.81l3.97-3.41c1.35 3.56 13.5 14.07 9.48 14.92l-9 1.92c-3.27.7-5.95 1.68-7.6 4.4l5.7-2.66c.53 1.19 1.58 3.76 2.37 4.6s3.93.32 4.83.29c-5.96 6.13-6.42-.89-10.67 3.45-2.43 2.48-4.29 4.12-6.6 5.66z" fill="#343171"/><path d="m310.48 192.51-2.33 6.17c-.48 1.28-2.49 3.41-3.75 3.89-1.59.6-4.63 1.25-6.06 2l-2.26-3.21 8.33-6.11 6.07-2.73z" fill="#3b3a8c"/><path d="m303.3 194.65c-2.18 1.47-5.41 1.89-7.88 1.23 1.39-3.38 1.91-5.47-.11-7.35l-.75-5.28 3.57-1.69c1.54 4.92 2.93 9.03 5.17 13.09z" fill="#3a3788"/><path d="m213.95 212.56c-.23 2.26-.85 5.76-1.25 8.19l-1.01-1.01c.13-3.05.17-8.63-.19-11.77-.27-2.36-9.22-1.53-8.07-.03l1.24 1.62-3.06-.89-.93-2.06c-.12-.28-.14-.86-.22-1.14-.55-1.93-2.78-5.05-4.13-6.77-.9-1.16-1.95-2.85-2.78-4.11h1.01c2.27 2.07 4.26 4.02 6.02 7.16 3.35 5.95 9.81 2.18 12.02 5.03.93 1.2 1.48 4.37 1.34 5.78z" fill="#cc35b2"/><path d="m284.89 169.76c-3.19 5.63-9.78 5.07-13.08.28 4.09-1.31 8.25-1.53 13.08-.28z" fill="#343977"/><path d="m210.69 219.74h1.01l1.01 1.01-3.1 1.34-12.27-.17c-.31 0-.75-.86-.75-1.17l2.02-1.01h12.09z" fill="#8b3496"/><path d="m295.32 188.53c-.67 3.91-2.78 5.57-5.86 5.7.04-2.25 1.16-5.73 2.63-6.61.64-.38 2.97.73 3.23.92z" fill="#363478"/><path d="m214.29 243.61-10.78-3.24c-.25-.07.02-1.32.14-1.86 4.05 1.24 7.47 2.15 10.64 5.1z" fill="#242855"/><path d="m211.79 248.08c-.49.08-.96-2.13-.5-2.21l7.83-1.33c.49-.08 1.64 2.08 1.15 2.16z" fill="#1f2649"/><path d="m239.75 202.27-6.67-2.42 2.96-4.02z" fill="#303466"/><path d="m204.44 171.52-6.64.91c1.3-3.36 4.2-3.8 6.64-.91z" fill="#2c2b70"/><path d="m184.4 143.48c1.8.45 3.7 1.95 4.67 2.86.66.62-3.16 1.22-3.51.36s-.85-2.26-1.16-3.22z" fill="#29265e"/><path d="m180.46 183.53 7.68 5.51c2.34 1.68 4.48 3.79 6.42 5.56h-1.01l-10.34-6.84c-7.31-4.84-15.75-7.25-23.92-9.25l1.01-1.01c6.97 1.12 13.61 3.24 20.15 6.04z" fill="#c53a9f"/><path d="m200.47 205.48c.08.29.1.87.22 1.14-.67-.08-3.24.91-3.15 1.96l1.05 11.17-2.02 1.01-.08-15.09 3.97-.18z" fill="#aa2ba1"/><path d="m200.47 205.48-3.97.18c-1.07-2.23-1.25-4.78-.16-6.95 1.34 1.72 3.58 4.84 4.13 6.77z" fill="#3e2c77"/><path d="m151.24 184.53h-8.06l-6.53.66v-15.08s15.05-.16 15.05-.16l-.45 14.58zm-4.48-3.91c1.56-2.1.7-5.5-.66-6.47-1.24-.89-5.1-.98-5.82.41-.97 1.86-.2 5.25.95 6.26.99.87 4.65.98 5.53-.2z" fill="#29245d"/><path d="m192.42 312.36.85 11.23c.07.9-1.57 3.36-2.48 3.37l-10.89.14c-.87.01-2.27-2.33-2.2-3.35l.75-12.46c3-.48 6.13.7 7.81 2.97l2.82-2.66c.67-.64 2.55.4 3.35.76zm-3.48 5.3c-.17-2.45-3.81-3.01-5.59-2.19-1.36.63-2.33 3.72-1.52 5.65.57 1.36 3.85 2.1 5.08 1.54 1.02-.47 2.18-2.86 2.03-5z" fill="#181a2a"/><path d="m167.36 249.92c.3 0 .77.03 1.01 0l6.51-.73-.46 13.8c.36-.14-1.16.86-1.46.87l-14.02.66.36-14.61h8.06zm3.74 7.85c.17-3.95-2.44-5.52-5.07-4.91-1.47.34-2.96 2.76-2.83 5.24.07 1.33 2.59 3.04 3.86 3.1 1.4.06 3.98-1.76 4.05-3.43z" fill="#171527"/><path d="m331.63 190.34.2 11.04c.03 1.47 1.71 3.63 2.81 4.03.52.19 1.59.55 2.13.52l-1.58 6.42c5.24-.2 8.04-.31 11.83.44l1.7 4.81c-2.3.25-5.81 2.28-8.04 3.15l-3.21-.17-3.88-6.61c-.36-.62-2.24-2.04-2.33-1.4l-.3 2.17-.33 2.38c-.06.42-1.12.8-1.33.43l-1.07-1.85c-1.74-3.01-4.97-8.88-8.87-7.81 2.54-.69 4.81-3.85 5.06-5.97.34-2.93-.4-6.85-2.72-8.18l-7.24-4.14 7.97-.04c.86 0 2.42-.85 3.25-1.17l5.95 1.96z" fill="#44489c"/><path d="m325.68 188.38c-.83.32-2.39 1.17-3.25 1.17l-1.04-3.06 1.99-8.98c.69-3.1 4.51-8 6.51-7.73.34.05.8.69.6.95l-1.17 1.45c-1.06 1.31-3.08 5.99-1.53 6.64 2.28.95 5.72.79 8.71 1.03 1.38-.24.78-.07-.65.31-4.69 1.62-8.84 3.83-10.18 8.22z" fill="#1a1b2c"/><path d="m347.59 187.4.14 16.25-1.44-.87c-.01-.28-.03-.66 0-.88.3-2.58 1.33-7.96-.31-10.48-.88-1.35-4.96-.43-6.54-.76l-5.98-1.28-.21 10.95c-.02 1.22 2.06 2.89 3.33 3.07.26.04.75.17 1.07.25l-3.02 1.76c-1.1-.4-2.78-2.56-2.81-4.03l-.2-11.04c4.84-3.37 10.23.24 15.18-3.54l.79.59z" fill="#b23eb3"/><path d="m321.39 186.5 1.04 3.06-7.97.04c-1.08-.62-2.17-3.02-2.93-4.03l1.71-3.47c.33-.68 2.74.02 2.81.25l.05 4.9 5.29-.74z" fill="#27283f"/><path d="m311.34 207.79c-2.05.48-5 1.14-6.88 1.84h-1.63s-.55-3.79-.55-3.79c.92-.29 2.38-1.52 3.21-2.09 2.23.88 4.29 2.26 5.85 4.04z" fill="#5042a1"/><path d="m315.65 208.67 6.82 7.22c-1.6.86-5.4.37-6.51-1.06-1.24-1.61-2.13-4.39-2.49-6.25.51.19 1.65.18 2.18.08z" fill="#1d212c"/><path d="m313.47 208.59c.37 1.86 1.25 4.64 2.49 6.25 1.1 1.43 4.9 1.92 6.51 1.06.24.25.84.61 1.11.83.21.17.37.81.19 1.01-.78.85-3.41 1.95-4.65 1.3-3.68-1.93-6.78-6.9-7.78-11.25l2.13.81z" fill="#303368"/><path d="m323.58 216.73c-.27-.22-.87-.58-1.11-.83l-6.82-7.22c1.02-.19 2.73-.52 3.7-.78-1.23 1.89 5.5 4.66 4.98 6.37l-.74 2.46z" fill="#4b4094"/><path d="m331.63 225c3.62 3.03 10.18 5.62 13.37.46l2.6 8.27c-.56.23-1.72.81-2.01 1.34l-3.14-3.53-.78 5.38c-1.87-.29-5.98-.05-7.55 1.44-1.38 1.32-2.39 5.92-1.48 7.6l-1.31-6.25-10.87 6.05c-3.68 2.05-8.04 3.28-12.42 1.56-2.88-1.13-5.44-4.65-5.9-7.62-.4-2.57.88-5.89 2.24-8.28.16 2.44.46 5.4 1.66 8.13 1 2.29 5.29 3.44 7.8 3.36 2.11-.07 5.67-1.79 6.69-4.05 1.9-4.21 1.5-10.48 3.11-11.1 2.03-.78 5.8-2.05 8-2.76z" fill="#48449c"/><path d="m319.52 237.85c-1.77 3.1-7.13 4.7-10.18 2.19-2.52-2.07-3.54-5.66-3.85-8.58l1.94-3.38c1.9-.81 5.42-2.08 7.57-1.55 4.66 1.14 6.63 7.62 4.52 11.32zm-2.12-4.02c0-2.4-1.95-4.34-4.35-4.34s-4.35 1.94-4.35 4.34 1.95 4.34 4.35 4.34 4.35-1.94 4.35-4.34z" fill="#54459d"/><path d="m332.62 274.18c1.91 1.08 3.73 4.03 2.61 6.25-1.24 2.46-6.34 2.88-7.6.28-1.11-2.29.85-5.89 2.61-7.39.11-.62.31-1.7.36-2.27.08-1-.16-3.03 0-4.02-.09-.22.77.96.82 1.22z" fill="#e23fbd"/><path d="m316.57 224.85 6.12 2.23c.26.1.65.45.94.69-1.6.61-1.21 6.88-3.11 11.1l-1.01-1.01c2.11-3.69.14-10.17-4.52-11.32-2.15-.53-5.68.74-7.57 1.55 1.4-2.45 6.33-4.26 9.14-3.23z" fill="#b63fb6"/><path d="m319.52 237.85 1.01 1.01c-1.02 2.26-4.58 3.98-6.69 4.05-2.51.08-6.8-1.06-7.8-3.36-1.2-2.73-1.5-5.68-1.66-8.13l1.11.04c.32 2.92 1.33 6.51 3.85 8.58 3.04 2.5 8.4.9 10.18-2.19z" fill="#cc49c3"/><path d="m302.29 205.84.55 3.78h1.63c-2.09.79-3.57 8.01-8.86 9.4-1.36.36-4.84-.73-5.42-2.01-.75-1.67-.42-4.61 0-6.1 3.25-1.48 8.95-4.09 12.09-5.08z" fill="#423d8d"/><path d="m340.68 220.75 1.01 1.01-10.05 3.25c-2.21.71-5.97 1.98-8 2.76-.3-.23-.68-.59-.94-.69l4.65-3.1c3.45-.89 6.85-2.02 10.12-3.4z" fill="#d93cc5"/><path d="m431.37 212.58c-1.17.17-2.7 1.95-3.04 3.08s.91 4.11 2.05 4.55c1.94.75 5.54-.16 6.17-1.89.69-1.9-.28-4.98-2.96-5.73.59-1.1 1.2-2.16 1.75-2.94s4.03.11 4.07 1.13l.57 12.55c-3.77-.1-10.04-.25-13.32-.94-2.32-.49-2.08-8 .01-11.95.62-1.18 4.25-1.14 5.5-.54.6.29-.57 2.52-.8 2.68z" fill="#4c3788"/><path d="m431.37 212.58c.55-.08 1.62-.01 2.22 0 2.68.75 3.65 3.83 2.96 5.73-.63 1.73-4.23 2.64-6.17 1.89-1.14-.44-2.39-3.42-2.05-4.55s1.88-2.9 3.04-3.08z" fill="#d63db2"/><path d="m330.25 273.32c-1.77 1.5-3.72 5.1-2.61 7.39 1.25 2.6 6.36 2.18 7.6-.28 1.12-2.22-.71-5.17-2.61-6.25-2.34-.7 4.69-2.03 4.94-.89.5 2.26.52 7.6-.96 9.65-1.65 2.29-8.56 2.88-10.27.55s-1.14-7.47-1.03-10.79l4.95.62z" fill="#5a449f"/><path d="m347.73 203.65c0 .33-.07.96-.11 1.33-2.95.34-8.13.81-10.85.96-.55.03-1.62-.34-2.13-.52l3.02-1.76c2.98.77 6.31 1.04 8.64-.87l1.44.87z" fill="#7f3188"/><path d="m373.93 217.73c1.05.12 2.98.81 4.06 1.14-2 .07-4.21 2.61-5.3 4.62-2.76 5.07-6.64 3.97-11.86 5.31-3.65.93-9.96 3.59-13.22 4.93l-2.6-8.27.89-3.62-2.2-.09c7.13-2.84 22.61-4.9 30.23-4.02z" fill="#45418f"/><path d="m345.6 235.07-1.29 2.32c-.37.66-1.88-.35-2.64-.47l.78-5.38 3.14 3.53z" fill="#373a74"/><path d="m331.63 225 10.05-3.25c.48-.15 1.55.19 2.02 0l2.2.09-.89 3.62" fill="#272339"/><path d="m377.28 230.33c1.15 1 3.07 2.21 4.17 2.21 1.28 0 3.41-2.47 3.73-3.94.37-1.72-.79-4.55-2.11-5.43s-4.54.25-5.42 1.55l-1.32 1.93c-.35.52-2.58-.53-2.58-1.24 0-2.92 3.89-6.66 8.12-5.63 3.28.8 6.07 2.52 6.38 6.13.37 4.42-1.6 7.19-5.33 8.59-3.27 1.24-8.12-1.66-8.82-4.35-.1-.4.96-1.76 1.24-1.51l1.94 1.68z" fill="#3f3f89"/><path d="m491.49 175.23c-2.85.42-5.4-.76-5.72-2.36-.28-1.37 1.08-4.15 2.7-4.92s4.33.32 4.84 1.56c.77 1.87.31 5.39-1.82 5.71z" fill="#d23fa6"/><path d="m200.69 206.62.93 2.06c-.36 1.51-1.08 5.2-.48 6.72 1.06 2.68 5.79 1.87 8.2.67l-.71-6.4c.49.09 2.26 1.89 2.24 2.78l-.18 7.3h-12.09l-1.05-11.17c-.1-1.05 2.48-2.04 3.15-1.96z" fill="#3a2b77"/><path d="m204.68 209.56 3.94.1.71 6.4c-2.41 1.2-7.13 2.01-8.2-.67-.6-1.52.12-5.21.48-6.72l3.06.89z" fill="#e634b1"/><path d="m211.7 219.74h-1.01l.18-7.3c.02-.89-1.75-2.69-2.24-2.78l-3.94-.1-1.24-1.62c-1.14-1.49 7.8-2.33 8.07.03.36 3.13.32 8.72.19 11.77z" fill="#552f8e"/><path d="m146.76 180.62c-.88 1.18-4.54 1.08-5.53.2-1.15-1.02-1.92-4.4-.95-6.26.72-1.39 4.58-1.3 5.82-.41 1.35.97 2.22 4.37.66 6.47z" fill="#d937a9"/><path d="m188.94 317.66c.15 2.14-1.01 4.53-2.03 5-1.23.56-4.5-.17-5.08-1.54-.81-1.93.15-5.02 1.52-5.65 1.78-.82 5.42-.27 5.59 2.19z" fill="#e23aa1"/><path d="m171.1 257.77c-.07 1.67-2.65 3.49-4.05 3.43-1.27-.06-3.79-1.78-3.86-3.1-.13-2.47 1.36-4.89 2.83-5.24 2.63-.62 5.24.96 5.07 4.91z" fill="#d73794"/><path d="m346.29 201.9-3.43-.19c.64-1.75 1.47-6.03.29-7.68-.95-1.32-5.31-.63-6.58-.31l2.87-3.06c1.57.34 5.66-.58 6.54.76 1.64 2.52.61 7.9.31 10.48z" fill="#604193"/><path d="m339.44 190.65-2.87 3.06-1.13 7.61 4.33.43c-.89.08-2.63 1.11-3.19 1.64-1.27-.18-3.35-1.85-3.33-3.07l.21-10.95z" fill="#473f91"/><path d="m342.86 201.7 3.43.19c-.03.23 0 .61 0 .88-2.33 1.91-5.66 1.64-8.64.87-.32-.08-.81-.22-1.07-.25.56-.53 2.3-1.55 3.19-1.64.77-.07 2.32-.1 3.09-.05z" fill="#372c5d"/><ellipse cx="313.05" cy="233.83" fill="#d142bd" rx="4.35" ry="4.34"/><path d="m270.11 133.42c2.29.05 4.21 3.71 4.2 5.72l9.6-2.05c.3-.06 1.23 1.09.95 1.22l-1.6.76c-9.94 4.72-3.58 9.88-7.91 16.29-6.39-3.18-13.48-5.26-20.34-7.04l-.37-7.82-15.15-.53c-.47-.02-1.61.92-1.61 1.31l-.27 16.42c5.59 1.05 11.16.81 16.39-.33l1.2-3.09c3.8 4.67 8.32 3.51 10.04 10.21-7.91 5-12.78 3.03-16.05 15.8-8.06-.83-14.3-12.95-12.78-14.11l2.08-1.58c.37-.28.35-1.37.44-2.62-7.16-.98-2.39-12.43-13.31-12.67l-6.08-.14c-1.88-.04-5.8-3.75-4.2-4.61 2.51-1.36 5.97-2.99 7.54-4.29.41-.34.69-1.42.88-1.92 5.41-2.33 11.35-2.29 17.28-1.38 2.73-3.96 24.33-3.64 29.03-3.54z" fill="#353375"/><path d="m274.19 157.54c-2.84 2.35-5.82 4.99-8.92 6.95-1.72-6.69-6.24-5.54-10.04-10.21l-.2-3.95c6.76 1.36 13.61 3.17 19.16 7.21z" fill="#413a86"/><path d="m255.03 148.31v2.01l.2 3.95-1.2 3.09-1.01-1.01.64-11.54c.03-.48-.08-1.87-.4-2.18-.49-.46-2.14-.94-2.9-.9l-11.45.54-1.01-1.01c0-.39 1.14-1.32 1.61-1.31l15.15.53.37 7.82z" fill="#a7379f"/><path d="m238.9 142.28-.17 11.17c-.02 1.01 2.12 3.29 3.11 3.26l11.18-.34 1.01 1.01c-5.23 1.14-10.8 1.38-16.39.33l.27-16.42 1.01 1.01z" fill="#cc3eb0"/><path d="m253.01 156.36-11.18.34c-.99.03-3.12-2.24-3.11-3.26l.17-11.17 11.45-.54c.75-.04 2.41.44 2.9.9.32.31.43 1.7.4 2.18l-.64 11.54zm-2.52-7.15c0-2.21-1.79-4-4-4s-4 1.79-4 4 1.79 4 4 4 4-1.79 4-4z" fill="#3a3183"/><ellipse cx="246.49" cy="149.21" fill="#dc36ac" rx="4" ry="4"/><path d="m342.86 201.7c-.77-.04-2.32-.02-3.09.05l-4.33-.43 1.13-7.61c1.27-.31 5.63-1 6.58.31 1.19 1.65.35 5.93-.29 7.68z" fill="#d23ebe"/><path d="m239.85 266.44c0 .19 0 .45.03.6-.54 6.38-10.18 2.13-11.05 5.29-.33 1.19-.25 4.28-1.52 4.88-2.61 1.24-7.06 1.19-9.57 1.9-3.18.9-7.18 2.29-10.06 3.89-.47-2.2-.92-5.64-.24-7.83l2.22-7.11c1.47-4.7 1.5-10.01 7.57-12.1l1.91 3.39c11.48-7.16 13.58 6.88 20.7 7.1z" fill="#302d6b"/><path d="m230.71 333.51c-2.33 1.44-5.68 5.93-6.56 8.64l-2.53 7.79c-2.29 7.05 4.76 9.05 2.19 9.46l-7.07-1.06c-6.43-8.48-2.74-13.29-1.98-20.83.36-3.56 1.32-9.81 2.2-13 .28-1.01.41-3.03.53-4.15 1.27 6.21 8.56 7.75 13.2 13.15z" fill="#28265d"/><path d="m227.82 280.01c0 2.86.55 5.79 2.02 8.15 10.99 1.4 6.6 4.71 11.04 8.9 6.31 5.95 8.88 10.28 12.21 11.17-3.06 1.53-6.72 3.42-7.93 7.53-1.42 4.86-5.27 12.38-10.94 11.55l.52 4.95c.11 1.04-3.14.71-4.04 1.26-4.64-5.4-11.93-6.94-13.2-13.15l1.61-14.24c1.14-10.11-7.19-7.11-10.52-20.91 3.43-2.21 7.24-3.81 11.16-5.1l8.06-.1z" fill="#2c2b66"/><path d="m253.09 308.22c-3.33-.89-5.9-5.22-12.21-11.17-4.44-4.19-.05-7.5-11.04-8.9l12.25.27c1.12.02 3.14-2.02 3.11-3.21l-.32-12.02c7.19 4.63 16.16 4.78 17.58 9.11 1.27 3.86-2.97 9.16-5.71 19.05-.53 1.91-1.94 6.01-3.65 6.87z" fill="#353375"/><path d="m241.93 266.96c.47 1.62 1.47 5.29 2.94 6.24l.32 12.02c.03 1.19-1.99 3.23-3.11 3.21l-12.25-.27c-1.47-2.36-2.01-5.29-2.02-8.15h2.02s-.53 6.49-.53 6.49l15.28-.06-1.36-12.38c-.11-.97-3.53-1.34-3.52-.46 0 .67.08 1.91.25 2.55l-3.16-1.1 1.01-3.17-7.99 1.37-.98-.94c.87-3.16 10.51 1.09 11.05-5.29l.41 2.99 1.64-3.06z" fill="#aa3aa2"/><path d="m229.81 273.27.52 5.33 6.46-3.54 3.16 1.1c.44 1.65 1.25 5.89-.39 6.6-3.41 1.48-7.18-1.18-9.73-2.74h-2.02s-8.06.09-8.06.09l-2.02-1.01c2.52-.71 6.96-.66 9.57-1.9 1.27-.6 1.19-3.69 1.52-4.88l.98.94z" fill="#de35ab"/><path d="m229.84 280.01c2.55 1.56 6.32 4.22 9.73 2.74 1.64-.71.82-4.94.39-6.6-.17-.64-.24-1.88-.25-2.55 0-.88 3.41-.52 3.52.46l1.36 12.38-15.28.06.53-6.48z" fill="#34317a"/><path d="m236.79 275.06-6.46 3.54-.52-5.33 7.99-1.38z" fill="#47368a"/><path d="m421.2 225.27c3.57.12 7.62.2 11.08 1.01 19.4 4.5 31.71 9.45 47.32 22.14 1.64 1.33 4.93 3.39 6.19 4.92 5.42 6.6 14.81 20.04 19.37 28.1 2.15 3.8 2.83 2.4 4.47 6.3l-1.42 1.22c-.74-3.87-3.85-4.59-7.31-7.37 2.95-1.77-7.14-14.72-8.67-16.88-2.31-3.27-4.39-5.52-7.31-8.15-1.93-1.73-4.5-4.27-6.25-6.18-4.6-5.02-10.1-7.94-16.16-10.96-4.32-2.15-8.5-5.08-13.57-6.73-8.06-2.62-15.85-4.11-23.71-5.42l-6.05-1.01 2.02-1.01z" fill="#d73db0"/><path d="m523.73 330.65-3.22 3.47c-1.9 2.04-.62-4.62-6.15-4.01l-8.13.9.37-9.42c0-.12.76.93.79 1.19l.44 4.67c.02.24.79 1.3.79 1.19l-.03 1.24 13.55.22-.42-14.55 1.01-1.01c1.31 5.16 1.21 10.68 1.01 16.1z" fill="#c62e9c"/><path d="m522.45 315.05-1.01 1.01-6.26.31 1.27 2.66-3.11-.03 1.07-2.76-6.46-.74.39 13.63c0 .11-.77-.94-.79-1.19l-.44-4.67c-.02-.26-.8-1.31-.79-1.19.02-.54-.18-1.6-.22-2.13-.1-1.3-.53-4.97.74-5.14 1.88-.26 4.56-.41 7.17-.58l-2.31-13.65c-.71-4.19-2.14-8.34-3.63-11.94.04-.3.1-.66.05-.88l1.22-.89c9.15 21.7 0 27.71 13.1 28.17z" fill="#b53a9f"/><path d="m52.22 267.26h84.69v11.88h-84.69z" fill="#fff" opacity=".1"/><path d="m52.17 289.29h84.69v11.88h-84.69z" fill="#fff" opacity=".1"/><path d="m51.93 312.75h84.69v11.88h-84.69z" fill="#fff" opacity=".1"/></svg>