<svg viewBox="0 0 552.74 245.47" xmlns="http://www.w3.org/2000/svg" xmlns:xlink="http://www.w3.org/1999/xlink"><linearGradient id="a" gradientUnits="userSpaceOnUse" x1="160.906" x2="27.6122" y1="133.724" y2="134.4866"><stop offset="0" stop-color="#78b0d7"/><stop offset="1" stop-color="#9a73a9"/></linearGradient><linearGradient id="b" gradientUnits="userSpaceOnUse" x1="179.8284" x2="16.1546" y1="45.3182" y2="46.9302"><stop offset="0" stop-color="#77b7db"/><stop offset="1" stop-color="#9c6ba5"/></linearGradient><text fill="#333" font-family="Effra-Bold, Effra" font-size="155.23" font-weight="700" transform="translate(194.94 138.98)"><tspan x="0" y="0">Align</tspan></text><path d="m174.25 95.09-12.56 33.25c-4.37 11.57-12.17 31.92-21.4 39.77-5.95 5.06-13.84 4.93-19.34-.56-2.68-2.68-4.36-6.17-5.37-9.94l-4.7-17.49c-1.4-5.2-3.31-10.08-6.54-14.63-4.24-5.97-12.09-8.15-18.46-4.27-7.96 4.85-11.1 21.63-13.28 30.32-2.03 8.08-5.27 18.82-15.01 20.15-4.39.6-8.48-.99-11.71-3.93-12.29-11.18-22.94-46.55-29.14-60.7 45.97 13.05 110.85 12.1 154.46-9.12 3.09-3.04 1.24-2.84 3.04-2.84z" fill="url(#a)"/><path d="m190.86 74.77c-.14.15-.05.56-.14.95-7.68 7.54-16.73 13.2-26.8 17.17-35.97 14.16-93.52 14.38-130.59 5.44-7.06-1.7-14.65-4.14-21.69-6.99-.31-3.35-2.19-5.16-.76-14.3.19-1.21 2.89-1.56 2.16-2.81 1.86 1.32 4.54 1.92 6.66 3.1 8.83 4.89 18.64 8 29.15 10.31 27.04 5.95 54.74 6.35 81.97 2.21 14.57-2.21 39.34-8.5 50.31-18.76 1.4 1.61 3.65 1.08 5.31.59 1.7 1.03 3.04 2.36 4.42 3.09z" fill="#f8f8f8"/><path d="m174.25 95.09c-1.8 0 .05-.2-3.04 2.84-43.61 21.22-108.49 22.17-154.46 9.12l-.6-1.37c2.1-.25-3.92-10.42-3.19-11.86.77-1.53 5.3.92 8.5 2.07.27.1 13.16 4.29 11.87 2.44 37.07 8.94 94.62 8.72 130.59-5.44 10.07-3.97 19.12-9.63 26.8-17.17.09-.39 0-.81.14-.95.75.4.73-1.32 1.38-.34.52.78-.57.62-.83 1.1-3.82 7.16-9.06 12.89-15.86 17.1-1.03.64-1.03 1.74-1.3 2.45z" fill="#7779af"/><path d="m124.76 31.69c.26 1.09.67 2.46 1.06 3.56.78.04 2.18-.51 2.09.32-8.74 1.15-17.12-.81-25.17-3.44 1.13-.6.03-2.11-.86-3.5 1.11-.21 2.35-.42 3.72-.92 1 .94 1.42.68 1.24-.46 5.66 2.24 11.87 3.58 17.91 4.44z" fill="#f8f8f8"/><path d="m33.33 98.34c1.28 1.85-11.6-2.34-11.87-2.44-3.21-1.15-7.73-3.6-8.5-2.07-.73 1.44 5.3 11.6 3.19 11.86-2.01-4.6-4.06-9.49-4.51-14.34 7.04 2.85 14.63 5.29 21.69 6.99z" fill="#79518f"/><path d="m102.75 32.12c8.05 2.63 16.44 4.59 25.17 3.44 4.8-.63 9.68-1.03 14.18-2.85 1.95-.79 4.19-.15 5.69-1.75-2.25-.5-3.87.57-5.75.62-5.69.15-11.6.93-17.28.11-6.04-.86-12.25-2.2-17.91-4.44-6.06-2.4-11.37-5.71-16.45-10.04 10.44-1.27 19.28-4.06 27.77-9.08 5.39-3.19 10.89-5.7 17.17-7.09 14.31-3.18 28.57 1.13 38.82 11.37 17.54 17.53 12.71 37.75 6.97 58.69-10.97 10.26-35.74 16.55-50.31 18.76-27.23 4.13-54.93 3.73-81.97-2.21-10.51-2.31-20.33-5.41-29.15-10.31-.57-5.65-2.6-11.01-4.44-16.78-5.93-18.58-7.1-37.74 4.28-53.75 10.64-7.12 23.73-8.72 36.03-4.18 23.3 8.59 22.8 21.52 47.17 29.49z" fill="url(#b)"/><path d="m19.53 6.8c-11.38 16.01-10.21 35.17-4.28 53.75 1.84 5.77 3.87 11.13 4.44 16.78-2.12-1.18-4.8-1.78-6.66-3.1-3-2.13-5.47-4.43-8.81-6.41-1.35-6.73-2.83-12.84-3.8-19.72-2.31-16.41 5-33.29 19.11-41.3z" fill="#913988"/><path d="m142.1 32.71c.13-.4-.3-.75-.06-1.13 1.87-.05 3.5-1.12 5.75-.62-1.5 1.6-3.74.96-5.69 1.75z" fill="#f8f8f8"/></svg>