<svg viewBox="0 0 534.95 166.31" xmlns="http://www.w3.org/2000/svg" xmlns:xlink="http://www.w3.org/1999/xlink"><linearGradient id="a" gradientUnits="userSpaceOnUse" x1="148.6087" x2="114.101" y1="59.1315" y2="147.8133"><stop offset="0" stop-color="#5bafcb"/><stop offset="1" stop-color="#5a69a9"/></linearGradient><linearGradient id="b" gradientUnits="userSpaceOnUse" x1="60.9639" x2="50.7769" y1="63.6882" y2="142.3294"><stop offset="0" stop-color="#a164a5"/><stop offset="1" stop-color="#835396"/></linearGradient><linearGradient id="c" gradientUnits="userSpaceOnUse" x1="127.8687" x2="110.9473" y1="65.4084" y2="124.6516"><stop offset="0" stop-color="#4575ae"/><stop offset="1" stop-color="#495792"/></linearGradient><path d="m110.69 153.23c-8.76-2.02-13.25-1.74-20.65-7.74l3.52-2.07c23.77-13.93 26.31-22.08 26.33-48.87.03-37.2 33.67-41.22 34.27-41.93.17-.2.4-.48.13-.79.64-.01 2.44-.05 2.61.6l.12 37.19c.02 7.64-.54 14.84-2.91 22.12-6.66 20.48-23.16 35.72-43.42 41.48z" fill="url(#a)"/><path d="m24.97 52.25c21.29 4.52 36.36 18.44 36.06 42.28-.21 16.71-.23 27.7 12.88 40.5 4.64 4.53 9.89 7.55 15.58 11.24-5.9 4.09-12.8 5.42-19.34 6.84-25.26-6.76-46.07-29.44-46.28-56.22l-.34-43.95c0-.93 1.11-.74 1.44-.7z" fill="url(#b)"/><path d="m157.06 34.19c.13 1.75.36 3.49-.43 4.74l-55.61.09-.22-38.95 79.89-.05c.46 4.43.32 8.49.14 12.76-2.65.66-5.08.32-7.63.78-10.14 1.83-16.92 10.05-16.14 20.62z" fill="#68b9c9"/><path d="m23.69 34.79c.86-12.28-8.14-21.8-20.21-21.74-1.02 0-2 .2-2.78-.5-1.08-.98-.7-9.86-.29-12.55l79.44.07.2 38.9-55.75.02c-.96-1.01-.74-2.48-.62-4.2z" fill="#bf64a2"/><path d="m90.04 145.49c7.4 6 11.9 5.72 20.65 7.74-13.32 3.78-27.28 3.43-40.54-.12 6.54-1.42 13.44-2.75 19.34-6.84-5.69-3.69-10.95-6.72-15.58-11.24-13.11-12.8-13.1-23.78-12.88-40.5.31-23.85-14.77-37.77-36.06-42.28 5.6-.01 12.8-.54 18.95-.15 19.45 1.24 35.68 16.14 35.84 35.78l.29 35.39c.07 9.05 3.36 16.85 9.99 22.22z" fill="#554079"/><path d="m154.29 51.84c.26.31.03.6-.13.79-.6.71-34.24 4.73-34.27 41.93-.02 26.79-2.56 34.93-26.33 48.87 4.84-5.16 7.04-12.09 7.09-19.52l.27-36.7c.12-16.61 15.77-34.64 35.05-35.01l18.32-.35z" fill="url(#c)"/><text fill="#474747" font-family="Futura-Bold, Futura" font-size="65.24" font-weight="700" transform="translate(181.51 78.64)"><tspan letter-spacing="0em" x="0" y="0">F</tspan><tspan letter-spacing="0em" x="35.36" y="0">a</tspan><tspan letter-spacing="-.03em" x="81.09" y="0">k</tspan><tspan x="124.6" y="0">e</tspan><tspan letter-spacing=".01em" x="0" y="65.24">U</tspan><tspan letter-spacing="0em" x="53.88" y="65.24">n</tspan><tspan letter-spacing="0em" x="97.2" y="65.24">i</tspan><tspan letter-spacing="-.02em" x="117.75" y="65.24">v</tspan><tspan letter-spacing="0em" x="158.72" y="65.24">e</tspan><tspan letter-spacing="0em" x="200.92" y="65.24">r</tspan><tspan x="231.13" y="65.24">sity</tspan></text></svg>