<svg viewBox="0 0 542.46 178.36" xmlns="http://www.w3.org/2000/svg" xmlns:xlink="http://www.w3.org/1999/xlink"><linearGradient id="a" gradientUnits="userSpaceOnUse" x1="176.9622" x2="3.5358" y1="30.9654" y2="47.5442"><stop offset="0" stop-color="#4b9fd8"/><stop offset="1" stop-color="#c95dbe"/></linearGradient><linearGradient id="b" gradientUnits="userSpaceOnUse" x1="130.1894" x2="3.1762" y1="98.5888" y2="112.0366"><stop offset="0" stop-color="#6291d6"/><stop offset="1" stop-color="#cd5bbf"/></linearGradient><path d="m51.19 125.75-.1 26.85c-.03 8.67-3.96 16.06-11.17 21.18-8.64 6.13-19.86 6.06-28.7.06-8.02-5.44-13.08-16.2-10.49-26.12 3.31-12.68 14.66-21.76 27.96-22.61 3.09-.2 22.04-.96 22.5.64z" fill="#1f1e23"/><path d="m51.16 52.06.12 21.88-14.95.5c-15.46.51-29.3 8.51-34.66 22.6-1.03-1.28-.42-2.29-.32-3.21 2.91-25.55 23.66-46.24 49.81-41.77z" fill="#1b1a1e"/><path d="m51.16 52.06c-26.15-4.47-46.9 16.22-49.81 41.77-.78.08-.44 1.35-1.28 1.32v-88.65c-.01-4.19 4.1-6.29 7.7-6.3l150.22-.2c8.99-.01 16.89 3.68 21.78 10.33s6.23 15.86 3.54 23.73c-3.81 11.1-13.57 17.06-25.29 17.04l-105.36-.14c-1.09 0-1.32.56-1.5 1.11z" fill="url(#a)"/><path d="m143.19 45.13c-8.5-4.66-16.62-16.32-11.97-25.1 1.85-3.49 4.06-6.98 7.36-9.33-6.64 12.11-4.75 25.32 5.03 34.33 1.38.25.09 1.62-.43.1z" fill="#191d36"/><path d="m51.19 125.75c-.46-1.6-19.41-.83-22.5-.64-13.3.85-24.65 9.93-27.96 22.61-.87.38-.72-.64-.71-1.38l.06-51.18c.84.02.5-1.24 1.28-1.32-.11.92-.71 1.93.32 3.21 5.36-14.09 19.2-22.09 34.66-22.6l14.95-.5 60.6.24c12.04.05 22.63 7.88 25.47 19.79 3.63 15.26-7.82 30.57-23.55 30.67l-61.82.37c-.56 0-.68.69-.79.74z" fill="url(#b)"/><path d="m96.65 119.25c-8.54-3.76-17.83-17.05-10.3-27.75 2.22-3.15 4.6-5.75 7.24-8.32.93 1.64-1.09 1.66-1.48 2.31-6.36 10.57-5.55 24.49 4.55 33.75z" fill="#261c3f"/><path d="m529.84 94.84c-.04-3.99-2.27-7.1-4.63-8.64-3.22-2.09-7.02-2.31-10.48-.82-4.94 2.12-7.41 7.06-7.4 12.29l.05 21.2c0 3.82-1.92 6.85-5.49 7.19-3.54.34-7.28-1.71-7.27-5.96l.12-64.21c0-3.16 3.64-4.8 5.91-4.95 2.59-.18 6.35 1.04 6.42 4.32l.47 23.25c6.29-6.06 14.42-7.8 22.35-4.67 6.9 2.73 12.59 9.92 12.58 18.25l-.04 28.67c0 3.15-3.18 5.13-5.55 5.28-2.8.18-6.73-1.28-6.76-4.49l-.26-26.71z" fill="#232329"/><path d="m253.4 83.36c3.57.02 5.78 3.32 5.9 5.93.13 2.89-1.68 6.66-4.87 6.71l-25.16.38-.24 24.38c-.04 3.53-3.24 5.44-6.31 5.43-2.68-.01-6.25-1.93-6.26-5.46l-.14-63.61c0-3.27 3.24-5.03 6.11-5.02l34.93.12c3.21.01 4.88 3.9 4.77 6.37s-2.1 6.25-5.37 6.3l-27.52.35v18s24.16.13 24.16.13z" fill="#232227"/><path d="m319.94 85.03c-3.9-1.34-7.67-.36-10.76 2.18-2.39 1.97-4.3 5.29-4.33 9.21l-.21 24.34c-.03 3.33-3.07 5.11-5.78 5.28-2.39.15-6.56-1.26-6.56-4.65l.07-44.26c0-3.07 4.48-4.26 6.49-4.07 2.85.28 5.16 2.07 5.84 5.58 4.58-4.9 10.71-6.98 17.31-6.11 11.44 1.5 18.08 11.49 18.02 23.27l-.14 24.33c-.02 3.46-3.15 5.76-5.98 5.89-3.17.15-6.56-1.64-6.61-5.27l-.34-26.14c-.06-4.3-3.12-8.23-7.03-9.58z" fill="#232228"/><path d="m476.42 109.55c2.27-2.57 4.83-3.01 7.61-1.25 1.42.9 2.81 2.23 3.13 3.52.5 2.03-.11 4.1-1.54 5.74-9.4 10.74-26.47 12.31-37.62 2.58-10.23-8.92-11.91-23.75-5.29-35.12 4.36-7.48 11.92-11.66 19.93-12.55 8.64-.96 17.02 2.16 22.77 8.79 2.44 2.81 2.49 6.11-.32 8.63-2.87 2.58-6.3 2.23-8.82-.65-4.22-4.83-10.54-6.06-16.33-3.7-5.08 2.07-8.44 7.21-8.64 13.37s3.15 11.8 8.33 14.13c5.77 2.6 12.5 1.39 16.8-3.5z" fill="#242329"/><path d="m376.39 113.78c2.98.78 4.29 3.49 3.98 6.04-.86 7.11-10.1 6.51-16.18 5.51s-10.51-6.49-10.61-12.7l-.44-27.08c-1.7-.69-3.78.13-5.71-.51-3.66-1.22-4.32-5.33-3.5-7.79 1.36-4.09 5.17-4.71 9.1-3.97l.5-9.98c.15-2.97 3.57-4.36 6.01-4.37 2.61-.02 5.99 1.37 6.07 4.4l.26 9.63c2.95.55 5.9-.03 8.99.19s5.37 3.23 5.37 6.08-2.08 5.76-5.37 6.03-5.97-.25-9.03.29l-.03 23.8c0 2.61 2.04 4.43 4.64 4.4 1.87-.02 3.83-.51 5.95.05z" fill="#232228"/><path d="m281.98 120.44c0 4.3-4.15 5.96-7.29 5.52-3.49-.49-5.46-3.23-5.46-7.11v-40.55c.01-3.41 3.32-5.28 6.05-5.54s6.62 1.55 6.63 4.94l.08 42.75z" fill="#222127"/><path d="m276.47 66.85c-4.13.2-6.94-2.1-8.05-5.14-1.27-3.52-.14-7.29 3.19-9.19 2.84-1.62 6.16-1.76 9.1.37 2.18 1.59 3.76 4.82 2.77 8.36-.74 2.66-3.06 5.41-7.02 5.6z" fill="#222127"/><path d="m422.64 109.57c2.87-1.89 7.55 1.52 8.57 4.05 1.65 4.07-12.89 15.87-28.92 12.05-12.24-2.92-19.74-13.75-19.91-26.14-.14-10.21 5.13-19.52 13.48-23.96 9.51-5.06 20.67-4.11 28.85 2.75 6.4 5.37 9.65 13.05 8.82 21.23-.13 1.26-1.25 3.9-2.62 4.11l-35.71.23c1.35 6.12 6.61 10.02 12.64 10.7 5.78.65 9.91-1.81 14.81-5.03z" fill="#232228"/><path d="m421.14 92.83-25.46.48c1.49-5.47 6.58-8.89 11.9-9.13s11.1 2.08 13.56 8.65z" fill="#eaeaeb"/></svg>