<svg width="106" height="20" viewBox="0 0 106 20" fill="none" xmlns="http://www.w3.org/2000/svg">
<path d="M95.1777 15.86V4.86H97.5377V6.46H98.0177L97.6377 6.74C97.6377 6.11334 97.8177 5.61334 98.1777 5.24C98.5377 4.85334 98.9844 4.66 99.5177 4.66C100.091 4.66 100.538 4.90667 100.858 5.4C101.178 5.89334 101.338 6.54667 101.338 7.36L100.978 6.46H101.538L101.358 6.74C101.358 6.11334 101.531 5.61334 101.878 5.24C102.224 4.85334 102.691 4.66 103.278 4.66C103.944 4.66 104.484 4.91334 104.898 5.42C105.311 5.91334 105.518 6.59334 105.518 7.46V15.86H102.938V7.66C102.938 7.35334 102.871 7.12 102.738 6.96C102.604 6.78667 102.411 6.7 102.158 6.7C101.904 6.7 101.711 6.78667 101.578 6.96C101.444 7.12 101.378 7.35334 101.378 7.66V15.86H99.3177V7.66C99.3177 7.35334 99.2511 7.12 99.1177 6.96C98.9844 6.78667 98.7911 6.7 98.5377 6.7C98.2844 6.7 98.0911 6.78667 97.9577 6.96C97.8244 7.12 97.7577 7.35334 97.7577 7.66V15.86H95.1777Z" fill="white"/>
<path d="M86.9262 16.06C85.8195 16.06 84.9395 15.76 84.2862 15.16C83.6462 14.56 83.3262 13.7467 83.3262 12.72C83.3262 11.6133 83.7062 10.7667 84.4662 10.18C85.2395 9.58 86.3462 9.28 87.7862 9.28H90.0662V8.46C90.0662 8.03334 89.9128 7.69334 89.6062 7.44C89.3128 7.18667 88.9128 7.06 88.4062 7.06C87.9395 7.06 87.5528 7.16667 87.2462 7.38C86.9395 7.59334 86.7528 7.88667 86.6862 8.26H83.7862C83.9062 7.15334 84.3862 6.28 85.2262 5.64C86.0795 4.98667 87.1728 4.66 88.5062 4.66C89.9062 4.66 91.0128 5.00667 91.8262 5.7C92.6528 6.38 93.0662 7.3 93.0662 8.46V15.86H90.1662V14.06H89.6862L90.1862 13.36C90.1862 14.1867 89.8862 14.8467 89.2862 15.34C88.6995 15.82 87.9128 16.06 86.9262 16.06ZM88.0462 13.86C88.6328 13.86 89.1128 13.7067 89.4862 13.4C89.8728 13.08 90.0662 12.6667 90.0662 12.16V10.98H87.8462C87.3928 10.98 87.0262 11.1133 86.7462 11.38C86.4662 11.6333 86.3262 11.9733 86.3262 12.4C86.3262 12.8533 86.4795 13.2133 86.7862 13.48C87.0928 13.7333 87.5128 13.86 88.0462 13.86Z" fill="white"/>
<path d="M76.3737 16.06C75.4004 16.06 74.547 15.88 73.8137 15.52C73.0937 15.1467 72.5337 14.6333 72.1337 13.98C71.747 13.3133 71.5537 12.54 71.5537 11.66V9.06C71.5537 8.18 71.747 7.41334 72.1337 6.76C72.5337 6.09334 73.0937 5.58 73.8137 5.22C74.547 4.84667 75.4004 4.66 76.3737 4.66C77.3471 4.66 78.187 4.84667 78.8937 5.22C79.6137 5.58 80.1671 6.09334 80.5537 6.76C80.9537 7.41334 81.1537 8.18 81.1537 9.06V11.06H74.4137V11.66C74.4137 12.3533 74.5804 12.88 74.9137 13.24C75.247 13.5867 75.747 13.76 76.4137 13.76C76.8804 13.76 77.2537 13.68 77.5337 13.52C77.827 13.36 78.0204 13.14 78.1137 12.86H81.0537C80.8137 13.82 80.267 14.5933 79.4137 15.18C78.5737 15.7667 77.5604 16.06 76.3737 16.06ZM78.2937 9.52V9.02C78.2937 8.34 78.1337 7.82 77.8137 7.46C77.507 7.1 77.0271 6.92 76.3737 6.92C75.7204 6.92 75.227 7.10667 74.8937 7.48C74.5737 7.85334 74.4137 8.38 74.4137 9.06V9.36L78.4937 9.32L78.2937 9.52Z" fill="white"/>
<path d="M60.001 15.86V4.86H62.801V6.96H63.561L62.701 8.24C62.701 7.05334 62.9743 6.16 63.521 5.56C64.0676 4.96 64.8676 4.66 65.921 4.66C67.1343 4.66 68.0743 5.02667 68.741 5.76C69.421 6.49334 69.761 7.52667 69.761 8.86V9.76H66.561V9.06C66.561 8.46 66.3943 7.99334 66.061 7.66C65.741 7.32667 65.3076 7.16 64.761 7.16C64.1876 7.16 63.7476 7.32667 63.441 7.66C63.1476 7.99334 63.001 8.46 63.001 9.06V15.86H60.001Z" fill="white"/>
<path d="M53.5693 15.86C52.4493 15.86 51.5693 15.54 50.9293 14.9C50.2893 14.26 49.9693 13.38 49.9693 12.26V7.56H47.0693V4.86H49.9693V1.75999H52.9693V4.86H57.0693V7.56H52.9693V12.26C52.9693 12.86 53.2693 13.16 53.8693 13.16H56.8693V15.86H53.5693Z" fill="white"/>
<path d="M39.917 16.06C39.0103 16.06 38.217 15.92 37.537 15.64C36.857 15.3467 36.3236 14.9467 35.937 14.44C35.5636 13.9333 35.377 13.34 35.377 12.66H38.377C38.377 12.98 38.517 13.24 38.797 13.44C39.0903 13.6267 39.4636 13.72 39.917 13.72H40.797C41.3436 13.72 41.757 13.62 42.037 13.42C42.3303 13.22 42.477 12.94 42.477 12.58C42.477 12.2467 42.3503 11.9933 42.097 11.82C41.8436 11.6333 41.4503 11.5067 40.917 11.44L39.637 11.28C38.2636 11.1067 37.2636 10.7733 36.637 10.28C36.0103 9.78667 35.697 9.03334 35.697 8.02C35.697 6.95334 36.0636 6.12667 36.797 5.54C37.5303 4.95334 38.6036 4.66 40.017 4.66H40.777C42.1236 4.66 43.197 4.95334 43.997 5.54C44.797 6.12667 45.197 6.91334 45.197 7.9H42.197C42.197 7.63334 42.0636 7.42 41.797 7.26C41.5436 7.08667 41.2036 7 40.777 7H40.017C39.5236 7 39.1636 7.08667 38.937 7.26C38.7103 7.42 38.597 7.66667 38.597 8C38.597 8.30667 38.697 8.54 38.897 8.7C39.1103 8.86 39.4436 8.97334 39.897 9.04L41.277 9.22C42.6636 9.39334 43.6903 9.74 44.357 10.26C45.037 10.78 45.377 11.5533 45.377 12.58C45.377 13.7 44.9903 14.56 44.217 15.16C43.4436 15.76 42.3036 16.06 40.797 16.06H39.917Z" fill="white"/>
<path d="M29.585 15.86C28.465 15.86 27.585 15.54 26.945 14.9C26.305 14.26 25.985 13.38 25.985 12.26V7.56H23.085V4.86H25.985V1.75999H28.985V4.86H33.085V7.56H28.985V12.26C28.985 12.86 29.285 13.16 29.885 13.16H32.885V15.86H29.585Z" fill="white"/>
<path d="M16.4128 16.06C15.4394 16.06 14.5861 15.88 13.8528 15.52C13.1328 15.1467 12.5728 14.6333 12.1728 13.98C11.7861 13.3133 11.5928 12.54 11.5928 11.66V9.06C11.5928 8.18 11.7861 7.41334 12.1728 6.76C12.5728 6.09334 13.1328 5.58 13.8528 5.22C14.5861 4.84667 15.4394 4.66 16.4128 4.66C17.3861 4.66 18.2261 4.84667 18.9328 5.22C19.6528 5.58 20.2061 6.09334 20.5928 6.76C20.9928 7.41334 21.1928 8.18 21.1928 9.06V11.06H14.4528V11.66C14.4528 12.3533 14.6194 12.88 14.9528 13.24C15.2861 13.5867 15.7861 13.76 16.4528 13.76C16.9194 13.76 17.2928 13.68 17.5728 13.52C17.8661 13.36 18.0594 13.14 18.1528 12.86H21.0928C20.8528 13.82 20.3061 14.5933 19.4528 15.18C18.6128 15.7667 17.5994 16.06 16.4128 16.06ZM18.3328 9.52V9.02C18.3328 8.34 18.1728 7.82 17.8528 7.46C17.5461 7.1 17.0661 6.92 16.4128 6.92C15.7594 6.92 15.2661 7.10667 14.9328 7.48C14.6128 7.85334 14.4528 8.38 14.4528 9.06V9.36L18.5328 9.32L18.3328 9.52Z" fill="white"/>
<path d="M0 19.46V16.66H3.2C3.74667 16.66 4.16667 16.5067 4.46 16.2C4.75333 15.9067 4.9 15.4933 4.9 14.96V7.66H0.6V4.86H7.9V15.06C7.9 16.42 7.5 17.4933 6.7 18.28C5.9 19.0667 4.80667 19.46 3.42 19.46H0ZM6.3 3.12C5.75333 3.12 5.31333 2.98 4.98 2.7C4.66 2.42 4.5 2.04 4.5 1.56C4.5 1.08 4.66 0.7 4.98 0.420001C5.31333 0.14 5.75333 0 6.3 0C6.84667 0 7.28 0.14 7.6 0.420001C7.93333 0.7 8.1 1.08 8.1 1.56C8.1 2.04 7.93333 2.42 7.6 2.7C7.28 2.98 6.84667 3.12 6.3 3.12Z" fill="white"/>
</svg>
