<svg fill="none" height="20" viewBox="0 0 106 20" width="106" xmlns="http://www.w3.org/2000/svg"><path d="m-.00009754 19.46v-2.8h3.19999754c.54667 0 .96667-.1533 1.26-.46.29334-.2933.44-.7067.44-1.24v-7.30002h-4.299998v-2.79999h7.299998v10.20001c0 1.36-.4 2.4333-1.2 3.22s-1.89333 1.18-3.28 1.18zm6.29999754-16.34002c-.54666 0-.98666-.14-1.32-.42-.32-.28-.48-.66-.48-1.14s.16-.859995.48-1.139995c.33334-.28.77334-.4200005 1.32-.4200005.54667 0 .98.1400005 1.3.4200005.33334.28.5.659995.5 1.139995s-.16666.86-.5 1.14c-.32.28-.75333.42-1.3.42zm10.1122 12.94002c-.9733 0-1.8267-.18-2.56-.54-.72-.3733-1.28-.8867-1.68-1.54-.3867-.6667-.58-1.44-.58-2.32v-2.60001c0-.88.1933-1.64667.58-2.3.4-.66667.96-1.18 1.68-1.54.7333-.37334 1.5867-.56 2.56-.56s1.8133.18666 2.52.56c.72.36 1.2733.87333 1.66 1.54.4.65333.6 1.42.6 2.3v2.00001h-6.74v.6c0 .6933.1667 1.22.5 1.58.3333.3467.8333.52 1.5.52.4667 0 .84-.08 1.12-.24.2933-.16.4867-.38.58-.66h2.94c-.24.96-.7867 1.7333-1.64 2.32-.84.5867-1.8533.88-3.04.88zm1.92-6.54001v-.5c0-.68-.16-1.2-.48-1.56-.3067-.36001-.7867-.54001-1.44-.54001s-1.1467.18667-1.48.56c-.32.37334-.48.9-.48 1.58001v.29999l4.08-.04zm11.2522 6.34001c-1.12 0-2-.32-2.64-.96s-.96-1.52-.96-2.64v-4.70002h-2.9v-2.69999h2.9v-3.10001h3v3.10001h4.1v2.69999h-4.1v4.70002c0 .6.3.9.9.9h3v2.7zm10.3322.2c-.9067 0-1.7-.14-2.38-.42-.68-.2933-1.2134-.6933-1.6-1.2-.3734-.5067-.56-1.1-.56-1.78h3c0 .32.14.58.42.78.2933.1867.6666.28 1.12.28h.88c.5466 0 .96-.1 1.24-.3.2933-.2.44-.48.44-.84 0-.3333-.1267-.5867-.38-.76-.2534-.1867-.6467-.3133-1.18-.38l-1.28-.16c-1.3734-.1733-2.3734-.5067-3-1-.6267-.49335-.94-1.24668-.94-2.26002 0-1.06666.3666-1.89333 1.1-2.48.7333-.58666 1.8066-.87999 3.22-.87999h.76c1.3466 0 2.42.29333 3.22.87999.8.58667 1.2 1.37334 1.2 2.36h-3c0-.26666-.1334-.47999-.4-.63999-.2534-.17334-.5934-.26001-1.02-.26001h-.76c-.4934 0-.8534.08667-1.08.26001-.2267.16-.34.40666-.34.74 0 .30666.1.54.3.7.2133.16.5466.27333 1 .33999l1.38.18001c1.3866.17333 2.4133.52 3.08 1.04001.68.52 1.02 1.2933 1.02 2.32 0 1.12-.3867 1.98-1.16 2.58-.7734.6-1.9134.9-3.42.9zm13.6522-.2c-1.12 0-2-.32-2.64-.96s-.96-1.52-.96-2.64v-4.70002h-2.9v-2.69999h2.9v-3.10001h3v3.10001h4.1v2.69999h-4.1v4.70002c0 .6.3.9.9.9h3v2.7zm6.4321 0v-11.00001h2.8v2.09999h.76l-.86 1.28001c0-1.18667.2734-2.08001.82-2.68001.5467-.59999 1.3467-.89999 2.4-.89999 1.2134 0 2.1534.36666 2.82 1.1.68.73333 1.02 1.76666 1.02 3.09999v.90001h-3.2v-.7c0-.6-.1666-1.06667-.5-1.40001-.32-.33333-.7533-.5-1.3-.5-.5733 0-1.0133.16667-1.32.5-.2933.33334-.44.80001-.44 1.40001v6.80001zm16.3722.2c-.9733 0-1.8266-.18-2.56-.54-.72-.3733-1.28-.8867-1.68-1.54-.3866-.6667-.58-1.44-.58-2.32v-2.60001c0-.88.1934-1.64667.58-2.3.4-.66667.96-1.18 1.68-1.54.7334-.37334 1.5867-.56 2.56-.56.9734 0 1.8134.18666 2.52.56.72.36 1.2734.87333 1.66 1.54.4.65333.6 1.42.6 2.3v2.00001h-6.74v.6c0 .6933.1667 1.22.5 1.58.3334.3467.8334.52 1.5.52.4667 0 .84-.08 1.12-.24.2934-.16.4867-.38.58-.66h2.94c-.24.96-.7866 1.7333-1.64 2.32-.84.5867-1.8533.88-3.04.88zm1.92-6.54001v-.5c0-.68-.16-1.2-.48-1.56-.3066-.36001-.7866-.54001-1.44-.54001-.6533 0-1.1466.18667-1.48.56-.32.37334-.48.9-.48 1.58001v.29999l4.08-.04zm8.6322 6.54001c-1.1067 0-1.9867-.3-2.64-.9-.64-.6-.96-1.4133-.96-2.44 0-1.1067.38-1.9533 1.14-2.54.7733-.60002 1.88-.90002 3.32-.90002h2.28v-.81999c0-.42667-.1533-.76667-.46-1.02001-.2933-.25333-.6933-.38-1.2-.38-.4667 0-.8533.10667-1.16.32-.3067.21334-.4933.50667-.56.88h-2.9c.12-1.10666.6-1.98 1.44-2.62.8533-.65333 1.9467-.97999 3.28-.97999 1.4 0 2.5067.34666 3.32 1.04.8267.68 1.24 1.6 1.24 2.76v7.40001h-2.9v-1.8h-.48l.5-.7c0 .8267-.3 1.4867-.9 1.98-.5867.48-1.3733.72-2.36.72zm1.12-2.2c.5867 0 1.0667-.1533 1.44-.46.3867-.32.58-.7333.58-1.24v-1.18h-2.22c-.4533 0-.82.1333-1.1.4-.28.2533-.42.5933-.42 1.02 0 .4533.1533.8133.46 1.08.3067.2533.7267.38 1.26.38zm7.1322 2v-11.00001h2.36v1.59999h.48l-.38.28c0-.62666.18-1.12666.54-1.5.36-.38666.8067-.57999 1.34-.57999.5736 0 1.0196.24666 1.3396.74.32.49333.48 1.14666.48 1.96l-.36-.90001h.56l-.18.28c0-.62666.174-1.12666.52-1.5.347-.38666.814-.57999 1.4-.57999.667 0 1.207.25333 1.62.76.414.49333.62 1.17333.62 2.04v8.40001h-2.58v-8.20002c0-.30666-.066-.54-.2-.7-.133-.17333-.326-.26-.58-.26-.253 0-.446.08667-.58.26-.133.16-.2.39334-.2.7v8.20002h-2.0596v-8.20002c0-.30666-.0667-.54-.2-.7-.1333-.17333-.3267-.26-.58-.26s-.4467.08667-.58.26c-.1333.16-.2.39334-.2.7v8.20002z" fill="#4a24d9"/></svg>