<svg fill="none" height="42" viewBox="0 0 113 42" width="113" xmlns="http://www.w3.org/2000/svg" xmlns:xlink="http://www.w3.org/1999/xlink"><linearGradient id="a" gradientUnits="userSpaceOnUse" x1="17.0086" x2="19.2855" y1="10.3049" y2="31.4825"><stop offset="0" stop-color="#8268a3"/><stop offset="1" stop-color="#58abcb"/></linearGradient><linearGradient id="b" gradientUnits="userSpaceOnUse" x1="11.8394" x2="12.5494" y1="1.27931" y2="18.0799"><stop offset="0" stop-color="#d55c98"/><stop offset="1" stop-color="#a5659e"/></linearGradient><linearGradient id="c" gradientUnits="userSpaceOnUse" x1="22.7333" x2="26.1425" y1="27.6199" y2="38.0381"><stop offset="0" stop-color="#5287b8"/><stop offset="1" stop-color="#5cbcd0"/></linearGradient><clipPath id="d"><path d="m0 0h112.793v41.8987h-112.793z"/></clipPath><g clip-path="url(#d)"><path d="m2.75579 33.0594c-2.170895-1.4769-3.191837-4.046-2.582386-6.6016.542723-2.2666 2.431136-4.2529 4.928996-4.6087 2.85819-.4093 4.9268.5849 7.9718-1.2835 1.4502-.8897 2.6513-2.0374 3.5944-3.4854l1.7083-2.6291c.7407-1.1388 1.6726-2.0352 2.8582-2.7358 2.0063-1.1856 3.9369-2.33553 6.0322-3.37427 1.8128-.90083 3.9592-.75403 5.7942.28471 1.5415.87414 2.796 2.47116 3.0762 4.45076.4582 3.2408-1.5058 6.377-4.7688 7.0176-1.4325.2825-2.8805.1891-4.3285.1179-2.4378-.1179-4.6087.8185-5.9855 2.8849-1.7994 2.698-2.0619 4.751-5.2804 6.7151-2.1131 1.2878-4.2128 2.5445-6.44598 3.6678-2.12196 1.0676-4.61314.9142-6.57273-.4204z" fill="url(#a)"/><path d="m14.5022 16.5397c-2.8826 3.5878-5.42275 3.2764-9.77121 3.1073-1.28118-.0489-2.43336-.7562-3.25412-1.706-2.406664-2.7826-1.79054-7.0109 1.25894-9.07282 3.14068-2.04856 6.55717-1.20111 9.09289 1.57922l.0444-4.45521c.0334-3.39869 2.9717-6.0211129 6.3125-5.99219732 3.3409.02891562 6.1857 2.80925732 6.1791 6.23909732 0 .79629-.3092 1.31454-.9743 1.72381l-3.8124 2.3511c-2.5356 1.5636-3.2252 3.9214-5.0758 6.2235z" fill="url(#b)"/><path d="m35.5861 25.2166c1.1232 2.1709.7763 4.8489-.8608 6.7529s-4.1372 2.6158-6.5683 1.9374c-1.5214-.4249-2.6513-1.3479-3.7879-2.5357-.0668 1.4858-.0223 2.7625-.0045 4.1349.0267 2.1353-.9498 4.0527-2.698 5.2538-1.884 1.2945-4.2506 1.5369-6.3904.4671-1.8239-.912-3.2207-2.8271-3.3453-4.9891 3.5099-.9475 7.329-2.4 9.8068-5.2871.9965-1.1633 1.6082-2.4511 2.2354-3.868.4471-1.0098 1.3613-1.9841 2.6069-1.9974l8.8037-.0957c.0667.158.1045.2447.2046.2269z" fill="url(#c)"/><path d="m35.5861 25.2168c-.1001.0178-.1379-.0712-.2046-.2269l-8.8037.0956c-1.2456.0134-2.1598.9876-2.6068 1.9974-.6273 1.4169-1.2367 2.7048-2.2354 3.8681-2.4779 2.8893-6.297 4.3395-9.8069 5.2871-.0244-1.5037-.318-1.7283.8631-2.3689l3.848-2.0908c2.1197-1.1522 3.6945-2.9094 4.7888-5.0647.4071-.803.7852-1.5325 1.2501-2.2688.8963-1.419 2.4178-2.1842 4.1149-2.1797l4.4463.0066c2.013.0045 3.5121 1.3301 4.3485 2.945z" fill="#395792"/><path d="m48.3243 28.7776c-1.354 0-2.5517-.2777-3.5932-.8332-1.0241-.5554-1.8226-1.3279-2.3954-2.3173-.5728-1.0068-.8593-2.1611-.8593-3.463v-5.572c0-1.2845.2865-2.4214.8593-3.4109.5728-.9894 1.3713-1.7531 2.3954-2.2913 1.0415-.5554 2.2392-.8331 3.5932-.8331 1.3713 0 2.569.2777 3.5931.8331 1.0415.5382 1.8487 1.3019 2.4215 2.2913.5728.9895.8592 2.1264.8592 3.4109v5.572c0 1.3019-.2864 2.4562-.8592 3.463s-1.38 1.7879-2.4215 2.3434c-1.0241.5381-2.2218.8071-3.5931.8071zm0-3.1505c.9547 0 1.7271-.3038 2.3173-.9113s.8853-1.4147.8853-2.4215v-5.7282c0-1.0068-.2951-1.8139-.8853-2.4215-.5728-.6249-1.3453-.9373-2.3173-.9373-.9547 0-1.7272.3124-2.3174.9373-.5728.6076-.8592 1.4147-.8592 2.4215v5.7282c0 1.0068.2864 1.814.8592 2.4215.5902.6075 1.3627.9113 2.3174.9113zm24.2953-10.7274c1.3539 0 2.4128.4079 3.1765 1.2238.7638.8158 1.1457 1.9614 1.1457 3.4369v8.6184c0 .0868-.0347.1649-.1042.2343-.052.0521-.1215.0781-.2083.0781h-3.0463c-.0868 0-.1649-.026-.2344-.0781-.052-.0694-.0781-.1475-.0781-.2343v-7.8112c0-.7117-.1822-1.2759-.5468-1.6925-.3645-.4166-.8505-.6249-1.4581-.6249-.6075 0-1.1022.2083-1.4841.6249s-.5728.9721-.5728 1.6664v7.8373c0 .0868-.0347.1649-.1042.2343-.052.0521-.1215.0781-.2083.0781h-3.0203c-.0868 0-.1649-.026-.2343-.0781-.0521-.0694-.0781-.1475-.0781-.2343v-7.8112c0-.6944-.191-1.2498-.5729-1.6664-.3818-.434-.8766-.651-1.4841-.651-.5555 0-1.0241.1649-1.406.4947-.3645.3298-.5815.7898-.651 1.38v8.2539c0 .0868-.0347.1649-.1041.2343-.0521.0521-.1215.0781-.2083.0781h-3.0464c-.0868 0-.1649-.026-.2343-.0781-.0521-.0694-.0781-.1475-.0781-.2343v-12.7584c0-.0867.026-.1562.0781-.2083.0694-.0694.1475-.1041.2343-.1041h3.0464c.0868 0 .1562.0347.2083.1041.0694.0521.1041.1216.1041.2083v1.0155c0 .0521.0174.0868.0521.1042.0347.0173.0695 0 .1042-.0521.7117-1.0589 1.8139-1.5883 3.3067-1.5883.8679 0 1.623.1823 2.2653.5468.6596.3645 1.163.8853 1.5101 1.5622.0521.1042.1129.1042.1823 0 .3819-.7117.8939-1.2411 1.5362-1.5883.6596-.3471 1.3973-.5207 2.2132-.5207zm13.8769 0c1.3886 0 2.5083.4253 3.3588 1.2758.8506.8506 1.2758 2.0049 1.2758 3.463v8.5403c0 .0868-.0347.1649-.1041.2343-.0521.0521-.1215.0781-.2083.0781h-3.0464c-.0868 0-.1649-.026-.2343-.0781-.0521-.0694-.0781-.1475-.0781-.2343v-7.7852c0-.6943-.1997-1.2585-.5989-1.6924-.3819-.434-.8939-.651-1.5362-.651s-1.163.217-1.5622.651c-.3819.4339-.5729.9981-.5729 1.6924v7.7852c0 .0868-.0347.1649-.1041.2343-.0521.0521-.1215.0781-.2083.0781h-3.0464c-.0868 0-.1649-.026-.2343-.0781-.0521-.0694-.0781-.1475-.0781-.2343v-12.7584c0-.0867.026-.1562.0781-.2083.0694-.0694.1475-.1041.2343-.1041h3.0464c.0868 0 .1562.0347.2083.1041.0694.0521.1041.1216.1041.2083v.9114c0 .052.0174.0867.0521.1041s.0608.0087.0781-.026c.7117-1.0068 1.7706-1.5102 3.1766-1.5102zm9.24-1.3019c-.5902 0-1.0849-.1909-1.4841-.5728-.3819-.3992-.5729-.8939-.5729-1.4841 0-.6076.191-1.1023.5729-1.4841.3818-.38193.8766-.57287 1.4841-.57287s1.1022.19094 1.4841.57287c.3819.3818.5728.8765.5728 1.4841 0 .5902-.1996 1.0849-.5988 1.4841-.3819.3819-.8679.5728-1.4581.5728zm-1.5622 14.8934c-.0868 0-.1649-.026-.2344-.0781-.0521-.0694-.0781-.1475-.0781-.2343v-12.7844c0-.0868.026-.1562.0781-.2083.0695-.0694.1476-.1041.2344-.1041h3.0463c.0868 0 .1563.0347.2083.1041.0695.0521.1042.1215.1042.2083v12.7844c0 .0868-.0347.1649-.1042.2343-.052.0521-.1215.0781-.2083.0781zm11.5577-13.5915c1.128 0 2.135.1996 3.02.5989.885.3818 1.571.9113 2.057 1.5882.503.677.755 1.4321.755 2.2653v8.8267c0 .0868-.035.1649-.104.2343-.052.0521-.121.0781-.208.0781h-3.047c-.086 0-.165-.026-.234-.0781-.052-.0694-.078-.1475-.078-.2343v-.8593c0-.052-.017-.0868-.052-.1041-.035-.0174-.07 0-.104.0521-.729.9547-1.901 1.432-3.515 1.432-1.354 0-2.448-.3298-3.281-.9894s-1.2499-1.6317-1.2499-2.9162c0-1.3366.4689-2.3694 1.4059-3.0984.937-.7464 2.274-1.1197 4.01-1.1197h2.656c.087 0 .13-.0433.13-.1301v-.5729c0-.5728-.174-1.0154-.521-1.3279-.347-.3298-.868-.4947-1.562-.4947-.538 0-.99.0955-1.354.2864-.347.191-.573.46-.677.8072-.052.1909-.165.2777-.338.2604l-3.151-.4166c-.208-.0347-.3038-.1129-.286-.2344.069-.729.355-1.3886.859-1.9788.521-.5902 1.198-1.0502 2.031-1.38.85-.3298 1.796-.4947 2.838-.4947zm-.521 11.0659c.746 0 1.38-.1996 1.901-.5989.521-.3992.781-.9113.781-1.5362v-.9373c0-.0868-.043-.1302-.13-.1302h-1.875c-.781 0-1.397.1475-1.849.4426-.434.2951-.651.7117-.651 1.2498 0 .4687.165.8419.495 1.1196.33.2604.773.3906 1.328.3906z" fill="#913988"/></g></svg>