<svg fill="none" height="48" viewBox="0 0 48 48" width="48" xmlns="http://www.w3.org/2000/svg"><path d="m24 1c12.7025 0 23 10.2975 23 23s-10.2975 23-23 23-23-10.2975-23-23 10.2975-23 23-23z" fill="#fff"/><path d="m24 1c12.7025 0 23 10.2975 23 23s-10.2975 23-23 23-23-10.2975-23-23 10.2975-23 23-23z" stroke="#d3c3ff" stroke-width="2"/><path d="m19.95 33.73v-2.8h3.2c.5466 0 .9666-.1533 1.26-.46.2933-.2933.44-.7067.44-1.24v-7.3h-4.3v-2.8h7.3v10.2c0 1.36-.4 2.4333-1.2 3.22s-1.8934 1.18-3.28 1.18zm6.3-16.34c-.5467 0-.9867-.14-1.32-.42-.32-.28-.48-.66-.48-1.14s.16-.86.48-1.14c.3333-.28.7733-.42 1.32-.42.5466 0 .98.14 1.3.42.3333.28.5.66.5 1.14s-.1667.86-.5 1.14c-.32.28-.7534.42-1.3.42z" fill="#4a24d9"/></svg>