<svg fill="none" height="22" viewBox="0 0 106 22" width="106" xmlns="http://www.w3.org/2000/svg" xmlns:xlink="http://www.w3.org/1999/xlink"><clipPath id="a"><path d="m0 2h27v19h-27z"/></clipPath><g fill="#fefefe"><g clip-path="url(#a)"><path clip-rule="evenodd" d="m10.5619 17.5597c.1268.0747.2635.1495.4002.2155 1.0181.4861 1.4909.8054 1.4909 1.4787 0 .7212-.5728 1.3112-1.2731 1.3112-.5454 0-.9999-.3556-1.18163-.8519-.33733.3558-.74041.6385-1.18546.8314-.44507.1929-.92311.2921-1.40598.2918-.47749 0-.95032-.0969-1.39145-.2851-.44115-.1882-.84198-.464-1.17957-.8117-.33762-.3478-.6054-.7606-.78807-1.2149-.18267-.4544-.27663-.9413-.27655-1.433 0-.1967.02679-.3933.05425-.5899-1.86432-.5616-3.300239-2.1623-3.627869-4.1663-.045092-.2903-.072571-.5805-.072571-.8802 0-.2996.027479-.5899.072571-.8801.336789-1.99393 1.763549-3.60473 3.627869-4.16633l-.00351-.02468c-.02607-.1872-.05144-.36786-.05144-.56522-.00009-.4918.0939-.9788.27661-1.43318.18272-.45437.45057-.86722.78824-1.21497.3377-.34775.7386-.62359 1.1798-.81174.44123-.18816.91414-.28496 1.39169-.28486 1.00966 0 1.92772.431 2.59144 1.12321.08903-.24919.24993-.46437.46113-.61664.2112-.15228.4626-.23435.7205-.2352.7003 0 1.2731.5899 1.2731 1.31113 0 .72993-.4728 1.04847-1.4909 1.53533-.1001.04914-.1988.10142-.2959.15674l-.1043.05804c-.0817.04716-.1634.09432-.2367.14076-.0634.03774-.1177.07474-.1726.11248-.0173.00954-.0338.02046-.0493.03264-.0161.01226-.033.02318-.0508.03266-.30858.20606-.59041.44986-.86379.70236-.00849.00496-.0161.01134-.02255.01886-.00705.00726-.01408.01452-.02255.01888-.10921.11174-.21841.22492-.31847.33666l-.04086.04716c-.01339.01598-.02677.03266-.04087.04644-.04293.05482-.08662.109-.13104.16254-.06836.08272-.13529.1647-.19588.2496-.88173 1.2031-1.36041 2.66844-1.36406 4.17573-.00062 1.508.4785 2.9747 1.36406 4.1758.11292.1608.23578.314.36779.4585.0141.016.02748.0327.04086.0465.07539.0914.15501.1719.23603.2539l.08244.0835c.00849.0049.0161.0113.02255.0188.00705.0073.01408.0138.02255.0189.26946.2571.5583.4917.86379.7017.0183.0094.0346.0217.0501.0326.0157.0125.0325.0236.05.0334l.0866.0558.086.0559.1184.0704c.0387.0232.0775.0472.1183.0704zm12.6366-11.11311c1.8643.56162 3.3004 2.16226 3.6279 4.16631.0963.6013.0963 1.2148 0 1.8162-.3368 1.9939-1.7636 3.6047-3.6279 4.1663l.0035.0246c.0262.1872.0515.3679.0515.5653.0002.4918-.0939.9789-.2766 1.4333-.1828.4544-.4507.8673-.7885 1.2151-.3378.3477-.7387.6235-1.18.8117-.4413.1881-.9143.2848-1.392.2846-.4825-.0007-.9602-.1004-1.405-.2932s-.8479-.475-1.1857-.83c-.089.2492-.2499.4644-.4611.6167-.2112.1522-.4626.2343-.7204.2351-.3373-.0009-.6605-.1392-.899-.3848-.2386-.2455-.3731-.5782-.3742-.9255 0-.7307.4727-1.0493 1.4909-1.5361.1007-.0479.1973-.1016.2959-.1568l.1043-.058c.0817-.0472.1634-.0943.2367-.1408.0634-.0377.1177-.0747.1726-.1124.0173-.0096.0338-.0205.0494-.0327.016-.0122.033-.0232.0507-.0326.3055-.2102.5944-.4451.8638-.7024.0085-.0049.0161-.0113.0225-.0189.0071-.0072.0141-.0137.0226-.0181.1092-.1125.2184-.2249.3185-.3374l.0408-.0464c.0134-.0167.0268-.0334.0409-.0472.0423-.0552.0874-.1088.131-.1625.0684-.0828.1353-.164.1959-.2496.8456-1.161 1.364-2.6121 1.364-4.1758.0006-1.5077-.4786-2.97417-1.364-4.17501-.1129-.16106-.2357-.31448-.3678-.45928-.0141-.01598-.0275-.03266-.0408-.04644-.0992-.11926-.2056-.23196-.3185-.3374-.0085-.00498-.0161-.01136-.0226-.01886-.0065-.00728-.0141-.0134-.0225-.01814-.2718-.2545-.5604-.48918-.8638-.70238-.0175-.0095-.0342-.02042-.05-.03264-.0162-.01162-.0317-.02322-.0501-.03266-.0275-.01886-.0563-.03772-.0866-.0566-.029-.01808-.0577-.0367-.086-.05586l-.1184-.07038c-.1675-.10466-.3404-.2001-.5178-.28588-1.0097-.49558-1.4916-.81412-1.4916-1.53534 0-.72051.5728-1.31041 1.2732-1.31041.5453 0 .9998.35554 1.1815.85184.3374-.35581.7404-.63849 1.1855-.83139s.9231-.29212 1.406-.29182c.4775 0 .9502.09687 1.3914.28507.4411.1882.842.46404 1.1796.81178.3376.34775.6055.76057.7881 1.21489.1826.45434.2766.94128.2766 1.433 0 .19592-.0268.39328-.0544.5899z" fill-rule="evenodd"/><path d="m17.4819 11.4955c.0003-.5361-.1021-1.0671-.3012-1.56242-.1991-.49536-.4911-.94544-.8592-1.3245-.3682-.37906-.8053-.67966-1.2863-.88464-.4811-.20496-.9966-.31026-1.5173-.30988-.5206-.00028-1.0361.1051-1.5171.31016s-.9181.50574-1.2862.88488c-.3681.37912-.66.82926-.85899 1.32464-.19904.49536-.30129 1.02636-.30092 1.56246-.00027.5361.10204 1.0669.30112 1.5622.19909.4953.49099.9454.85909 1.3244.3681.3791.8051.6797 1.286.8847.481.205.9965.3104 1.517.3101.5207.0004 1.0362-.1049 1.5173-.3099.481-.2049.9181-.5055 1.2863-.8846.3681-.3791.6601-.8291.8592-1.3245s.3015-1.0263.3012-1.5624z"/></g><path d="m96.1797 19.875v-12.25h2.875v1.75h.125s1.2503-2 3.5003-2h.5v3.125s-.375-.125-1-.125c-1.75 0-3.1253 1.375-3.1253 3.5v6z"/><path d="m88.9219 20.125c-3.625 0-6.5-2.875-6.5-6.375s2.875-6.375 6.375-6.375 6 2.75 6 6.125c0 .75-.125 1.375-.125 1.375h-9.125c.3 1.375 1.5 2.625 3.5 2.625 2.125 0 3.375-1.525 3.375-1.525l1.625 2.025s-1.625 2.125-5.125 2.125zm-3.375-7.625h6.125c-.375-1.375-1.375-2.375-3-2.375-1.75 0-2.75 1-3.125 2.375z"/><path d="m79.7812 20.125c-2.375 0-3.875-1.5-3.875-4.25v-5.25h-2.25v-2.75h1.25c.8751 0 1.25-.375 1.25-1.375v-2.5h2.625v3.875h2.75v2.75h-2.75v4.875c0 1.25.6251 1.875 1.625 1.875.75 0 1.5-.35 1.5-.35v2.725s-.8749.375-2.125.375z"/><path d="m65.7812 19.875v-12.25h2.875v1.75h.125s1.25-2 3.5-2h.5v3.125s-.3749-.125-1-.125c-1.7499 0-3.125 1.375-3.125 3.5v6z"/><path d="m57.8984 20.125c-2.375 0-4-1.625-4-3.5 0-2 1.5-3.5 3.625-3.875l4.125-.75c0-.875-1-1.875-2.375-1.875-1.825 0-3 1.5-3 1.5l-1.75-1.75s1.75-2.5 4.875-2.5c3 0 5.125 2.2 5.125 4.875v7.625h-2.875v-1.625h-.125s-1.125 1.875-3.625 1.875zm.75-2.375c1.625 0 3-1.375 3-3.125v-.375l-2.875.5c-1.5.275-2 .75-2 1.5s.75 1.5 1.875 1.5z"/><path d="m50.2578 20.125c-2.375 0-3.875-1.5-3.875-4.25v-5.25h-2.25v-2.75h1.25c.875 0 1.25-.375 1.25-1.375v-2.5h2.625v3.875h2.75v2.75h-2.75v4.875c0 1.25.625 1.875 1.625 1.875.75 0 1.5-.35 1.5-.35v2.725s-.875.375-2.125.375z"/><path d="m37.5 20.25c-4.375 0-6.5-2.75-6.5-2.75l2.125-2.125s1.5 2 4.375 2c2 0 3.125-1.125 3.125-2.375 0-3.5-9-1.625-9-8 0-2.625 2.375-5 6.125-5s5.625 2.375 5.625 2.375l-2.125 2.125s-1.25-1.625-3.5-1.625c-1.875 0-2.875 1-2.875 2.125 0 3.5 9 1.625 9 8 0 2.75-2.5 5.25-6.375 5.25z"/></g></svg>